<svg fill="#1A1A1A" xmlns="http://www.w3.org/2000/svg" xmlns:xlink="http://www.w3.org/1999/xlink" version="1.0" x="0px" y="0px" viewBox="0 0 100 100" enable-background="new 0 0 100 100" xml:space="preserve"><path d="M68.35,19.488c1.505-2.631,2.556-5.468,3.14-8.32c0.595-2.847,0.777-5.729,0.671-8.478l-4.748-0.276  c-0.156,1.073-0.35,2.126-0.575,3.162l-14.6-0.031l-1.686,1.968l1.747,2.314l13.304,0.026c-0.713,1.945-1.616,3.755-2.76,5.378  l-11.029-0.023l-1.804,2.104l1.646,2.179l7.284,0.015c-2.146,1.814-4.66,3.322-7.392,4.681c-0.796,0.397-1.619,0.78-2.447,1.159  c-2.675-1.74-5.067-3.658-6.951-5.876l7.388,0.019l-1.682-2.227l1.764-2.057l-10.246-0.02c-0.791-1.687-1.333-3.497-1.665-5.388  l12.471,0.026l-1.783-2.357l1.648-1.925L37.303,5.514c-0.02-0.948-0.003-1.904,0.056-2.866L30.085,2.29  c-0.116,2.858,0.012,5.789,0.562,8.713c0.543,2.924,1.535,5.846,3.027,8.516c1.475,2.676,3.427,5.06,5.593,7.06  c0.819,0.757,1.66,1.464,2.519,2.128c-1.59,0.778-3.207,1.634-4.83,2.671c-2.543,1.625-5.143,3.818-7.065,6.763  c-0.96,1.457-1.701,3.081-2.221,4.727s-0.807,3.317-0.936,4.937l-0.039,0.607l-0.023,0.556l-0.011,0.662l0.009,0.625  c0.02,0.827,0.083,1.669,0.199,2.515c0.237,1.694,0.702,3.416,1.407,5.045c0.712,1.622,1.658,3.13,2.729,4.443  c1.067,1.32,2.248,2.459,3.453,3.448c2.146,1.752,4.322,3.106,6.438,4.324c-1.505,0.93-2.993,1.961-4.409,3.129  c-2.279,1.866-4.354,4.118-6.001,6.667c-1.663,2.539-2.875,5.346-3.668,8.19c-0.798,2.836-1.207,5.771-1.369,8.557l7.266,0.424  c0.046-1.099,0.135-2.176,0.272-3.239l14.635,0.032l-1.64-2.168l1.809-2.114l-13.942-0.028c0.539-1.908,1.286-3.712,2.278-5.373  l12.139,0.021l-1.744-2.304l1.696-1.979L39.54,79.83c2.104-2.039,4.656-3.761,7.457-5.278c0.339-0.188,0.687-0.366,1.033-0.551  c0.168,0.098,0.34,0.194,0.508,0.29c2.831,1.671,5.383,3.459,7.452,5.566l-5.578-0.007l-1.733,2.019l1.709,2.259l8.843,0.019  c0.938,1.643,1.627,3.459,2.115,5.389l-11.359-0.022l-1.851,2.156l1.607,2.122l12.367,0.027c0.108,0.955,0.182,1.924,0.219,2.905  L67.977,97c0.364-2.796,0.435-5.698,0.072-8.644c-0.356-2.938-1.213-5.916-2.577-8.694c-1.384-2.771-3.289-5.27-5.418-7.397  c-0.991-0.988-2.032-1.887-3.097-2.729c1.438-0.755,2.889-1.573,4.325-2.53c2.427-1.622,4.862-3.726,6.62-6.5  c0.877-1.375,1.561-2.888,2.032-4.429c0.475-1.545,0.731-3.112,0.841-4.646l0.035-0.576l0.017-0.536  c0.017-0.404,0.017-0.825,0.009-1.197c-0.018-0.782-0.075-1.573-0.184-2.366c-0.218-1.586-0.646-3.187-1.294-4.697  c-0.654-1.51-1.524-2.921-2.52-4.161c-0.993-1.249-2.104-2.335-3.248-3.298c-2.009-1.693-4.104-3.032-6.151-4.269  c1.777-1.132,3.54-2.389,5.174-3.871C64.828,24.467,66.83,22.114,68.35,19.488z M63.079,44.777c0.326,0.736,0.561,1.523,0.717,2.336  c0.1,0.522,0.162,1.061,0.199,1.609c-0.04-0.559-0.106-1.107-0.21-1.638l-12.321,0.033l-1.886,2.223l1.568,2.063l12.799-0.036  c-0.001,0.01-0.002,0.021-0.003,0.03c-0.206,2.02-0.788,3.847-1.811,5.421c-0.174,0.276-0.367,0.542-0.569,0.804l-10.107-0.02  l-1.772,2.076l1.671,2.208l5.112,0.01c-1.849,1.126-3.885,2.142-6.013,3.164c-1.39-0.86-2.759-1.683-4.075-2.481  c-0.378-0.236-0.756-0.471-1.125-0.703l3.981,0.008l-1.708-2.253l1.738-2.029l-9.736-0.017c-1.891-1.886-2.918-3.845-3.231-6.242  l12.722,0.024l-1.594-2.113l1.855-2.166l-12.889-0.029c0.24-1.433,0.706-2.705,1.417-3.854c0.21-0.352,0.453-0.688,0.717-1.024  l11.098,0.024l-1.66-2.188l1.795-2.094l-6.021-0.011c1.439-0.876,3.005-1.71,4.636-2.562c0.685-0.353,1.381-0.712,2.084-1.079  c0.882,0.508,1.753,1.008,2.609,1.507c1.204,0.705,2.376,1.419,3.482,2.157l-4.601-0.009l-1.83,2.134l1.627,2.146l9.774,0.019  C62.165,43.035,62.691,43.879,63.079,44.777z M64.018,49.092c-0.002-0.042,0-0.085-0.003-0.126  C64.018,49.007,64.016,49.05,64.018,49.092z"></path></svg>