<svg fill="#1A1A1A" xmlns="http://www.w3.org/2000/svg" xmlns:xlink="http://www.w3.org/1999/xlink" version="1.1" x="0px" y="0px" viewBox="0 0 72 72" style="enable-background:new 0 0 72 72;" xml:space="preserve"><path d="M47.3904839,50.279541c-0.2792206-2.7405853-1.5757332-3.855957-1.5757332-3.855957  c-0.1151123-0.1186523-0.2982178-0.277771-0.5304565-0.4650269c0.1305542-0.1420898,0.2637329-0.2879639,0.4020996-0.4620361  c0.2423706-0.3049316,0.4874268-0.6594238,0.7037354-1.0702515c0.5293579-1.0055542,0.8366852-1.7370682,0.7993393-3.9701424  c0.0399055-2.2586975-1.5631943-3.993969-1.5631943-3.993969v-0.0004883  c-0.0048828-0.0053711-0.0175781-0.0180664-0.0175781-0.0180664c-0.8222656-0.8476562-4.8095703-3.5874023-9.4521484-6.2036133  c-1.309082-0.7471924-2.5100098-1.4545288-3.5839844-2.1079102c2.2793579-1.3829346,4.6461182-2.8064575,4.6460571-2.8064575  c3.473999-2.1257324,6.2173462-3.5155029,7.8984985-5.0521851c0.1550293-0.1636353,0.3226929-0.3511963,0.4920654-0.5630493  c0.2595825-0.324646,0.5217285-0.7095947,0.7502441-1.1560669c0.5090332-0.994751,0.8417625-2.1031284,0.7689095-3.9854736  C47.0416679,12.2753296,45.57061,10.682373,45.57061,10.682373c-0.0058594-0.0058594-0.0107422-0.012207-0.0175781-0.0180664  c0,0-0.171814-0.1291504-0.4714355-0.3491211c1.1118774-1.206604,2.713501-3.5665283,1.1538086-7.5563965  c-0.0002441-0.0005493-0.0004272-0.0011597-0.0006714-0.001709c-0.128418-0.3282471-0.2714233-0.6640625-0.4447632-1.0146484  h-0.0667725c0.0421143,0.1550903,0.100708,0.3831177,0.1496582,0.6608276  c-0.0723267-0.0288086-0.1495361-0.0479736-0.2315674-0.0479736h-6.3947144l0.0006104-0.0004883h-6.7245483  c-0.4926758-0.2997437-0.9678345-0.592041-1.4007568-0.8657837L31.0486374,1.442627h-5.6879883l0.8930664,0.9799805  c0.0053711,0.0058594,0.0112305,0.0117188,0.0170898,0.0175781l0.0009766,0.0009766  c0.8227539,0.8476562,4.8100586,3.5874023,9.4521484,6.2036133c1.2112427,0.6913452,2.3339233,1.3504028,3.3465576,1.9631958  c-1.4812622,0.8736572-2.8612061,1.6766968-3.2772217,1.9185791v0.0003052  c-0.7758789,0.5314941-7.5106812,4.3996582-9.1918335,5.9363403c-0.1769409,0.1867065-0.3701782,0.4077759-0.5637207,0.6575317  c-0.1101685,0.1420898-0.2194214,0.2952271-0.3267212,0.4588013c-0.645813,0.9846802-1.2029667,2.2954712-1.1651497,4.229126  c-0.0018196,2.5663452,1.7825813,4.413269,1.7825813,4.413269c0.0674438,0.069519,0.1594238,0.1536255,0.2681274,0.2474976  c-0.9328613,1.024292-2.0525284,3.1748657-1.7369022,5.7360229c0.1854744,2.502243,1.6753178,3.9974365,1.6753178,3.9974365  c0.7641602,0.7871094,4.2578125,3.2050781,8.4711914,5.6425781h-0.0019531l0.2275391,0.1298828  c0.1855469,0.1064453,0.3730469,0.2128906,0.5605469,0.3203125l0.1943359,0.1103516  c1.1654053,0.664978,2.2446899,1.2983398,3.2261353,1.8907471c-1.4606934,0.8613281-2.8131104,1.6485596-3.2244873,1.8876953  v0.0002441c-0.7758789,0.5314941-7.5106812,4.3996582-9.1918335,5.9363403  c-0.1796265,0.1895752-0.3760986,0.4147339-0.5726318,0.6693115c-0.1119995,0.1451416-0.2231445,0.3009033-0.3319702,0.4682617  c-0.567749,0.8726196-1.2084103,2.0195312-1.2970715,3.6017456c-0.1609421,2.5059204,1.9196911,5.0310059,1.9196911,5.0310059  c0.0881958,0.0908813,0.2250977,0.2105713,0.3830566,0.3424683c-0.1368408,0.1521606-0.2787476,0.3192139-0.4231567,0.5040894  c-0.0871582,0.1115723-0.1737061,0.2214355-0.2597046,0.3464966c-0.664917,0.96698-1.2392578,2.3479614-1.062561,4.2199707  c-0.0140381,0.3317871-0.0236816,0.6618652,0.0020142,0.9776001l0.0224609,0.2753906h3.1513672l-0.4238281-0.4951172  c-0.3445435-0.4020996-0.5907593-0.7976685-0.7786865-1.1826782h1.1131592h2.2626953v0.0010376h3.37146  c0.6773071,0.4030762,1.3764648,0.8101196,2.0943604,1.2148438l0.8037109,0.4619141h7.03125l-0.8037109-0.5478516  c-1.9570312-1.3330078-4.1962891-2.7128906-6.65625-4.0996094v-0.0009766  c-1.2483521-0.7120972-2.4025879-1.3901367-3.439209-2.0186768c2.2626953-1.3728027,4.5939941-2.7747803,4.5939331-2.7747803  c3.473999-2.1257324,6.2173462-3.5155029,7.8984985-5.0521851c0.1600952-0.1689453,0.3336792-0.364502,0.508667-0.5849609  c0.2346191-0.2955322,0.4710693-0.6387329,0.6820679-1.0334473C47.1319504,53.423584,47.4769287,52.4726715,47.3904839,50.279541z   M44.719902,42.6120605h-2.7880859c0.1282959-0.1672974,0.1953735-0.3770752,0.197998-0.5198975  c0.000061-0.0029907-0.0006714-0.0070801-0.0006714-0.0101318c0.0001221-0.0049438,0.0039673-0.0100098,0.0039673-0.0148926  c0-0.0183105-0.0071411-0.0325928-0.0081177-0.050354c-0.0025635-0.0483398-0.0115967-0.0987549-0.0249023-0.1539917  c-0.0077515-0.0303955-0.0135498-0.0621338-0.0250854-0.0906372c-0.0255737-0.0673218-0.0614624-0.1350098-0.1151733-0.2001343  h3.3955078c0.019104,0.0425415,0.0465698,0.0830688,0.0643921,0.1259155  C45.2358322,42.0028076,44.9960861,42.3085938,44.719902,42.6120605z M30.7392502,31.6442871h0.3981323h1.12323h3.3861694  c0.2822266,0,0.5107422,0.2338867,0.5107422,0.5209961s-0.2285156,0.5205078-0.5107422,0.5205078h-1.6729736h-1.1605225h-2.1030273  l0.5430298-0.567749L30.7392502,31.6442871z M30.549614,31.4694824v0.0006104h-3.06073  c0.355835-0.345459,0.7801514-0.6848145,1.2913208-1.010498c0.0812988-0.0518188,0.1771851-0.1121826,0.2817383-0.1776733  c0.5449219,0.3702393,1.1449585,0.7672729,1.8010864,1.187561H30.549614z M28.2139206,32.8602295H30.47686v0.0003662h2.6240234  c0.8545532,0.5161743,1.7529907,1.0429688,2.6796875,1.5654297c0.2115479,0.1206665,0.40448,0.234375,0.6105347,0.3530273  h-1.5007935l0.0006104-0.0004883h-6.9014893c-0.5922241-0.5977173-1.008606-1.2401733-1.2768555-1.918335H28.2139206z   M28.1541672,34.9533691h6.2728882c-0.0244141,0.0322266-0.0488281,0.0673828-0.0742188,0.1069336  c-0.0117188,0.015625-0.0224609,0.03125-0.03125,0.0488281c-0.0664062,0.1264648-0.1025391,0.2617188-0.1025391,0.390625  c0,0.1972656,0.0566406,0.3588867,0.1748047,0.4951172h-4.911499h-1.026123h-1.8880615  c-0.2626953,0-0.4765625-0.2192383-0.4765625-0.4882812v-0.0649414c0-0.269043,0.2138672-0.4882812,0.4765625-0.4882812h0.7579346  H28.1541672z M34.9124069,36.1696777l-0.0007324-0.0004883h3.8468628c1.1690063,0.7020874,2.2144775,1.3529663,3.0723877,1.9188843  h-1.6469727H38.023735v-0.0014038h-5.2869263c-1.1760254-0.7163086-2.1900024-1.3634033-3.0031738-1.9169922H34.9124069z   M33.0248947,38.2624512h4.6722412l-0.5410767,0.5678101l0.5114746,0.4732056h-2.8897705h-1.1835327h-3.7589722  c-0.2802734,0-0.5087891-0.2333984-0.5087891-0.5205078s0.2285156-0.5205078,0.5087891-0.5205078h2.038269H33.0248947z   M37.9504929,39.479248v-0.0010376h5.7925415c0.6769409,0.5963135,1.184082,1.2365112,1.5223999,1.9180298h-3.8305664  l0.0012817,0.0008545h-3.0453491c-0.6577148-0.3908081-1.3318481-0.7842407-2.0281982-1.1766357  c-0.4412842-0.2518921-0.8685303-0.4985962-1.2853394-0.7412109H37.9504929z M41.4532394,42.7872314l-0.0007935,0.0006104h3.1112671  c-0.3844604,0.3925171-0.8520508,0.7785645-1.4303589,1.1470337c-0.1064453,0.0678101-0.2258911,0.1427612-0.3551636,0.2231445  c-0.6320801-0.4244995-1.3569946-0.8908691-2.1185913-1.3707886H41.4532394z M35.8596725,30.7624512  c6.3779297,3.59375,9.3710938,6.0917969,9.3935547,6.112793l0.0166016,0.0166016  c0.0429688,0.0361938,0.5444336,0.602932,0.8617554,1.668911c0.0794678,0.7005005,0.0401611,1.4841042-0.3729858,2.4673805  c-0.3133545-0.5984497-0.7229004-1.1138916-1.163147-1.5650635c0.3391724-0.0390625,0.6083984-0.3239136,0.6083984-0.6799316  c0-0.3822632-0.3065186-0.6950684-0.6812744-0.6950684h-1.6173096c-0.8027344-0.5527344-1.8123779-1.2012939-2.984436-1.9188843  h1.4058838c0.3546143,0,0.6447144-0.2959595,0.6447144-0.6577759v-0.0745239c0-0.3618164-0.2901001-0.6578369-0.6447144-0.6578369  h-3.734436c-0.4893188-0.2860107-0.9903564-0.5765991-1.513855-0.8754883  c-0.6392822-0.3602295-1.2352905-0.7060547-1.8070679-1.0429688h1.3754272c0.3779297,0,0.6865234-0.3120117,0.6865234-0.6953125  c0-0.3837891-0.3085938-0.6958008-0.6865234-0.6958008h-3.6681519c-0.9052124-0.567749-1.6883545-1.0819092-2.3570557-1.5353394  c0.6439209-0.3977661,1.4829102-0.9101562,2.371521-1.4502563C33.322197,29.2971802,34.6969528,30.0984497,35.8596725,30.7624512z   M29.6259689,26.255249c-0.3292236-0.2229614-0.6384277-0.4366455-0.9015503-0.62854  c-0.5119629-0.3826904-0.9324951-0.7892456-1.2893677-1.211792h3.0623169l-0.0004883,0.0003662h2.0814819  C31.6183395,24.9994507,30.5773239,25.6420288,29.6259689,26.255249z M32.8662643,24.2404785h-1.885376  c0.1286621-0.1674194,0.1958008-0.3776245,0.1984253-0.5206299c0.0014648-0.0805054-0.0113525-0.1838989-0.0466309-0.2904053  c-0.0008545-0.0023804-0.0011597-0.0050049-0.0020142-0.0073853c-0.0256958-0.0748291-0.0617065-0.1503906-0.1217651-0.2230835  h3.5831299C34.0971603,23.4970093,33.5056686,23.8526001,32.8662643,24.2404785z M46.0035934,14.1211548  c-0.0499878,0.2928467-0.1268311,0.5958252-0.2434082,0.9091797h-0.1923218h-0.694458h-3.7471924l0.5432739-0.5679932  l-0.5137329-0.4735107h2.8476562h0.8174438h0.9724121c0.081665,0,0.1559448,0.0244141,0.2243042,0.0593872  C46.0139084,14.0721436,46.0076218,14.0971069,46.0035934,14.1211548z M44.7149582,6.7370605  c-0.437561,0.5268555-1.0057373,1.0487671-1.7766113,1.539917c-0.1091919,0.0695801-0.2530518,0.1582031-0.3862305,0.2409668  c-0.7979126-0.550354-1.7091064-1.1621704-2.6715698-1.78125h0.9293213v0.0003662H44.7149582z M43.1565475,13.2585449  c0.2411499,0.1802368,0.4598999,0.366333,0.6668091,0.555481h-2.8582153v0.0003662h-1.0980225  c0.7894897-0.4639282,1.5264893-0.8968506,2.199707-1.3110962C42.471611,12.7744141,42.8436203,13.0304565,43.1565475,13.2585449z   M45.1965866,11.0944824l0.015625,0.0161133c0.043457,0.036377,0.5284424,0.4668579,0.8452759,1.5308838  C46.096611,13,46.1055222,13.4162598,46.0518112,13.8671265c-0.0800171-0.0332642-0.1669312-0.0531006-0.2585449-0.0531006  h-1.1201172c-0.369751-0.3982544-0.7680664-0.744873-1.1601562-1.0379028  c-0.2603149-0.1897583-0.5643311-0.4000854-0.887207-0.6192017c0.7867432-0.5005493,1.4706421-0.9823608,2.052002-1.4733887  C45.0156784,10.9434204,45.1913376,11.0895386,45.1965866,11.0944824z M44.8653488,6.5622559h-3.8214111l0.5430298-0.567749  L41.0729294,5.520752h4.4185791C45.3338547,5.8648682,45.1335983,6.213501,44.8653488,6.5622559z M39.265007,3.7454224h6.3762817  c0.1154785,0,0.2183838-0.0397949,0.3123779-0.0946655c-0.024353,0.5175781-0.1295776,1.0955811-0.3775024,1.6951904H40.88311  v0.0006104h-3.2557373c-0.1828003-0.1083984-0.3639526-0.2208862-0.5469971-0.3267822h0.0029297l-0.2773438-0.1582031  c-0.1660156-0.0952148-0.3320312-0.1899414-0.5-0.284668l-0.2060547-0.1176758  c-0.4216309-0.2405396-0.8327637-0.4780884-1.2371826-0.7133179h4.4030151L39.265007,3.7454224z M31.6578903,2.5296021h1.1540527  h5.9694214c-0.0244141,0.0322266-0.0498047,0.0683594-0.0751953,0.1079102  c-0.0038452,0.0054321-0.006897,0.0113525-0.010498,0.0168457c-0.0054932,0.0079346-0.0117188,0.0155029-0.0161743,0.0241699  c-0.0007324,0.0014648-0.0010376,0.0030518-0.00177,0.0045166c-0.0002441,0.0004883-0.0006104,0.0008545-0.0008545,0.0013428  c-0.0004272,0.0007935-0.0001831,0.0015869-0.0006104,0.0023804c-0.0618286,0.1199341-0.0980835,0.2506714-0.1004639,0.3793945  c-0.000061,0.0031128-0.0024414,0.0062256-0.0024414,0.0093384c0,0.1239624,0.0310669,0.2299194,0.0772705,0.3283691  c0.0166016,0.0365601,0.0392456,0.0722656,0.0623169,0.1057129c0.0139771,0.0196533,0.0198975,0.0428467,0.0361938,0.0615234  h-4.1859131h-1.1813965H31.422966c-0.2626953,0-0.4765625-0.2192383-0.4765625-0.4882812V3.0178833  c0-0.269043,0.2138672-0.4882812,0.4765625-0.4882812H31.6578903z M36.0208054,8.1228027  c-5.9799805-3.3701172-8.9829102-5.7749023-9.3544922-6.0805664h4.2084961  c0.1636963,0.1032715,0.3411865,0.2125854,0.5136108,0.3197021c-0.3424072,0.0192871-0.6168213,0.3026733-0.6168213,0.6559448  v0.0649414c0,0.3657227,0.2919922,0.6630859,0.6513672,0.6630859h2.2523804  c0.374939,0.2214355,0.7583008,0.446106,1.1520996,0.6742554l0.9746094,0.5610352  c0.2236938,0.1260376,0.4182739,0.2421265,0.633606,0.3653564h-0.2145996c-0.3761597,0-0.6838379,0.3127441-0.6838379,0.6950684  c0,0.3822632,0.3076782,0.6950684,0.6838379,0.6950684h2.3265381h0.2471313  c1.2784424,0.777771,2.3815308,1.4847412,3.2689209,2.0822144c-0.6906738,0.4216919-1.5402222,0.9297485-2.40802,1.4433594  C38.5665207,9.5988159,37.3488083,8.8809814,36.0208054,8.1228027z M37.0866013,15.4725952  c0.1529541-0.0935669,0.2948608-0.1773071,0.4448242-0.2680664h1.0986938h2.2627563v0.0006104h4.1036987  c0.1383057,0.2261353,0.2579956,0.4567871,0.3570557,0.6925049c-0.1923218,0.3180542-0.4429321,0.637207-0.736084,0.9535522  h-5.6364136l0.0006104-0.0004883h-4.1810303C36.1049118,16.0630493,37.0866623,15.4725952,37.0866013,15.4725952z   M34.5112839,17.0255127h4.0046387c-0.0130615,0.0172119-0.0264893,0.0380859-0.0396729,0.0571899  c-0.0066528,0.0099487-0.0168457,0.0164185-0.0231934,0.0264893c-0.0139771,0.0222168-0.0313721,0.0421143-0.0435791,0.0652466  c-0.0664062,0.1260986-0.1054077,0.2649536-0.1054077,0.4008179c0,0.0222778,0.0123291,0.0366211,0.0136719,0.0579224  c0.0063477,0.0925903,0.026062,0.1779175,0.0602417,0.255127c0.019165,0.0443115,0.0460205,0.0874023,0.0745239,0.1271362  c0.0119629,0.0162964,0.0166626,0.0359497,0.0302124,0.0515747h-5.6923828  C33.3815842,17.7086182,33.9677048,17.3539429,34.5112839,17.0255127z M32.5020676,18.2418213h6.4992065l-0.0007324-0.0004883  h3.8916626c-0.6589966,0.4143066-1.6600952,1.0168457-2.7211914,1.6466675h-2.4921875h-2.2000122v-0.0005493h-5.6747437  C30.5626755,19.4206543,31.5264206,18.8337402,32.5020676,18.2418213z M28.6481857,20.6066284  c0.213562-0.1360474,0.5140991-0.3234253,0.8718872-0.5443726h5.6720581l-0.5411987,0.5679321l0.5119019,0.4735718h-7.2164307  C28.1611252,20.9353638,28.3930588,20.769165,28.6481857,20.6066284z M27.7427902,21.2785645h7.6637573v-0.0004272h2.4055786  c-0.8883057,0.5204468-1.6072998,0.9389038-1.8868408,1.1014404v0.0002441  c-0.1500244,0.1027832-0.5275879,0.3331299-1.043335,0.6443481h-4.4026489l0.0009155,0.0006104h-3.9121094  c-0.041687-0.0971069-0.0968628-0.190979-0.131958-0.2896729C26.7474289,22.2454224,27.178093,21.7542725,27.7427902,21.2785645z   M25.6855392,26.2936401l-0.000061-0.000061c-0.072937-0.508728-0.0862427-1.1633911,0.0648193-1.8786621h0.9324951  c0.4970093,0.6825562,1.0941162,1.2526245,1.6851807,1.6942139c0.2211914,0.161377,0.4625244,0.3302002,0.7123413,0.5018921  c-0.8353271,0.5494995-1.5557251,1.0544434-2.0502319,1.4567261c-0.225647-0.1762085-0.3419189-0.2730713-0.3461914-0.2769775  l-0.0170898-0.0175781C26.6158371,27.730957,26.0772018,27.267395,25.6855392,26.2936401z M37.2590866,44.4450684  l-0.9746094-0.5615234c-6.378418-3.59375-9.3710938-6.0917969-9.394043-6.1123047l-0.0170898-0.0175781  c-0.1295166-0.1079102-0.6849976-0.6172485-1.0582886-1.6269531c-0.1043701-0.744873-0.1054077-1.7844849,0.3961182-2.8902588  c0.2495728,0.5745239,0.5783691,1.0918579,0.9588013,1.5421143h-0.6018066c-0.359375,0-0.6513672,0.2973633-0.6513672,0.6630859  v0.0649414c0,0.3657227,0.2919922,0.6630859,0.6513672,0.6630859h2.1201782  c0.8148804,0.5882568,1.828186,1.2491455,2.9019165,1.9169922h-1.7550049c-0.3769531,0-0.6835938,0.3125-0.6835938,0.6962891  s0.3066406,0.6962891,0.6835938,0.6962891h4.0554199c0.7617188,0.4499512,1.5045776,0.8807373,2.1750488,1.2636719  c0.4002686,0.2255249,0.7617188,0.4378052,1.1350708,0.6541748h-0.632019c-0.3580933,0-0.651062,0.2959595-0.651062,0.6577759  v0.0745239c0,0.3618164,0.2929688,0.6578369,0.651062,0.6578369h2.9693604  c1.0291138,0.6341553,1.9197998,1.2105103,2.6758423,1.7174683c-0.6937866,0.4229736-1.5530396,0.93573-2.4130859,1.4446411  C38.9400558,45.427002,38.0696945,44.9143066,37.2590866,44.4450684z M43.4192429,49.0202637  c0.272644,0.2038574,0.5224609,0.4136353,0.7515869,0.6287842h-3.1051025v0.0013428h-1.303772  c0.8964844-0.5263062,1.7028809-1.0043945,2.4488525-1.4660645C42.6661911,48.4874878,43.075676,48.7694702,43.4192429,49.0202637z   M34.4380417,52.84552h4.1881714c-0.0227661,0.0297852-0.0531006,0.0518188-0.0731812,0.0836792  c-0.0139771,0.0222168-0.031311,0.0421143-0.0435181,0.0652466c-0.0664673,0.1260986-0.1054688,0.2649536-0.1054688,0.4008179  c0,0.2030029,0.0792847,0.3551025,0.1975098,0.491272h-5.8827515C33.303215,53.5320435,33.8871384,53.1785278,34.4380417,52.84552z   M28.8431931,56.2644653c0.0900269-0.057312,0.201355-0.1272583,0.3195801-0.2012329h6.128418l-0.5402832,0.5669556  l0.5113525,0.4730835h-7.5141602C28.0648117,56.817627,28.4175949,56.5356445,28.8431931,56.2644653z M26.1776047,69.9577637  c0.0726318-0.3130493,0.1820068-0.6363525,0.3341064-0.9661255c0.1516113,0.3297119,0.3273315,0.6536865,0.5491333,0.9661255  H26.1776047z M26.8699265,63.4597168l-0.0170898-0.0175781c-0.050293-0.0413818-0.5753174-0.4937744-0.9660645-1.4396362  c-0.0628052-0.4138184-0.0847168-0.9321899-0.0150146-1.5005493h1.3239136  c0.2108765,0.2467041,0.4299316,0.4812012,0.6584473,0.6914673c0.0361938,0.0330811,0.0720825,0.0668945,0.1085205,0.0990601  c0.1958008,0.1739502,0.394104,0.3382568,0.5913696,0.4855957c0.250061,0.1824341,0.5407104,0.3840332,0.848999,0.593811  c-0.8307495,0.5456543-1.5639038,1.0546265-2.0646973,1.458252C27.0402145,63.5999756,26.8749924,63.4642334,26.8699265,63.4597168z   M32.3699265,60.5027466c-0.8030396,0.4916382-1.6408081,1.0122681-2.4205933,1.5143433  c-0.3839111-0.2580566-0.7393188-0.5029297-1.0388794-0.7214355c-0.3407593-0.2546387-0.6358643-0.5211792-0.9076538-0.7937012  h2.5952148l-0.0010376,0.0007935H32.3699265z M30.5745163,67.4894409h-3.0258179  c0.3989868-0.4242554,0.8858643-0.8424683,1.5097046-1.2399292c0.0921631-0.0587158,0.2055054-0.1299438,0.3272095-0.2060547  c0.6619263,0.4473267,1.4004517,0.9315186,2.2136841,1.4445801h-1.0247803V67.4894409z M33.577507,68.704834h-2.8423462  l0.5427856-0.5674438l-0.5137939-0.4735718h1.1132202h1.1346436h2.6591797c0.2822266,0,0.5107422,0.2333984,0.5107422,0.5205078  s-0.2285156,0.5205078-0.5107422,0.5205078h-0.9152832H33.577507z M36.0442429,66.4313965l0.0009766,0.0009766  c2.1103516,1.1884766,4.0566406,2.3720703,5.7988281,3.5253906h-4.9130859l-0.6669922-0.3857422  c-0.4180298-0.2355347-0.8197021-0.4656982-1.2087402-0.6914062h0.6159668c0.3779297,0,0.6865234-0.3125,0.6865234-0.6962891  s-0.3085938-0.6962891-0.6865234-0.6962891h-2.942749c-1.086731-0.6706543-2.0025024-1.2678833-2.78125-1.793335  c0.6497803-0.4011841,1.4934692-0.9161377,2.3790283-1.4542847C33.4362106,64.9180908,34.6814499,65.6531372,36.0442429,66.4313965z   M32.6577682,60.3269653h-1.5765991c0.128418-0.1673584,0.1955566-0.3772583,0.1981812-0.5200806  c0.0025024-0.1386108-0.0227661-0.3413696-0.1697998-0.5199585h3.2661133  C33.8597336,59.5975952,33.2734909,59.951355,32.6577682,60.3269653z M36.2034836,58.1694336v0.0003052  c-0.1948853,0.1334839-0.7648315,0.4771729-1.5358276,0.9414062h-4.0897217l0.0009766,0.0006714h-3.6343994  c-0.125061-0.2311401-0.2362671-0.4656982-0.3219604-0.7063599c0.2380981-0.37677,0.543335-0.7550049,0.9259644-1.1264038h7.9302979  v-0.0009155h2.2525635C37.0125046,57.6987305,36.4442062,58.02948,36.2034836,58.1694336z M40.0947189,55.8880005h-2.315918  h-2.2267456v-0.0005493h-6.1068115c0.7460327-0.4631348,1.8446045-1.1334229,2.9838867-1.8251343h6.7078857l-0.0014648-0.0009766  h3.9862671C42.3871994,54.5218506,41.2566452,55.2001343,40.0947189,55.8880005z M44.8688889,52.6712036h-5.755249  l0.0018921-0.0014648h-4.3866577c1.4356689-0.8673706,2.5527954-1.5392456,2.5527344-1.5392456  c0.0510864-0.03125,0.0984497-0.059021,0.149231-0.0899658h1.2993164h2.2623291v0.0010986h4.30896  c0.1252441,0.2119141,0.2386475,0.4267578,0.3295288,0.6470947C45.4327316,52.0164795,45.1745529,52.34552,44.8688889,52.6712036z   M46.0232468,50.8658447h-0.1466064h-0.6871948h-3.9627686l0.5428467-0.5675049l-0.5137939-0.4735107h3.0812378h0.80896h1.1543579  C46.2495041,50.1578369,46.1611252,50.5062256,46.0232468,50.8658447z M46.3328781,49.6490479h-1.3302002  c-0.3885498-0.4290161-0.8109131-0.8005371-1.2269897-1.1112061c-0.3057861-0.2232666-0.6495972-0.4603882-1.0078125-0.7022095  c0.7836914-0.5014038,1.4794312-0.9842529,2.0633545-1.4747925c0.4122314,0.3141479,0.6222534,0.4890747,0.6280518,0.4943848  l0.0164185,0.015564c0.005249,0.0050049,0.0092773,0.0093384,0.0179443,0.0180054  c0.093811,0.0839233,0.5494995,0.5353394,0.8459473,1.5743408C46.3756638,48.8123169,46.3842087,49.2141724,46.3328781,49.6490479z"></path></svg>