<svg fill="#24F40B" xmlns="http://www.w3.org/2000/svg" xmlns:xlink="http://www.w3.org/1999/xlink" version="1.1" x="0px" y="0px" viewBox="0 0 100 100" enable-background="new 0 0 100 100" xml:space="preserve"><g><circle cx="49.999" cy="50.001" r="20.167"></circle><path d="M90.752,47.252h-14.17c-1.519,0-2.749,1.23-2.749,2.747c0,1.519,1.23,2.749,2.749,2.749h14.17   c1.519,0,2.749-1.23,2.749-2.749C93.501,48.482,92.271,47.252,90.752,47.252z"></path><path d="M70.64,38.085c0.759,1.313,2.44,1.765,3.754,1.005l4.946-2.856c1.315-0.759,1.766-2.44,1.007-3.754   c-0.76-1.315-2.441-1.765-3.754-1.007l-4.946,2.856C70.331,35.088,69.881,36.768,70.64,38.085z"></path><path d="M61.916,29.36c1.316,0.758,2.996,0.308,3.756-1.007l7.084-12.271c0.759-1.316,0.31-2.996-1.005-3.756   c-1.315-0.758-2.996-0.308-3.756,1.007l-7.084,12.271C60.152,26.921,60.603,28.601,61.916,29.36z"></path><path d="M50.001,26.168c1.517,0,2.747-1.232,2.747-2.751v-5.71c0-1.517-1.23-2.749-2.747-2.749c-1.519,0-2.749,1.232-2.749,2.749   v5.712C47.252,24.936,48.482,26.166,50.001,26.168z"></path><path d="M34.328,28.353c0.759,1.315,2.441,1.765,3.754,1.007c1.315-0.761,1.766-2.44,1.007-3.756l-7.086-12.271   c-0.759-1.315-2.44-1.766-3.754-1.007c-1.315,0.76-1.766,2.44-1.007,3.756L34.328,28.353z"></path><path d="M20.659,36.234l4.946,2.854c1.315,0.761,2.995,0.31,3.754-1.005c0.759-1.313,0.308-2.995-1.007-3.754l-4.946-2.856   c-1.315-0.759-2.995-0.308-3.754,1.007C18.893,33.794,19.345,35.474,20.659,36.234z"></path><path d="M26.165,50c0-1.519-1.229-2.747-2.747-2.749L9.246,47.252c-1.519,0-2.749,1.23-2.747,2.747   c0,1.519,1.229,2.749,2.747,2.749h14.171C24.937,52.749,26.165,51.517,26.165,50z"></path><path d="M29.36,61.915c-0.759-1.313-2.44-1.763-3.756-1.004l-4.945,2.856c-1.315,0.758-1.766,2.438-1.007,3.753   c0.759,1.316,2.44,1.765,3.754,1.007l4.946-2.856C29.668,64.912,30.117,63.231,29.36,61.915z"></path><path d="M38.082,70.641c-1.315-0.758-2.995-0.31-3.754,1.005l-7.086,12.273c-0.759,1.315-0.308,2.996,1.007,3.754   c1.315,0.759,2.995,0.31,3.754-1.005l7.086-12.271C39.848,73.081,39.397,71.401,38.082,70.641z"></path><path d="M49.999,73.832c-1.517,0-2.747,1.233-2.747,2.751v5.712c0,1.517,1.229,2.747,2.747,2.747c1.519,0,2.749-1.23,2.749-2.747   v-5.712C52.748,75.064,51.518,73.835,49.999,73.832z"></path><path d="M65.672,71.648c-0.76-1.316-2.441-1.765-3.756-1.007c-1.315,0.761-1.765,2.44-1.005,3.756l7.084,12.271   c0.759,1.315,2.441,1.765,3.754,1.005c1.316-0.759,1.766-2.44,1.007-3.754L65.672,71.648z"></path><path d="M79.341,63.768l-4.946-2.856c-1.315-0.759-2.995-0.308-3.756,1.005c-0.758,1.315-0.306,2.995,1.008,3.756l4.946,2.854   c1.313,0.759,2.995,0.31,3.754-1.005C81.107,66.206,80.655,64.527,79.341,63.768z"></path></g></svg>