<svg fill="#1A1A1A" xmlns="http://www.w3.org/2000/svg" xmlns:xlink="http://www.w3.org/1999/xlink" version="1.1" x="0px" y="0px" viewBox="0 0 100 100" enable-background="new 0 0 100 100" xml:space="preserve"><g transform="translate(0.000000,1262.000000) scale(0.100000,-0.100000)"><path d="M500.4,12585.2c-20.6-1.9-35.9-7.6-41.5-15.6c-1.6-2.2-2.1-4.2-2.4-7.3c-0.6-8.2,3.8-13.8,14.8-18.9c4.7-2.1,5.8-3,6.5-5   c1-2.8,6.7-29.7,6.4-30.1c-0.1-0.1-5-0.5-10.9-0.9c-28.3-2-57.8-7.3-84.4-15.5c-5.1-1.6-7.3-1.9-7.5-1.3   c-0.7,1.9-5.5,26.3-5.9,30.2l-0.5,4.2l4.8,5c3,3,5.8,6.7,7.2,9.7c2,4.2,2.3,5.3,2,9.2c-0.4,6.1-2.9,9.6-8.5,12.5   c-4.1,2-4.7,2.1-14.3,2.1c-8.4-0.1-11.1-0.4-17.2-2.1c-38.6-10.6-68-34.4-62.7-50.6c1.4-4.2,3.4-6.6,7.3-8.7   c4.1-2.2,12.3-3.7,17.1-3l3.3,0.4l3.7-4.5c2.1-2.5,6.7-8.9,10.5-14.2l6.8-9.7l-7.9-4.1c-22.6-11.6-44.3-25.8-64-42   c-4-3.3-8.2-6.7-9.3-7.6l-2.1-1.7l-5.1,8c-2.9,4.4-6.7,10.7-8.7,14l-3.5,6.1l2.8,6.5c9.1,21.4-1.7,35-22.3,27.8   c-22.3-7.8-51.3-36.9-59.2-59.3c-3.5-10.2-1.8-19.1,4.7-23.1c5.8-3.6,12.2-3.6,22.1,0.4l4.8,1.9l5.3-3.2c4.1-2.4,22-14.1,23.4-15.2   c0.1-0.1-2.1-3-5-6.4c-14.9-17.9-30.2-41-42.6-64.5l-5-9.5l-2.1,1.1c-4.2,2.2-23.4,13.9-26.7,16.4l-3.3,2.4l-0.9,7.2   c-1,8.5-3.5,14.3-7.8,17.7c-2.6,2-3.4,2.2-8.1,2.2c-6.8,0-9.8-1.4-16.1-7.8c-18.9-18.7-33.1-64.4-26.6-85.3   c3.1-10.1,11.1-14.6,20-11.4c4.7,1.6,9.5,5.3,13.6,10.5l3.8,4.8l5.5-0.4c5.6-0.4,29.8-3.4,30.2-3.7c0.1-0.1-0.5-2.1-1.3-4.5   c-7-20.2-14.4-58.1-15.9-81.1c-0.7-10.3-1-11.9-2.4-11.9c-1.6,0-22.2,4.7-27.6,6.2c-3.9,1.2-4.2,1.4-5.1,4.4   c-3.6,12.3-11.5,20.5-19.6,20.5c-4.6,0-7.8-1.5-11.5-5.3c-17.2-17.7-17.5-80.4-0.7-99.6c5.4-6.2,13.2-7.6,19.7-3.6   c4.1,2.6,8.5,8.5,10.6,14.5l1.6,4.2l5.7,1.6c6.4,1.8,28.9,6.3,29.2,5.9c0.1-0.1,0.9-6.2,1.8-13.4c2.7-21.4,7.7-44.2,14.8-67.2   c1-3.4,1.2-4.7,0.6-5c-1.3-0.4-23.4-3.1-30.2-3.7l-5.5-0.4l-2.1,3c-7.4,10.7-18.7,15.7-26.5,11.9c-7-3.4-10.2-10.8-10.1-24.2   c0-24.2,14.5-60.3,29.6-73.9c6.7-6,14.9-8,20.6-5c5.8,3,8.7,8.5,10,19.1l0.8,7l4.4,3.2c5.2,3.6,28.5,17.7,28.8,17.3   c0.1-0.1,2.4-4.4,5-9.5c11.2-21.4,25.3-42.6,41.8-62.8l6.1-7.6l-11.6-7.8c-6.4-4.2-13.4-8.6-15.4-9.6l-3.7-1.9l-4.8,1.9   c-6.6,2.7-12.9,3.7-16.7,2.6c-13-3.6-15.1-17.5-5.2-35.2c10.9-19.6,35.6-42.3,53.3-49c21.4-8.1,33.1,5.3,23.7,27.3l-2.8,6.5   l3.5,6.1c2.9,5,14,22.5,14.8,23.4c0.1,0.1,4.5-3.2,9.8-7.4c21.4-17.4,44.1-32.2,66.3-43.3c3.9-2,7.2-3.9,7.2-4.2   c0-1.2-14.6-21.7-19.2-26.9l-2.4-2.7l-6.8-0.1c-8.5-0.2-13.5-1.9-17.4-5.6c-7.4-7.3-5.5-17.7,5.4-28.6   c21.5-21.5,67.4-36.8,84.9-28.2c5.6,2.7,8.1,6.3,8.5,12.4c0.3,3.9,0,5-2.1,9.3c-1.6,3.1-4.1,6.7-7.1,9.6c-2.6,2.6-4.7,5.3-4.7,6.1   c0,2.9,6.3,35.4,7,36.3c0.1,0.1,4.1-1,8.9-2.4c26.8-7.9,52.8-12.7,80.7-14.7c11.2-0.8,12.7-1,12.7-2.2c0-1.9-5-25.7-6.3-30.1   c-1.1-3.9-1.2-3.9-7.2-6.7c-7.3-3.4-10.9-6.4-13.1-11c-2.3-4.7-1.8-10.8,1-15c10.6-15.4,57.4-21.1,88.4-10.8   c6.7,2.2,10.7,4.6,14.5,8.2c3.5,3.5,4.8,6.6,4.8,11.1c0,8.4-6.9,15.2-19.6,19.5c-3.4,1.1-3.8,1.5-5,4.9c-1.1,3.3-5.8,23.5-6.9,30.1   c-0.6,3.3-1.5,2.9,12.2,4.7c20.7,2.7,45.2,8.5,66.4,15.6c6.7,2.2,12.3,3.9,12.4,3.8c0.7-0.6,7-28.4,7.4-32.5   c0.5-4.4,0.5-4.4-2.5-7.5c-6.9-7.1-10-15-8.3-21.3c1.3-4.7,5.8-9.1,11-10.7c19.3-5.7,61.2,9.6,81.5,30c11,11,13.2,21.5,5.9,28.8   c-4.2,4.2-9,5.6-19.1,5.6c-8.1,0-8.3,0-10.6,2.2c-3.9,3.7-20.2,25.7-19.5,26.3c0.4,0.3,4,2.5,8.1,4.8c23,13.3,44.2,28.5,63.1,45.6   c6.4,5.7,7.8,6.7,8.7,5.9c1.8-1.9,17.2-25.5,19.9-30.4l2.7-4.9l-1.8-4.2c-5.5-12.1-3.4-23.4,5.1-27.3c11.7-5.3,31.9,4.2,52.2,24.5   c18.4,18.5,28.8,38.1,26,49.4c-3,11.9-16.1,15-31.4,7.2c-3.1-1.6-3.9-1.7-5.5-1c-3,1.3-12.9,7.5-24.7,15.1l-10.8,7.1l7.9,10.5   c13.3,17.6,23.6,34,33.9,53.7c5.3,10.1,5.6,10.5,7.1,9.7c4.9-2.6,24.5-14.6,28.3-17.3l4.5-3.2l0.4-6.2c0.4-7.9,2.7-13.8,6.4-17.1   c14.3-13,35.1,6.2,47.8,44.1c8.3,24.8,8.2,45.2-0.1,53.4c-3.4,3.3-5.8,4.3-10.4,4.3c-6.4-0.1-13.5-4.5-19.1-11.9l-2.9-3.8l-7.8,0.4   c-7.5,0.4-29.6,3.3-30.2,3.9c-0.1,0.1,0.7,3.7,2,7.9c5.8,19.1,10.4,41.2,12.9,61c0.9,7.3,1.7,13.5,1.8,13.6   c0.4,0.6,31.7-6.5,35.9-8.2c1.5-0.6,2.3-1.8,3.3-4.7c4.1-12.4,11.5-19.8,20-19.7c7.8,0.1,15.9,9.5,19.7,23   c3,10.7,3.8,17.2,3.8,32.6c0,15.3-0.7,21.7-3.8,32.6c-3.8,13.7-12.1,23-20.5,23c-6.1,0-12.8-5.4-16.6-13.7c-1.3-2.9-2.7-5.7-3-6.3   c-0.7-1.6-7.2-3.3-23.5-6.6c-9.5-1.9-14-2.5-14.3-2c-0.3,0.4-0.6,2.6-0.6,4.7c-0.1,17-6.2,53.4-13.4,78.7   c-1.6,5.8-2.8,10.7-2.7,10.9c0.6,0.7,21.3,3.3,29,3.7l8.1,0.4l2.8-3.7c7.3-9.8,17.5-14.2,25.1-11c3.4,1.5,7.5,6.4,9.1,11   c1.9,5.4,1.9,20.7,0,29.5c-7.3,34.2-25,62.1-40.7,64.3c-9.9,1.4-17.1-7-18-21.1l-0.4-6.2l-4.5-3.2c-4.3-3.1-28-17.5-28.8-17.5   c-0.1,0-2.5,4.4-5.3,9.7c-10,19.6-21.8,38.8-34.8,55.8c-3.9,5.2-7.1,9.6-7,9.7c1,1,26.8,17.3,30.6,19.4l4.7,2.6l6.4-2.8   c15-6.4,26.3-3.3,29.1,8.1c2.8,11.3-7.2,30.5-25.2,48.7c-17,17.1-33.1,26.7-45.1,26.7c-8.4,0-13.6-3.8-15.6-11.3   c-1.2-4.4-0.1-11.2,2.6-17.3l1.9-4.2l-2.7-4.8c-2-3.6-17.7-27.9-19.2-29.7c-0.1-0.1-3.3,2.5-7.1,5.9   c-20.4,18.5-47.1,37.7-68.4,49.2c-2.1,1.1-3.9,2.3-3.9,2.6c0,0.7,14.3,19.6,17.6,23.4l2.7,3h8.5c10.4,0.1,15.1,1.4,19.3,5.6   c7.3,7.3,5.1,17.8-5.9,28.8c-20.4,20.4-62.1,35.7-81.5,29.9c-5.2-1.6-9.8-6-11-10.7c-1.7-6.2,1.4-14.2,8.3-21.3   c3-3.1,3-3.1,2.5-7.4c-0.4-3.6-6.2-29.9-6.7-30.5c-0.1-0.1-3.4,1-7.5,2.5c-20,7.3-52.1,15-74.3,17.9l-10.1,1.3l2.1,9.7   c2.4,11.6,5,21.7,5.8,23.4c0.4,0.7,2.1,1.6,3.8,2.2c12.1,3.6,19.8,11.3,19.8,19.6c0,8.8-6.6,15.2-20.5,19.7   C534.2,12584.6,514.9,12586.5,500.4,12585.2z M521.5,12568.9c13.2-1.2,27.1-5.1,27.9-7.9c0.3-0.9-6.6-4.2-11.5-5.5   c-1.8-0.4-4-1.3-4.8-1.9c-4.7-3-26.9-3.9-38.2-1.5c-3.4,0.7-7.4,1.9-8.8,2.7c-1.5,0.7-3,1.4-3.3,1.4c-1.6,0-9.3,4-9.1,4.7   c1.2,3.6,20.3,8.1,36,8.5C511.5,12569.5,516.9,12569.2,521.5,12568.9z M371.8,12545.4c-2-3.2-13.6-14.2-17.7-16.9   c-5.9-3.9-14-7.7-21.3-10.1c-9.8-3.3-30.1-4.6-30.1-2c0,1.5,8.9,9.6,15.1,13.6c15.8,10.3,35.3,17.2,49.2,17.3l6.1,0.1   L371.8,12545.4z M507.5,12541c4.7-0.2,10.9-0.1,13.9,0.2c4.7,0.6,5.3,0.6,5-0.4c-1.2-3.9-3.1-12.2-5.3-21.9l-2.4-11.1l-8.8,0.3   c-4.8,0.1-8.9,0.3-8.9,0.4c0,0-1.5,6.8-3.1,15c-1.7,8.2-3.4,15.9-3.8,17c-0.7,2-0.7,2,2,1.5   C497.7,12541.6,502.8,12541.2,507.5,12541z M655.2,12538c11.2-2.3,26.1-8.7,37.9-16.4c6.1-4,15.5-12.6,15.5-14.2   c0-1.4-3.4-1.7-10.1-1c-3.5,0.4-7.7,0.8-9.1,0.8c-7.6,0.1-24.8,7.4-34.6,14.8c-4,3-15.7,15.3-15.7,16.5   C639.1,12539.6,649,12539.3,655.2,12538z M359.6,12517.9c0-1.1,1.4-8.7,3-16.9c1.7-8.2,3.1-15.3,3.2-15.9c0-0.6-2.9-2.2-7.7-4.2   c-4.3-1.8-7.8-3.3-7.8-3.3c-0.1,0-4,5.4-8.7,12.1c-4.7,6.6-9.5,13.2-10.6,14.6l-2.1,2.5l7.1,2.3c7.3,2.4,16.6,6.5,20.4,9.1   C359.2,12520.3,359.6,12520.3,359.6,12517.9z M653.4,12511.1c4.4-3,14-7.7,20.6-10.1l5.7-2l-6.1-7.5c-3.3-4.2-8.1-10.5-10.7-14.1   c-2.6-3.6-5-6.4-5.3-6.3c-0.7,0.3-15.1,6.7-15.4,6.9c-0.1,0.1,1.2,5.6,2.8,12.3c1.6,6.7,3.3,14.6,3.8,17.6c0.4,2.9,1,5.3,1.2,5.3   S651.7,12512.3,653.4,12511.1z M534.1,12473.7c36.8-4.5,67.8-13,100.6-27.7c94.9-42.3,165.1-126.8,190-228.2   c6.4-26.2,8.8-45.1,9.4-73.8c0.7-38.2-2.9-66.5-12.7-100.7c-14.3-49.4-39.1-94.4-73.6-133.1c-41.7-46.9-99.6-82.8-161.1-99.7   c-77.3-21.4-158.5-14.8-231.6,18.9c-50.8,23.4-96.4,60.6-129.7,105.6c-36.8,49.7-59.2,108.8-65.1,171c-1.4,14.8-1.6,44.3-0.4,58.6   c6.8,80.1,41.3,155,97.6,211.7c56.6,56.9,131.3,91.6,212.2,98.5C481.9,12475.7,522.3,12475.1,534.1,12473.7z M224.3,12462   c0-0.9-1.3-4.3-2.9-7.6c-1.6-3.3-3.5-7.4-4.4-9.3c-2.1-4.6-10.2-14.6-15.8-19.5c-5.5-4.9-14.3-10.8-16.8-11.4   c-1-0.2-3.3-1.2-5.2-2.1c-1.8-1-4.6-2-6.1-2.4c-2.5-0.7-2.8-0.6-2.8,0.7c0,0.7,0.8,3.3,1.8,5.6c7.3,16.6,30.2,39.3,46.2,46   C223.4,12464,224.3,12464,224.3,12462z M794,12454.3c15.1-7.3,34.5-26.4,42.4-41.9c1.6-3,3-6.5,3.3-7.6c0.4-1.8,0.2-2.1-1.2-2.1   c-0.9,0-4.3,1.3-7.6,2.9c-3.3,1.6-7.8,3.7-10,4.7c-8.9,4.2-24.3,20.1-28.8,29.8c-3.2,6.8-5.8,13.2-6.4,15   C785.2,12457.7,787.6,12457.4,794,12454.3z M223.7,12429.6c1.1-1.9,5.2-8.5,9.1-14.6l7.1-11l-6.3-6.3l-6.3-6.2l-12.4,8.2   c-6.8,4.5-13.5,8.7-14.8,9.5l-2.3,1.3l4.5,3.5c4.7,3.6,18.3,17.4,18.3,18.6C220.6,12434.1,221.8,12433,223.7,12429.6z    M790.3,12425.1c1.5-2.1,6.4-7.3,11-11.7l8.4-8l-3.7-2.1c-3-1.6-18.3-11.5-30.5-19.5c-1.4-1-1.9-0.6-6.5,4.5l-5,5.5l9.5,14.3   c5.3,7.9,10.4,15.7,11.3,17.4c1,1.8,2,3.2,2.3,3.2C787.4,12428.7,788.8,12427.1,790.3,12425.1z M114.3,12325.5   c1.3-11.6,0.1-23.3-3.5-34c-2.6-7.6-7.7-17.6-10.4-20.3c-1.3-1.2-3.8-4.3-5.8-6.8c-4.1-5.3-6.4-7.3-7.5-6.2   c-1.1,1.1-0.7,14.5,0.7,21.1c2.7,13,9.1,29.2,15.6,39.5c3.1,4.7,8.3,10.5,9.5,10.5C113.6,12329.4,114.1,12327.9,114.3,12325.5z    M887.7,12322.1c13.2-14.8,24.8-50.1,21.6-66l-0.4-2.3l-2.1,1.5c-1.1,0.7-3.5,3.3-5.3,5.7s-4.2,5.3-5.5,6.6   c-5.2,5.2-11.8,21.4-14,33.8c-1.5,8.4-0.8,25.1,1,25.1C883.4,12326.4,885.5,12324.4,887.7,12322.1z M129.6,12300.3   c2.7-1.8,9.8-6.2,16-9.9l11.2-6.6l-1.1-2.7c-0.6-1.4-2-4.8-3-7.6c-1.3-3.1-2.4-5-3.1-5c-0.6,0-7.1,0.8-14.4,1.9   c-7.3,1-14.7,1.9-16.4,1.9c-5.3,0-5.6,0.4-3.6,4.4c2.4,4.8,6.8,17.5,7.9,23c0.4,2.4,1,4.4,1.3,4.2   C124.6,12303.8,126.9,12302.1,129.6,12300.3z M873.3,12295.6c1.5-6.5,4.6-15.6,7-20.5c1.2-2.4,2.1-4.5,2.1-4.9s-2.7-0.9-6.1-1.2   c-3.4-0.3-11.9-1.3-19-2.3c-7.1-1-13-1.8-13.1-1.6c-0.5,0.5-5.5,13.6-5.5,14.3c0,0.5,3.3,2.8,7.2,5.2c11.7,6.8,23.7,14.4,24.3,15.2   C871.2,12301.4,872.3,12299.8,873.3,12295.6z M75.2,12165.7c1-1.9,2.1-5,2.7-6.8c0.5-1.9,1.5-4.5,2.2-5.9   c4.3-8.4,3.8-37.7-0.7-46.6c-0.7-1.5-1.9-4.3-2.6-6.4c-0.7-2-1.8-4.7-2.6-5.9l-1.4-2.1l-2,3.9c-6.1,12.2-8,37.8-4.1,57   c1.7,8.5,4.8,16.4,6.4,16.4C73.3,12169.3,74.2,12167.7,75.2,12165.7z M927.4,12160.9c7.1-18.1,7-50.3-0.3-66.9   c-1-2.1-2.1-4-2.5-4.3c-1-0.7-3.2,3.6-5.2,10.2c-0.9,2.8-1.9,5.6-2.4,6.1c-1.4,1.7-2.8,12.4-2.9,21.5c0,9.9,1.6,20.8,3.6,24.8   c0.7,1.4,1.8,3.9,2.3,5.6c0.5,1.6,1.6,4.2,2.4,5.8C924.2,12167.1,925.2,12166.5,927.4,12160.9z M99.9,12144.1   c3.1-0.8,9.7-2.3,14.6-3.3c4.9-1,9.6-2.1,10.6-2.3c1.6-0.4,1.6-0.7,1.6-9.2v-8.8l-8.7-1.6c-7.9-1.5-22.5-4.7-25.4-5.6   c-1.1-0.3-1.1,0.1-0.5,3.2c0.9,4.3,1,24.1,0.3,27.6c-0.5,2.2-0.4,2.4,0.7,2.1C93.7,12145.8,96.8,12144.9,99.9,12144.1z    M905.1,12141.3c-0.4-2.4-0.6-9.9-0.4-16.6l0.2-12.4l-1.8,0.7c-2,0.7-15.5,3.9-28.2,6.6l-8,1.6v8c0,7.7,0.1,8.1,1.7,8.5   c0.9,0.2,7.6,1.6,14.9,3c7.3,1.4,15,3.1,17,3.6C906.1,12145.9,905.9,12146.1,905.1,12141.3z M909.7,12009.1   c0.1-10.4-4.3-28.1-10.3-41.1c-5.4-11.8-15.4-25.1-16.9-22.7c-1.3,2.1-1.5,18.1-0.4,24.6c2.1,12.4,9,28.9,14,33.7   c1.3,1.3,3.5,3.9,5.1,6.1c1.5,2.2,3.8,4.7,5.1,5.9l2.4,2l0.4-1.8C909.4,12014.8,909.6,12011.7,909.7,12009.1z M91.2,12010.9   c1.5-1.6,3.6-4.2,4.8-5.8c1.2-1.6,3.2-4,4.4-5.3c2.6-2.7,8.2-13.9,10.6-21.1c0.9-2.7,2.1-7.5,2.7-10.7c1.8-9.1,1.3-26.4-0.7-26.4   c-1.3,0-6.4,5.8-9.5,10.5c-9.7,15.3-16.7,37.2-16.9,52.6C86.5,12014.6,87,12015.3,91.2,12010.9z M857.2,12004.4   c7.1-1,15.8-2.1,19.2-2.4l6.4-0.4l-2.4-5c-2.6-5.5-6.7-17.7-7.4-22.3c-0.3-1.6-0.7-3.1-1-3.3c-0.3-0.1-3.3,1.5-6.7,3.8   c-3.4,2.2-11.1,7-17.1,10.5c-9.8,5.7-10.8,6.4-10.2,7.9c0.3,0.8,1.3,3.4,2.2,5.6c0.9,2.2,1.9,4.8,2.3,5.8c0.4,0.9,0.9,1.6,1.2,1.6   C844.1,12006.2,850.1,12005.4,857.2,12004.4z M157.7,11987.9c0-0.1-5.9-3.6-13.1-7.9c-7.2-4.3-14.8-9-16.9-10.4l-3.7-2.5l-2,7.9   c-1,4.4-3.3,11-5,14.9c-1.6,3.9-3.1,7.3-3.2,7.8c-0.1,0.4,2.9,1,6.5,1.3c3.7,0.4,12.1,1.3,18.9,2.3l12.2,1.6l3.2-7.4   C156.3,11991.4,157.7,11988,157.7,11987.9z M783.9,11881.9c6-3.9,14.3-9.2,18.4-11.7l7.5-4.6l-5.7-5c-5.8-5.2-11.8-11.6-14.9-15.8   c-0.9-1.3-1.8-2.4-2.1-2.4c-0.3,0-1.5,1.7-2.6,3.8c-1.2,2.1-6.3,9.9-11.3,17.4c-5.1,7.6-9.4,14.2-9.7,14.8c-0.2,0.7,1.5,3,4.3,5.9   c2.5,2.7,4.7,4.8,4.9,4.8S777.9,11885.8,783.9,11881.9z M234.1,11858.1c-3.6-5.6-7.9-12.4-9.5-15s-3-5-3.1-5.1   c-0.1-0.2-0.8,0.4-1.5,1.5c-2.2,3.3-13.8,14.8-18.1,18.1l-4.2,3.2l5.7,3.3c3.1,1.9,10.1,6.3,15.3,10l9.6,6.6l6.2-6.1l6.2-6.2   L234.1,11858.1z M839.9,11866.7c-1-3.9-6.5-13.9-10.1-18.8c-6.3-8.5-18.8-20.3-27.4-26.2c-7.1-4.7-15.4-8.5-16.4-7.4   c-1.1,1,6.2,17.5,10.4,23.3c7.2,10.1,20.3,21.9,26.5,24c1.4,0.4,5.1,2.2,8.2,3.8C837.6,11868.8,840.6,11869.2,839.9,11866.7z    M178.3,11859.3c2.6-1.2,5-2.1,5.5-2.1c1.6,0,10.7-6,16.3-10.8c6.4-5.5,14.5-15.3,16.9-20.4c0.9-1.9,2.9-6,4.4-9.3   c2.8-5.9,3.6-9.3,2.1-9.3c-1.4,0-8.1,3-11.9,5.3c-10.6,6.4-22.6,17.4-30.7,28.2c-5.5,7.4-10.6,16.9-10.6,19.8   C170.3,11862.8,171.2,11862.6,178.3,11859.3z M663.6,11792.7c3.4-4.7,8.4-11.3,11.1-14.6l4.9-6l-5.6-2c-6.7-2.4-16.2-7-20.7-10.2   c-1.8-1.3-3.3-2.1-3.4-1.9c-0.1,0.1-0.7,2.7-1.2,5.7c-0.5,3-2.4,11.3-4.1,18.5c-1.8,7.2-3,13.1-2.7,13.3c0.3,0.1,3.7,1.6,7.5,3.4   c3.8,1.8,7.2,3,7.5,2.7C657.2,11801.4,660.2,11797.3,663.6,11792.7z M366,11786.8c-0.2-1.5-1.8-9.2-3.4-17.1   c-1.7-7.9-3-15.3-3-16.5c0-1.2-0.1-2.1-0.3-2.1c-0.2,0-2.3,1.2-4.7,2.6c-5.1,3-14.7,7.1-21.3,9l-4.6,1.3l4.6,5.9   c2.5,3.3,7.6,10.4,11.3,15.8l6.8,9.7l7.5-3l7.5-3L366,11786.8z M519.6,11759.5c1.2-6,5.9-26.5,6.7-29.2c0.4-1-0.2-1-5-0.4   c-5.3,0.7-19.7,0.3-25.1-0.7l-2.8-0.5l1.1,3.6c0.6,2,2.2,9.6,3.7,17c1.4,7.3,2.8,14.1,3,15c0.4,1.6,0.7,1.6,8.8,1.6h8.4   L519.6,11759.5z M707.8,11764.6c0.9-0.6,0.7-1.1-0.9-3.3c-8.2-10.8-33.1-24.2-52.3-28.3c-5.8-1.2-15.5-1.5-15.5-0.4   c0,1.2,11.8,13.6,15.7,16.5c7.8,5.9,19.2,11.3,29.4,13.9c3.1,0.8,6.2,1.3,7,1c0.8-0.2,3.3-0.1,5.5,0.3   C702.2,11765.3,706.5,11765.4,707.8,11764.6z M328.4,11754c6.6-1.7,15.1-5.3,22.5-9.6c5.4-3,18.3-14.7,20.9-18.7l1.3-2.1h-5.8   c-10.8,0-22.8,3.5-37.6,10.8c-14.5,7.1-29.4,19.1-26.3,21.1C305.1,11756.7,322.2,11755.6,328.4,11754z M527.1,11719.2   c2.4-0.4,5.1-1.3,6-1.8c0.8-0.5,3-1.4,4.8-1.9c5-1.3,11.8-4.6,11.5-5.5c-0.4-1.4-6.7-4.1-13.2-5.6c-14.3-3.4-35.1-3.4-49.4,0   c-6.4,1.6-12.7,4.2-13.2,5.6c-0.2,0.7,7.5,4.7,9.1,4.7c0.4,0,1.8,0.6,3.3,1.4C493.6,11720.2,513.4,11721.7,527.1,11719.2z"></path><path d="M496.3,12454.4c-4.4-1.6-7.1-4-9.2-8.2c-4.5-9.3,0.3-20,10.4-22.7c15.5-4.2,26.8,14.6,15.8,26.5   C508.8,12454.8,502.1,12456.5,496.3,12454.4z"></path><path d="M428.5,12447.8c-12.2-4.4-14.3-21.2-3.6-28.5c9.6-6.5,22-1.7,25,9.7c1.8,6.8-2.4,15.2-9.3,18.3   C437.2,12448.9,432.1,12449.1,428.5,12447.8z"></path><path d="M561.8,12445.1c-10.6-5-12.4-18.8-3.5-26.8c8.9-8.1,23.5-3.3,26.2,8.7C587.3,12439.8,573.7,12450.6,561.8,12445.1z"></path><path d="M362.5,12425.3c-5.3-2.7-8.2-6.9-8.7-12.4c-0.8-10.2,6-17.9,15.8-17.9c17.1,0.1,22.8,22.8,7.7,30.3   C372,12427.9,367.7,12427.9,362.5,12425.3z"></path><path d="M627.8,12422.5c-11.6-3.1-15.5-19-6.7-27.3c4.9-4.6,12.9-5.7,18.9-2.6c4,2.1,7.8,7.5,8.4,11.9   C650,12415.9,639,12425.6,627.8,12422.5z"></path><path d="M305.2,12390.3c-5.8-2.7-9.2-8.2-9.2-14.9c0-4.7,1.3-7.9,4.5-11c3.3-3.3,6.6-4.6,11.5-4.6c7.2,0,13.5,4.7,15.5,11.7   C331.3,12384.6,317.6,12396.1,305.2,12390.3z"></path><path d="M514.4,12390.6c-4.4-1.9-6-6.9-3.7-11.5c2.1-4.1,8.4-5,12.2-1.9c4.5,3.8,3.5,11.1-1.8,13.3   C518,12391.9,517.4,12391.9,514.4,12390.6z"></path><path d="M472.9,12390.1c-2.9-0.9-5.3-4.4-5.3-7.9c0-3.6,4.1-7.6,7.7-7.6c5.3,0,8.6,3.1,8.6,8.3c0,3.2-1.8,5.6-4.9,7   C476.1,12391.1,476.2,12391.1,472.9,12390.1z"></path><path d="M681.3,12384.1c-3.9-1.9-7-6.1-8.2-11c-2.7-11,8.3-22,19.1-19.3c7.6,1.9,12.1,6.9,12.6,14.1c0.4,5.3-0.7,8.9-3.8,12.4   C696.3,12385.7,687.8,12387.4,681.3,12384.1z"></path><path d="M553.6,12379.1c-3.1-1.9-4.4-5.8-3.3-9.4c2.4-7.2,13.5-7.1,15.5,0.1C567.8,12377.1,559.8,12383.1,553.6,12379.1z"></path><path d="M430.9,12374.3c-2-2-2.5-3.1-2.5-5.5c0-6.1,6.1-9.9,11.5-7.3c7.7,3.6,5,15.3-3.5,15.3   C434,12376.8,432.9,12376.3,430.9,12374.3z"></path><path d="M467.9,12357.6c-3.3-1-7.8-5.1-9.3-8.5c-2.7-5.9-1.3-13.8,3.3-18.3c1-1.1,14.5-9,29.9-17.7c15.3-8.7,29.1-16.5,30.5-17.3   l2.5-1.6l-2.5-0.6c-1.4-0.4-11.1-1-21.4-1.3c-10.4-0.4-23.7-1-29.6-1.5c-26.6-1.8-41.6-10.3-45.6-25.9   c-3.3-13.3,4.3-27.4,21.8-40.4c2.7-1.9,13.5-8.7,24-15c23.4-14,26.5-16.1,32.2-21.5c3.5-3.2,4.3-4.3,3.5-4.7   c-0.6-0.4-11-1.6-23.2-2.9l-22.3-2.2l-5.4,5.4c-5.8,5.8-9.4,7.9-16.6,9.8c-21.2,5.5-42.5-11.4-42.5-33.7c0-9.5,3.3-17.3,10-24.2   c11.1-11.3,26.4-13.7,40.8-6.5c4.6,2.3,11.3,8.8,13.7,13.3c2,3.9-0.1,3.3,25.7,5.9c10.8,1,22,2.4,25.1,3   c10.4,2.2,17.3,5.7,22.9,11.9c4.9,5.3,7,10.8,7,18.1c-0.1,10.2-4.4,18.5-14.9,28.9c-7.7,7.6-14.2,12.1-37.9,26.3   c-18.4,11.1-25.8,16-28.3,18.8c-1.3,1.6-1.3,1.6,0.7,2c1.2,0.3,2.7,0.7,3.3,0.9c0.6,0.2,12.8,0.8,27,1.3   c33.8,1.3,42.6,2.7,54.1,8.2c14.9,7.2,20.9,21.3,14.6,34.7c-2.9,6.1-8.7,12.4-16,17.4c-3,2-19.2,11.4-36,20.9   c-28.7,16.2-30.9,17.3-34.8,17.6C472,12358.2,469.2,12357.9,467.9,12357.6z M439.1,12176.4c7.3-3.4,11-9,11-16.8   c0-7.3-3.8-13.5-10.4-16.8c-4-2-12.1-1.9-16.1,0.2c-14.7,7.9-12.6,29.5,3.3,34.4C430.6,12178.6,435.3,12178.2,439.1,12176.4z"></path><path d="M584.4,12351.2c-6.3-5.3-1.3-15.6,6.8-14.1c3.7,0.7,6.4,4.2,6.4,8c0,2.4-0.5,3.5-2.5,5.5   C591.9,12353.9,587.8,12354.1,584.4,12351.2z"></path><path d="M402.3,12345.7c-5.8-4.5-3.8-13.4,3.3-14.5c5-0.8,9.5,3.3,9.5,8.7c0,3.6-4.1,7.3-8,7.3   C405.3,12347.2,403.4,12346.6,402.3,12345.7z"></path><path d="M258.3,12343.6c-11-3.9-14.5-17.1-6.9-25.9c6.9-8.1,20.3-6.7,25.8,2.5C284.8,12333.3,272.5,12348.5,258.3,12343.6z"></path><path d="M728.9,12335.4c-15.5-7-10-30.7,7-30.7c13.1,0,20.5,14.2,13.1,25.2C744.7,12336.4,736.1,12338.7,728.9,12335.4z"></path><path d="M604.6,12314.7c-1.5-0.9-2.7-2.5-3.3-4.1c-2.4-7.2,5-13.3,11.8-9.7c2.7,1.4,3.7,3.2,3.7,7c0,2.5-0.4,3.6-2.5,5.6   C611.4,12316.5,608.3,12316.9,604.6,12314.7z"></path><path d="M386.2,12308.9c-3.6-1.3-5.9-6.2-4.9-10.3c1.8-7.4,12.8-7.3,15.2,0.1C398.6,12305,392.4,12311.2,386.2,12308.9z"></path><path d="M222.8,12287.1c-4-1-8.3-4.4-10.4-8.5c-5.4-10.5,1.1-22.4,12.6-23.2c10.1-0.7,17.7,6.3,17.7,16.5c0,6.3-5.2,13-11.4,14.9   C227.4,12288,226.5,12288,222.8,12287.1z"></path><path d="M764.8,12277.8c-6.5-2.8-11.2-10.9-10-17.2c2.5-13.6,18-18.8,27.4-9.4c5.3,5.3,6.1,13.5,2.1,20.2   C780.3,12277.8,771.5,12280.7,764.8,12277.8z"></path><path d="M618.7,12275.4c-2.7-1.2-4.7-4.4-4.7-7.9c0-3.9,2-6.6,5.5-7.8c5.6-1.9,11.8,4.3,10.1,9.9   C627.9,12274.3,622.7,12277.1,618.7,12275.4z"></path><path d="M371.5,12266.7c-4.2-3.5-3.7-10.2,1-13c8.7-5.3,16.9,7.1,9,13.6C379,12269.3,374.2,12269,371.5,12266.7z"></path><path d="M590,12249.6c-9.5-3.5-20.3-16.8-24.6-30.5c-1.6-4.8-1.8-6.7-1.5-12.4c0.6-11.6,5.7-23.6,14-32.7   c6.5-7.1,12.3-8.3,17.7-3.5c5.8,5.3,8.3,12.7,11.5,34.3c2.3,15.7,2.7,31,1,36C605.1,12249.4,598.3,12252.8,590,12249.6z"></path><path d="M631,12234.7c-2.9-0.9-4.7-2.2-5.6-4.1c-3.5-6.7,2.7-14,9.8-11.7c2.9,1,5.5,4.4,5.5,7.3   C640.6,12231.3,635.2,12236.1,631,12234.7z"></path><path d="M360.8,12226.3c-4.7-3.6-4-11.3,1.2-13.7c8.9-4.2,16,7.7,8.4,13.9C368.2,12228.4,363.2,12228.2,360.8,12226.3z"></path><path d="M200.2,12223.5c-3.6-0.9-6.7-2.8-9.1-5.6c-10.1-12.2,1.6-30.4,16.6-25.9c15.6,4.7,15.8,26.5,0.3,31.1   C203.7,12224.2,203.5,12224.2,200.2,12223.5z"></path><path d="M785.1,12212.7c-15.6-7.3-10-30.8,7.4-30.8c8.9,0,17.1,9.6,15.5,18.3C805.9,12211.6,795.2,12217.5,785.1,12212.7z"></path><path d="M640.9,12193.7c-6.7-2.7-6.7-12.2,0-15.5c1.6-0.8,2.7-0.8,4.9-0.1c3.8,1.1,5.8,3.9,5.8,7.8c0,3.7-1.6,6.2-4.9,7.6   C644,12194.6,643.1,12194.6,640.9,12193.7z"></path><path d="M350.9,12186.7c-5.2-2.2-6.7-8.9-2.9-12.9c2.6-2.7,5-3.3,8.3-2.3c3.5,1.2,5.5,4,5.5,7.7c0,3.7-1.6,6.2-4.9,7.6   C354,12188,353.9,12188,350.9,12186.7z"></path><path d="M190.8,12155.9c-3.6-1-8.7-5.5-10.3-9.1c-4.8-10.6,3-22.8,14.6-22.8c17,0,22.5,23,7.3,30.7   C199.4,12156.2,194.2,12156.7,190.8,12155.9z"></path><path d="M653.2,12155.8c-6.7-3.6-6.1-12.6,0.9-15.3c2.4-0.9,3-0.8,5.5,0.4c4,2,5.8,5.8,4.5,9.6   C662.5,12155,657,12157.8,653.2,12155.8z"></path><path d="M790.6,12151.3c-4-2.1-7.8-7.5-8.4-11.9c-1.3-8.2,4.2-16.2,12.5-18.4c9.3-2.5,19.7,5.9,19.7,15.9c0,5.9-4,12.2-9.2,14.6   C800.8,12153.6,794.7,12153.4,790.6,12151.3z"></path><path d="M335.5,12146.4c-2.7-1.7-4.4-5.7-3.6-9c1.4-6.5,11.2-8.1,14.6-2.2C350.8,12142.6,342.6,12150.9,335.5,12146.4z"></path><path d="M539.9,12139.5c-8.1-1.9-18.4-9.9-21.7-16.8c-0.8-1.7-1.8-3.1-2.1-3.1c-5.5-0.1-46.7-4.8-50.9-5.9   c-15.3-3.8-24.8-12.5-27.1-24.6c-1-5.8,0.1-12.2,3.4-19.1c2.2-4.6,4.1-7,10.9-13.7c9.4-9.4,14.6-13,39.3-27.8   c17.1-10.2,28.5-17.9,28.5-19.2c0-1.4-10.1-2.4-31.1-3c-12-0.4-25.1-1.1-29.1-1.6c-27.7-3-43-14-42.9-30.7   c0.1-9.6,5-17.9,15.2-25.7c6.4-4.9,66-38.9,70.9-40.4c6.7-2.1,15.3,1.6,18.4,8.1c3,6.3,1.5,15-3.4,19.2c-1.3,1-15.8,9.5-32.2,18.8   c-23.1,13-29.7,17.1-28.6,17.6c2.4,0.9,18.8,2,36.8,2.4c30.3,0.7,42.9,4,52.8,13.5c12.7,12.2,11.1,30-4.1,45   c-6.7,6.5-12.3,10.5-35.1,24.2c-11.6,7-23.4,14.6-26.3,16.8c-5.5,4.2-9.8,8.2-9.2,8.8c0.5,0.4,14.2,2.1,32.5,3.8l13.8,1.3l5.1-5.2   c8.1-8.2,15.5-11,27.1-10.5c5.7,0.2,7.6,0.7,11.8,2.7c9.7,4.5,16.1,11.9,19.1,21.8c2,6.6,1.7,15.9-0.7,22.2   c-5.2,13.4-18.1,22.2-32.5,22C545.1,12140.2,541.3,12139.9,539.9,12139.5z M558.2,12121.5c2.2-1.4,4.4-3.6,5.8-5.9   c2-3.3,2.2-4.3,2.2-9.7c0-5.4-0.2-6.4-2.2-9.7c-1.6-2.4-3.5-4.4-6.3-6c-3.5-2.2-4.7-2.4-9-2.4c-11.1,0-18.5,7.3-18.5,18.2   c-0.1,10.9,7.9,18.4,19.1,18C553.7,12123.7,555.2,12123.3,558.2,12121.5z"></path><path d="M663.4,12113.7c-4.4-4.4-1.9-12.7,4.3-13.9c5.8-1.1,10.9,4.4,9.2,10.2c-1.2,3.9-3.9,5.9-8,5.9   C666.2,12115.9,665.2,12115.5,663.4,12113.7z"></path><path d="M325.9,12106.3c-3.6-1.5-5.8-6.2-4.7-10.2c1.9-7.3,13.2-7.3,15.3,0.1C338.4,12103,332.2,12108.9,325.9,12106.3z"></path><path d="M380.5,12098c-4.4-2.2-12.1-10.7-14.9-16.4c-1.3-2.5-2.7-6.7-3.1-9.3c-1-5.7-0.2-9.6,3.8-19.9   c10.5-26.2,25.4-34.8,30.9-17.9c2.3,7,3.3,16.5,3.3,33.8c0.1,13.8-0.1,16.5-1.3,19.6C395.5,12098.2,388.5,12101.9,380.5,12098z"></path><path d="M198.1,12088.1c-10.3-2.7-15.1-13.6-10.2-23.2c5.2-10.1,18.9-11.6,26.5-2.9c6.7,7.6,4.1,20.3-5,24.7   C205,12088.9,202.4,12089.2,198.1,12088.1z"></path><path d="M784.8,12084.7c-7.6-3.2-11.8-11.9-9.6-19.9c1.3-5,6.6-9.9,11.8-11.1c17.2-3.9,27.2,19.1,12.7,29.2c-2.7,1.9-4,2.3-8.1,2.4   C788.8,12085.4,785.8,12085.1,784.8,12084.7z"></path><path d="M670.4,12073.7c-4.7-2-6.4-9.3-3-13c5-5.7,14.3-2,14.1,5.7C681.4,12071.6,675.2,12075.7,670.4,12073.7z"></path><path d="M322.6,12063.8c-1-0.5-2.4-2.2-3.3-3.8c-1.2-2.4-1.3-3.2-0.5-5.7c1-3.5,4.4-5.9,8.1-5.9s7.5,4,7.5,8.2   c0,2.5-0.4,3.6-2.5,5.6C329.2,12065,326,12065.5,322.6,12063.8z"></path><path d="M614.8,12060.6c-6-1.6-10.9-4.5-17.1-10.5c-7.5-7.1-10.6-12.8-10.7-19.5c0-6.9,3.3-13.4,10.3-20.5   c9.5-9.5,19.2-11.2,26.2-4.5c4.8,4.6,7.3,11.7,10.9,30.5c1.8,9.1,1.8,10.8,1.1,14.3c-1.1,5.1-5,9.2-9.8,10.4   C621.3,12062,619.7,12061.9,614.8,12060.6z"></path><path d="M665.1,12031.2c-7.2-4-4.3-15.3,3.9-15.3c5.9,0,9.9,7.1,7,12.5C674.4,12031.6,668.6,12033.1,665.1,12031.2z"></path><path d="M218.9,12023.7c-6.8-2.5-10.3-7-10.8-13.8c-0.4-5.3,0.7-8.9,3.8-12.4c9.8-11.1,27.9-4.2,27.9,10.8   C239.8,12019,228.6,12027.3,218.9,12023.7z"></path><path d="M328.8,12021.8c-6.5-4.1-3.6-14.9,3.9-14.9c5.2,0,8.4,3.2,8.4,8.5C341.1,12021.3,333.8,12025.1,328.8,12021.8z"></path><path d="M763.1,12020.7c-6.8-2.4-10.9-8.3-10.9-15.4c0.1-17.6,24-22.5,30.8-6.2c2.6,6.3,0.8,14.1-4.2,18.5   C774.1,12021.5,768.6,12022.6,763.1,12020.7z"></path><path d="M650.2,11989.9c-3.7-3.6-3.8-8.2-0.4-11.6c6.3-6.4,16.4,0.9,12.9,9.3C660.8,11992.4,653.8,11993.7,650.2,11989.9z"></path><path d="M345,11983.2c-3.6-1.5-5.4-6.7-3.5-10.7c2.9-5.9,11.7-6.5,14.3-0.7c1.7,3.6,1.1,7-1.6,9.7   C351.5,11984,348.6,11984.6,345,11983.2z"></path><path d="M254.3,11965.9c-7.4-2.7-11.2-8.6-10.7-16.3c0.9-14.6,17.9-20.5,27.8-9.8c5.2,5.6,5.5,13.9,1,20.4   C268.7,11965.3,260.1,11968,254.3,11965.9z"></path><path d="M725.2,11962.5c-3.6-1.6-7.3-5.7-8.5-9.3c-1.4-4.3-0.7-10.9,1.7-14.2c6.1-8.7,17.5-9.8,24.8-2.4   c10.3,10.3,3.3,27.4-11.1,27.4C730,11963.9,726.9,11963.3,725.2,11962.5z"></path><path d="M627.6,11954c-2-2-2.5-3.1-2.5-5.5c0-8.5,11.6-11.3,15.2-3.6c2.7,5.5-1.2,11.6-7.2,11.6   C630.7,11956.5,629.6,11956,627.6,11954z"></path><path d="M369.4,11948.7c-3.1-1.3-5-5.2-4.4-8.7c1.3-6.7,10.4-9,14.4-3.9c3.1,3.9,1.3,10.7-3.3,12.6   C373.1,11950.1,372.4,11950.1,369.4,11948.7z"></path><path d="M598.6,11926.1c-2.8-1.7-3.9-3.6-3.9-6.7c0-5,3.3-8.2,8.4-8.2c4,0,7.9,4,7.9,8.2c0,4-4.2,8.2-8.3,8.2   C601.7,11927.6,600,11926.9,598.6,11926.1z"></path><path d="M401.2,11921.2c-2.3-1.1-4.7-4.9-4.7-7.3c0-1.9,2-5.3,3.8-6.6c2.5-1.8,7.5-1.6,9.8,0.5   C417.3,11914,409.6,11925.4,401.2,11921.2z"></path><path d="M300,11916.7c-9.8-5.1-12.3-17-5.2-25.2c8.2-9.6,24.3-6.1,27.7,6.1c1.9,7-1.6,15.3-8.1,18.7   C310.6,11918.3,303.5,11918.6,300,11916.7z"></path><path d="M678.7,11915.3c-6.2-2.3-10.7-8.8-10.7-15.5c0-15,18.4-21.6,28.3-10c7.6,9,3.4,22.8-8,25.9   C684.4,11916.7,682.3,11916.6,678.7,11915.3z"></path><path d="M562.4,11905.8c-5.2-2.4-6.1-9.6-1.6-13.3c3.4-2.9,7.5-2.7,10.7,0.6c2.1,2.1,2.5,3.1,2.5,5.6   C574,11904.5,568,11908.3,562.4,11905.8z"></path><path d="M440.5,11903.1c-7.9-2.2-7.8-12.9,0.1-15.5c1.8-0.7,3-0.6,5,0.3C455,11891.7,450.3,11905.7,440.5,11903.1z"></path><path d="M522.3,11894.5c-3.6-1.9-5.6-6-4.4-9.5c1.2-3.6,3.9-5.6,7.8-5.6c3.9,0,6.7,2.1,7.8,5.9c1,3.3,0,6.2-3,8.3   C527.5,11895.6,525.1,11895.9,522.3,11894.5z"></path><path d="M480.4,11893.5c-2.7-1-4.7-4.4-4.7-7.6c0-2.4,0.5-3.5,2.6-5.6c2.4-2.4,2.9-2.6,6-2.2c4,0.4,6.7,2.7,7.4,6.2   C492.8,11890.8,486.5,11895.9,480.4,11893.5z"></path><path d="M356.5,11879.6c-6.9-3.6-10.1-11.1-8.1-18.7c1.9-7.2,10.9-12.8,18.4-11.5c7.9,1.3,13.9,9,13.2,17.1   c-0.7,8.5-7.9,15.2-16.1,15.2C361.6,11881.6,359.3,11881,356.5,11879.6z"></path><path d="M619.1,11878.1c-9.9-5.2-11.7-17.6-3.7-25.4c12.2-11.8,31.4,0.1,26.6,16.5C639.1,11878.6,628.2,11882.9,619.1,11878.1z"></path><path d="M420.4,11856.8c-6.4-3.3-10.2-11.2-8.4-17.9c4.7-17.4,30.5-15.9,31.7,1.9c0.4,5.3-0.7,9-3.8,12.5   C435.1,11858.8,427.3,11860.2,420.4,11856.8z"></path><path d="M556.3,11856.7c-1.4-0.6-3.8-2.4-5.4-3.9c-10.1-9.8-2.6-27.1,11.6-27c4.8,0,8.3,1.4,11.5,4.7c8.1,8,5.3,21.8-5.3,26.2   C565.2,11858.2,559.7,11858.2,556.3,11856.7z"></path><path d="M492,11850.4c-11.6-2-16.8-15.3-9.9-25.2c5.5-8.1,18.6-8.6,25.1-1.1c3,3.5,4.1,7.1,3.8,12.4   C510.3,11845.9,501.8,11852.1,492,11850.4z"></path></g></svg>