<svg fill="#1A1A1A" xmlns="http://www.w3.org/2000/svg" xmlns:xlink="http://www.w3.org/1999/xlink" version="1.1" x="0px" y="0px" viewBox="0 0 100 100" enable-background="new 0 0 100 100" xml:space="preserve"><g><path fill-rule="evenodd" clip-rule="evenodd" d="M95,50c0-8.925-2.68-17.584-7.539-24.903v8.621h-8.33   C81.886,38.649,83.387,44.25,83.387,50c0,6.559-1.891,12.85-5.409,18.231l-8.168-8.168v24.01H93.82l-7.503-7.503   C91.947,68.9,95,59.665,95,50z"></path><path fill-rule="evenodd" clip-rule="evenodd" d="M16.613,50c0-6.496,1.882-12.77,5.362-18.139l8.215,8.216v-24.01H6.18   l7.449,7.449C8.041,31.177,5,40.409,5,50c0,9.036,2.638,17.63,7.539,24.948v-8.386H21C18.142,61.579,16.613,55.918,16.613,50z"></path><path fill-rule="evenodd" clip-rule="evenodd" d="M66.422,79.081C61.475,81.889,55.863,83.387,50,83.387   c-6.525,0-12.785-1.872-18.146-5.354l8.083-8.083H15.926V93.96l7.583-7.582C31.163,91.971,40.367,95,50,95   c9.037,0,17.631-2.638,24.949-7.54h-8.527V79.081z"></path><path fill-rule="evenodd" clip-rule="evenodd" d="M33.578,20.943c4.967-2.804,10.624-4.331,16.422-4.331   c6.559,0,12.9,1.922,18.309,5.473l-8.246,8.245h24.012V6.319l-7.426,7.425C68.954,8.082,59.649,5,50,5   c-9,0-17.74,2.734-25.104,7.68h8.682V20.943z"></path></g></svg>