<?xml version="1.0" encoding="UTF-8" standalone="no"?>
<!-- Created with Inkscape (http://www.inkscape.org/) -->

<svg
   xmlns:dc="http://purl.org/dc/elements/1.1/"
   xmlns:cc="http://creativecommons.org/ns#"
   xmlns:rdf="http://www.w3.org/1999/02/22-rdf-syntax-ns#"
   xmlns:svg="http://www.w3.org/2000/svg"
   xmlns="http://www.w3.org/2000/svg"
   xmlns:sodipodi="http://sodipodi.sourceforge.net/DTD/sodipodi-0.dtd"
   xmlns:inkscape="http://www.inkscape.org/namespaces/inkscape"
   width="7in"
   height="5in"
   viewBox="0 0 177.8 127"
   version="1.1"
   id="svg8"
   inkscape:version="0.92.2 5c3e80d, 2017-08-06"
   sodipodi:docname="HIV-TAT-figure.svg">
  <defs
     id="defs2">
    <marker
       inkscape:stockid="Arrow1Mend"
       orient="auto"
       refY="0"
       refX="0"
       id="marker5196"
       style="overflow:visible"
       inkscape:isstock="true">
      <path
         id="path5194"
         d="M 0,0 5,-5 -12.5,0 5,5 Z"
         style="fill:#000000;fill-opacity:1;fill-rule:evenodd;stroke:#000000;stroke-width:1.00000003pt;stroke-opacity:1"
         transform="matrix(-0.4,0,0,-0.4,-4,0)"
         inkscape:connector-curvature="0" />
    </marker>
    <marker
       inkscape:isstock="true"
       style="overflow:visible"
       id="marker5076"
       refX="0"
       refY="0"
       orient="auto"
       inkscape:stockid="Arrow1Mend"
       inkscape:collect="always">
      <path
         transform="matrix(-0.4,0,0,-0.4,-4,0)"
         style="fill:#000000;fill-opacity:1;fill-rule:evenodd;stroke:#000000;stroke-width:1.00000003pt;stroke-opacity:1"
         d="M 0,0 5,-5 -12.5,0 5,5 Z"
         id="path5074"
         inkscape:connector-curvature="0" />
    </marker>
    <marker
       inkscape:stockid="Arrow1Mend"
       orient="auto"
       refY="0"
       refX="0"
       id="marker4534"
       style="overflow:visible"
       inkscape:isstock="true"
       inkscape:collect="always">
      <path
         id="path4532"
         d="M 0,0 5,-5 -12.5,0 5,5 Z"
         style="fill:#000000;fill-opacity:1;fill-rule:evenodd;stroke:#000000;stroke-width:1.00000003pt;stroke-opacity:1"
         transform="matrix(-0.4,0,0,-0.4,-4,0)"
         inkscape:connector-curvature="0" />
    </marker>
    <marker
       inkscape:isstock="true"
       style="overflow:visible"
       id="marker4432"
       refX="0"
       refY="0"
       orient="auto"
       inkscape:stockid="Arrow1Mend"
       inkscape:collect="always">
      <path
         transform="matrix(-0.4,0,0,-0.4,-4,0)"
         style="fill:#000000;fill-opacity:1;fill-rule:evenodd;stroke:#000000;stroke-width:1.00000003pt;stroke-opacity:1"
         d="M 0,0 5,-5 -12.5,0 5,5 Z"
         id="path4430"
         inkscape:connector-curvature="0" />
    </marker>
    <marker
       inkscape:stockid="Arrow1Mend"
       orient="auto"
       refY="0"
       refX="0"
       id="marker4104"
       style="overflow:visible"
       inkscape:isstock="true"
       inkscape:collect="always">
      <path
         id="path4102"
         d="M 0,0 5,-5 -12.5,0 5,5 Z"
         style="fill:#000000;fill-opacity:1;fill-rule:evenodd;stroke:#000000;stroke-width:1.00000003pt;stroke-opacity:1"
         transform="matrix(-0.4,0,0,-0.4,-4,0)"
         inkscape:connector-curvature="0" />
    </marker>
    <marker
       inkscape:stockid="Arrow2Mstart"
       orient="auto"
       refY="0"
       refX="0"
       id="Arrow2Mstart"
       style="overflow:visible"
       inkscape:isstock="true">
      <path
         id="path2349"
         style="fill:#000000;fill-opacity:1;fill-rule:evenodd;stroke:#000000;stroke-width:0.625;stroke-linejoin:round;stroke-opacity:1"
         d="M 8.7185878,4.0337352 -2.2072895,0.01601326 8.7185884,-4.0017078 c -1.7454984,2.3720609 -1.7354408,5.6174519 -6e-7,8.035443 z"
         transform="scale(0.6)"
         inkscape:connector-curvature="0" />
    </marker>
    <marker
       inkscape:isstock="true"
       style="overflow:visible"
       id="marker3304"
       refX="0"
       refY="0"
       orient="auto"
       inkscape:stockid="Arrow1Mend">
      <path
         transform="matrix(-0.4,0,0,-0.4,-4,0)"
         style="fill:#000000;fill-opacity:1;fill-rule:evenodd;stroke:#000000;stroke-width:1.00000003pt;stroke-opacity:1"
         d="M 0,0 5,-5 -12.5,0 5,5 Z"
         id="path3302"
         inkscape:connector-curvature="0" />
    </marker>
    <marker
       inkscape:stockid="Arrow1Mend"
       orient="auto"
       refY="0"
       refX="0"
       id="marker3232"
       style="overflow:visible"
       inkscape:isstock="true"
       inkscape:collect="always">
      <path
         id="path3230"
         d="M 0,0 5,-5 -12.5,0 5,5 Z"
         style="fill:#000000;fill-opacity:1;fill-rule:evenodd;stroke:#000000;stroke-width:1.00000003pt;stroke-opacity:1"
         transform="matrix(-0.4,0,0,-0.4,-4,0)"
         inkscape:connector-curvature="0" />
    </marker>
    <marker
       inkscape:isstock="true"
       style="overflow:visible"
       id="marker3166"
       refX="0"
       refY="0"
       orient="auto"
       inkscape:stockid="Arrow1Mend"
       inkscape:collect="always">
      <path
         transform="matrix(-0.4,0,0,-0.4,-4,0)"
         style="fill:#000000;fill-opacity:1;fill-rule:evenodd;stroke:#000000;stroke-width:1.00000003pt;stroke-opacity:1"
         d="M 0,0 5,-5 -12.5,0 5,5 Z"
         id="path3164"
         inkscape:connector-curvature="0" />
    </marker>
    <marker
       inkscape:isstock="true"
       style="overflow:visible"
       id="marker2952"
       refX="0"
       refY="0"
       orient="auto"
       inkscape:stockid="Arrow1Mend"
       inkscape:collect="always">
      <path
         transform="matrix(-0.4,0,0,-0.4,-4,0)"
         style="fill:#000000;fill-opacity:1;fill-rule:evenodd;stroke:#000000;stroke-width:1.00000003pt;stroke-opacity:1"
         d="M 0,0 5,-5 -12.5,0 5,5 Z"
         id="path2950"
         inkscape:connector-curvature="0" />
    </marker>
    <marker
       inkscape:stockid="Arrow1Mend"
       orient="auto"
       refY="0"
       refX="0"
       id="marker2867"
       style="overflow:visible"
       inkscape:isstock="true"
       inkscape:collect="always">
      <path
         id="path2865"
         d="M 0,0 5,-5 -12.5,0 5,5 Z"
         style="fill:#000000;fill-opacity:1;fill-rule:evenodd;stroke:#000000;stroke-width:1.00000003pt;stroke-opacity:1"
         transform="matrix(-0.4,0,0,-0.4,-4,0)"
         inkscape:connector-curvature="0" />
    </marker>
    <marker
       inkscape:isstock="true"
       style="overflow:visible"
       id="marker2703"
       refX="0"
       refY="0"
       orient="auto"
       inkscape:stockid="Arrow1Mend"
       inkscape:collect="always">
      <path
         transform="matrix(-0.4,0,0,-0.4,-4,0)"
         style="fill:#000000;fill-opacity:1;fill-rule:evenodd;stroke:#000000;stroke-width:1.00000003pt;stroke-opacity:1"
         d="M 0,0 5,-5 -12.5,0 5,5 Z"
         id="path2701"
         inkscape:connector-curvature="0" />
    </marker>
    <marker
       inkscape:stockid="Arrow1Lend"
       orient="auto"
       refY="0"
       refX="0"
       id="Arrow1Lend"
       style="overflow:visible"
       inkscape:isstock="true">
      <path
         id="path2328"
         d="M 0,0 5,-5 -12.5,0 5,5 Z"
         style="fill:#000000;fill-opacity:1;fill-rule:evenodd;stroke:#000000;stroke-width:1.00000003pt;stroke-opacity:1"
         transform="matrix(-0.8,0,0,-0.8,-10,0)"
         inkscape:connector-curvature="0" />
    </marker>
    <marker
       inkscape:stockid="Arrow1Mend"
       orient="auto"
       refY="0"
       refX="0"
       id="Arrow1Mend"
       style="overflow:visible"
       inkscape:isstock="true"
       inkscape:collect="always">
      <path
         id="path2334"
         d="M 0,0 5,-5 -12.5,0 5,5 Z"
         style="fill:#000000;fill-opacity:1;fill-rule:evenodd;stroke:#000000;stroke-width:1.00000003pt;stroke-opacity:1"
         transform="matrix(-0.4,0,0,-0.4,-4,0)"
         inkscape:connector-curvature="0" />
    </marker>
  </defs>
  <sodipodi:namedview
     id="base"
     pagecolor="#ffffff"
     bordercolor="#666666"
     borderopacity="1.0"
     inkscape:pageopacity="0.0"
     inkscape:pageshadow="2"
     inkscape:zoom="0.5"
     inkscape:cx="198.42785"
     inkscape:cy="196.74685"
     inkscape:document-units="mm"
     inkscape:current-layer="layer1"
     showgrid="true"
     units="in"
     inkscape:snap-bbox="true"
     inkscape:bbox-paths="false"
     inkscape:bbox-nodes="true"
     inkscape:window-width="1440"
     inkscape:window-height="855"
     inkscape:window-x="167"
     inkscape:window-y="184"
     inkscape:window-maximized="0">
    <inkscape:grid
       type="xygrid"
       id="grid815" />
  </sodipodi:namedview>
  <metadata
     id="metadata5">
    <rdf:RDF>
      <cc:Work
         rdf:about="">
        <dc:format>image/svg+xml</dc:format>
        <dc:type
           rdf:resource="http://purl.org/dc/dcmitype/StillImage" />
        <dc:title></dc:title>
      </cc:Work>
    </rdf:RDF>
  </metadata>
  <g
     inkscape:label="Layer 1"
     inkscape:groupmode="layer"
     id="layer1"
     transform="translate(0,-170)">
    <g
       style="fill:#1a1a1a"
       id="g876"
       transform="matrix(0,0.76292995,-0.76292995,0,71.926276,155.78189)">
      <path
         id="path865"
         d="m 47.390484,50.279541 c -0.279221,-2.740585 -1.575733,-3.855957 -1.575733,-3.855957 -0.115113,-0.118652 -0.298218,-0.277771 -0.530457,-0.465027 0.130554,-0.14209 0.263733,-0.287964 0.4021,-0.462036 0.24237,-0.304932 0.487427,-0.659424 0.703735,-1.070251 0.529358,-1.005555 0.836685,-1.737069 0.799339,-3.970143 0.03991,-2.258697 -1.563194,-3.993969 -1.563194,-3.993969 v -4.88e-4 c -0.0049,-0.0054 -0.01758,-0.01807 -0.01758,-0.01807 -0.822266,-0.847656 -4.80957,-3.587402 -9.452148,-6.203613 -1.309082,-0.747192 -2.51001,-1.454529 -3.583985,-2.10791 2.279358,-1.382935 4.646119,-2.806458 4.646057,-2.806458 3.473999,-2.125732 6.217347,-3.515502 7.898499,-5.052185 0.155029,-0.163635 0.322693,-0.351196 0.492065,-0.563049 0.259583,-0.324646 0.521729,-0.709595 0.750244,-1.156067 0.509034,-0.994751 0.841763,-2.103128 0.76891,-3.985473 -0.08667,-2.293518 -1.557728,-3.886475 -1.557728,-3.886475 -0.0059,-0.0059 -0.01074,-0.01221 -0.01758,-0.01807 0,0 -0.171814,-0.129151 -0.471436,-0.349121 1.111878,-1.2066045 2.713501,-3.5665288 1.153809,-7.556397 -2.44e-4,-5.493e-4 -4.27e-4,-0.00116 -6.71e-4,-0.00171 C 46.106316,2.4288329 45.96331,2.0930175 45.78997,1.7424316 H 45.7232 c 0.04211,0.1550903 0.100708,0.3831177 0.149658,0.6608276 -0.07233,-0.028809 -0.149536,-0.047974 -0.231567,-0.047974 h -6.394715 l 6.11e-4,-4.883e-4 H 32.522636 C 32.029961,2.0550536 31.554802,1.7627563 31.12188,1.4890136 l -0.07324,-0.046387 h -5.687988 l 0.893066,0.9799805 c 0.0054,0.00586 0.01123,0.011719 0.01709,0.017578 l 9.77e-4,9.766e-4 c 0.822754,0.8476562 4.810058,3.5874023 9.452148,6.2036133 1.211243,0.6913452 2.333924,1.3504028 3.346558,1.963195 -1.481262,0.873657 -2.861206,1.676697 -3.277222,1.918579 v 3.06e-4 c -0.775879,0.531494 -7.510681,4.399658 -9.191833,5.93634 -0.176941,0.186706 -0.370179,0.407776 -0.563721,0.657532 -0.110169,0.142089 -0.219421,0.295227 -0.326721,0.458801 -0.645813,0.98468 -1.202967,2.295471 -1.16515,4.229126 -0.0018,2.566346 1.782581,4.413269 1.782581,4.413269 0.06744,0.06952 0.159424,0.153625 0.268128,0.247497 -0.932862,1.024292 -2.052529,3.174866 -1.736902,5.736023 0.185474,2.502243 1.675317,3.997437 1.675317,3.997437 0.764161,0.787109 4.257813,3.205078 8.471192,5.642578 h -0.002 l 0.227539,0.129883 c 0.185547,0.106445 0.373047,0.21289 0.560547,0.320312 l 0.194336,0.110352 c 1.165405,0.664978 2.244689,1.298341 3.226135,1.890747 -1.460694,0.861328 -2.813111,1.64856 -3.224487,1.887695 v 2.44e-4 c -0.775879,0.531495 -7.510682,4.399659 -9.191834,5.936341 -0.179626,0.189575 -0.376099,0.414734 -0.572632,0.669311 -0.111999,0.145142 -0.223144,0.300903 -0.33197,0.468263 -0.567749,0.872619 -1.20841,2.019531 -1.297071,3.601745 -0.160943,2.505921 1.919691,5.031005 1.919691,5.031005 0.08819,0.09088 0.225097,0.210572 0.383056,0.342469 -0.136841,0.15216 -0.278747,0.319214 -0.423156,0.504089 -0.08716,0.111572 -0.173707,0.221436 -0.259705,0.346497 -0.664917,0.96698 -1.239258,2.347961 -1.062561,4.21997 -0.01404,0.331787 -0.02368,0.661866 0.002,0.9776 l 0.02246,0.275391 h 3.151367 l -0.423828,-0.495117 c -0.344543,-0.4021 -0.590759,-0.797669 -0.778686,-1.182678 h 1.113159 2.262695 v 0.001 h 3.37146 c 0.677307,0.403076 1.376465,0.81012 2.094361,1.214844 l 0.80371,0.461914 h 7.03125 l -0.80371,-0.547851 c -1.957032,-1.333008 -4.19629,-2.712891 -6.65625,-4.09961 v -9.75e-4 c -1.248353,-0.712098 -2.402588,-1.390137 -3.439209,-2.018677 2.262695,-1.372803 4.593994,-2.774781 4.593933,-2.774781 3.473999,-2.125732 6.217346,-3.515502 7.898498,-5.052185 0.160095,-0.168945 0.333679,-0.364502 0.508667,-0.584961 0.234619,-0.295532 0.471069,-0.638732 0.682068,-1.033447 0.545898,-1.021301 0.890877,-1.972214 0.804432,-4.165344 z M 44.719902,42.61206 h -2.788086 c 0.128296,-0.167297 0.195374,-0.377075 0.197998,-0.519897 6.1e-5,-0.003 -6.71e-4,-0.0071 -6.71e-4,-0.01013 1.22e-4,-0.0049 0.004,-0.01001 0.004,-0.01489 0,-0.01831 -0.0071,-0.03259 -0.0081,-0.05035 -0.0026,-0.04834 -0.0116,-0.09875 -0.0249,-0.153992 -0.0078,-0.0304 -0.01355,-0.06213 -0.02509,-0.09064 -0.02557,-0.06732 -0.06146,-0.13501 -0.115174,-0.200135 h 3.395508 c 0.0191,0.04254 0.04657,0.08307 0.06439,0.125916 -0.183899,0.304871 -0.423645,0.610657 -0.699829,0.914123 z M 30.73925,31.644287 h 0.398132 1.12323 3.38617 c 0.282227,0 0.510742,0.233887 0.510742,0.520996 0,0.28711 -0.228515,0.520508 -0.510742,0.520508 h -1.672974 -1.160522 -2.103027 l 0.543029,-0.567749 z m -0.189636,-0.174805 v 6.11e-4 h -3.06073 c 0.355835,-0.345459 0.780151,-0.684815 1.291321,-1.010498 0.0813,-0.05182 0.177185,-0.112183 0.281738,-0.177673 0.544922,0.370239 1.144959,0.767272 1.801086,1.187561 h -0.313415 z m -2.335693,1.390748 h 2.262939 v 3.66e-4 h 2.624023 c 0.854554,0.516174 1.752991,1.042969 2.679688,1.565429 0.211548,0.120667 0.40448,0.234375 0.610535,0.353028 h -1.500794 l 6.11e-4,-4.89e-4 h -6.90149 c -0.592224,-0.597717 -1.008606,-1.240173 -1.276855,-1.918335 z m -0.05975,2.093139 h 6.272888 c -0.02441,0.03223 -0.04883,0.06738 -0.07422,0.106934 -0.01172,0.01563 -0.02246,0.03125 -0.03125,0.04883 -0.06641,0.126465 -0.102539,0.261719 -0.102539,0.390625 0,0.197265 0.05664,0.358887 0.174804,0.495117 H 29.482353 28.45623 26.568169 c -0.262696,0 -0.476563,-0.219238 -0.476563,-0.488281 v -0.06494 c 0,-0.269043 0.213867,-0.488281 0.476563,-0.488281 h 0.757934 0.828064 z m 6.75824,1.216309 -7.32e-4,-4.89e-4 h 3.846862 c 1.169007,0.702088 2.214478,1.352967 3.072388,1.918885 h -1.646973 -2.160217 v -0.0014 H 32.736813 C 31.560787,37.370365 30.54681,36.723271 29.733639,36.169682 Z m -1.887512,2.092773 h 4.672241 l -0.541077,0.56781 0.511475,0.473206 h -2.889771 -1.183532 -3.758973 c -0.280273,0 -0.508789,-0.233398 -0.508789,-0.520508 0,-0.287109 0.228516,-0.520508 0.508789,-0.520508 h 2.038269 z m 4.925598,1.216797 v -10e-4 h 5.792541 c 0.676941,0.596314 1.184082,1.236512 1.5224,1.91803 h -3.830566 l 0.0013,8.55e-4 H 38.3908 c -0.657714,-0.390808 -1.331848,-0.784241 -2.028198,-1.176636 -0.441284,-0.251892 -0.86853,-0.498596 -1.285339,-0.741211 h 2.87323 z m 3.502746,3.307983 -7.93e-4,6.11e-4 h 3.111267 c -0.38446,0.392517 -0.852051,0.778564 -1.430359,1.147034 -0.106445,0.06781 -0.225891,0.142761 -0.355164,0.223144 -0.63208,-0.4245 -1.356994,-0.890869 -2.118591,-1.370789 z m -5.593566,-12.02478 c 6.377929,3.59375 9.371093,6.091797 9.393554,6.112793 l 0.0166,0.0166 c 0.04297,0.03619 0.544433,0.602932 0.861755,1.668911 0.07947,0.7005 0.04016,1.484104 -0.372986,2.46738 -0.313354,-0.598449 -0.7229,-1.113891 -1.163147,-1.565063 0.339173,-0.03906 0.608399,-0.323914 0.608399,-0.679932 0,-0.382263 -0.306519,-0.695068 -0.681275,-0.695068 H 42.905266 C 42.102531,37.535339 41.092888,36.88678 39.92083,36.169189 h 1.405884 c 0.354614,0 0.644714,-0.295959 0.644714,-0.657775 v -0.07452 c 0,-0.361817 -0.2901,-0.657837 -0.644714,-0.657837 H 37.592278 C 37.102959,34.493042 36.601921,34.202454 36.078423,33.903564 35.43914,33.543335 34.843132,33.19751 34.271355,32.860596 h 1.375427 c 0.37793,0 0.686523,-0.312012 0.686523,-0.695313 0,-0.383789 -0.308594,-0.695801 -0.686523,-0.695801 H 31.97863 c -0.905212,-0.567749 -1.688355,-1.081909 -2.357056,-1.535339 0.643921,-0.397766 1.48291,-0.910156 2.371521,-1.450256 1.329102,0.813293 2.703858,1.614563 3.866578,2.278564 z m -6.233704,-4.507202 c -0.329224,-0.222961 -0.638428,-0.436646 -0.90155,-0.62854 -0.511963,-0.38269 -0.932496,-0.789246 -1.289368,-1.211792 h 3.062317 l -4.89e-4,3.66e-4 h 2.081482 c -0.960022,0.584168 -2.001037,1.226746 -2.952392,1.839966 z m 3.240295,-2.014771 h -1.885376 c 0.128662,-0.167419 0.195801,-0.377624 0.198426,-0.520629 0.0015,-0.08051 -0.01135,-0.183899 -0.04663,-0.290406 -8.55e-4,-0.0024 -0.0012,-0.005 -0.002,-0.0074 -0.02569,-0.07483 -0.06171,-0.150391 -0.121765,-0.223084 h 3.58313 c -0.494893,0.29805 -1.086384,0.653641 -1.725789,1.041519 z M 46.003593,14.121155 c -0.04999,0.292846 -0.126831,0.595825 -0.243408,0.909179 h -0.192322 -0.694458 -3.747192 l 0.543274,-0.567993 -0.513733,-0.47351 h 2.847656 0.817444 0.972412 c 0.08166,0 0.155945,0.02441 0.224304,0.05939 -0.0037,0.02393 -0.0099,0.04889 -0.01398,0.07294 z M 44.714958,6.7370605 c -0.437561,0.5268555 -1.005737,1.0487671 -1.776611,1.539917 -0.109192,0.06958 -0.253052,0.1582031 -0.386231,0.2409668 -0.797912,-0.550354 -1.709106,-1.1621704 -2.671569,-1.78125 h 0.929321 v 3.662e-4 z m -1.55841,6.5214845 c 0.241149,0.180237 0.459899,0.366333 0.666809,0.555481 h -2.858216 v 3.66e-4 h -1.098022 c 0.78949,-0.463928 1.526489,-0.89685 2.199707,-1.311096 0.404785,0.271118 0.776794,0.527161 1.089722,0.755249 z m 2.040039,-2.164063 0.01563,0.01611 c 0.04346,0.03638 0.528442,0.466858 0.845275,1.530884 0.03912,0.35852 0.04803,0.77478 -0.0057,1.225646 -0.08002,-0.03326 -0.166931,-0.0531 -0.258545,-0.0531 H 44.67313 c -0.369751,-0.398255 -0.768066,-0.744873 -1.160156,-1.037903 -0.260315,-0.189758 -0.564331,-0.400085 -0.887207,-0.619202 0.786743,-0.500549 1.470642,-0.98236 2.052002,-1.473388 0.33789,0.259887 0.51355,0.406006 0.518799,0.410949 z M 44.865349,6.5622559 H 41.043938 L 41.586967,5.9945069 41.072929,5.520752 h 4.41858 c -0.157654,0.3441162 -0.357911,0.692749 -0.62616,1.0415039 z M 39.265007,3.7454224 h 6.376282 c 0.115478,0 0.218383,-0.039795 0.312378,-0.094665 -0.02435,0.5175781 -0.129578,1.0955811 -0.377503,1.6951904 H 40.88311 v 6.104e-4 H 37.627373 C 37.444572,5.2381593 37.26342,5.1256715 37.080376,5.0197755 h 0.0029 L 36.805962,4.8615724 c -0.166016,-0.095215 -0.332032,-0.1899414 -0.5,-0.284668 L 36.099907,4.4592286 C 35.678276,4.218689 35.267143,3.9811402 34.862724,3.7459107 h 4.403015 z M 31.65789,2.5296021 h 1.154053 5.969421 c -0.02441,0.032227 -0.0498,0.068359 -0.0752,0.1079102 -0.0038,0.00543 -0.0069,0.011353 -0.0105,0.016846 -0.0055,0.00793 -0.01172,0.015503 -0.01617,0.02417 -7.33e-4,0.00146 -10e-4,0.00305 -0.0018,0.00452 -2.44e-4,4.883e-4 -6.11e-4,8.545e-4 -8.55e-4,0.00134 -4.27e-4,7.935e-4 -1.83e-4,0.00159 -6.1e-4,0.00238 -0.06183,0.1199341 -0.09808,0.2506714 -0.100464,0.3793945 -6.1e-5,0.00311 -0.0024,0.00623 -0.0024,0.00934 0,0.1239624 0.03107,0.2299194 0.07727,0.3283691 0.0166,0.03656 0.03925,0.072266 0.06232,0.1057129 0.01398,0.019653 0.0199,0.042847 0.03619,0.061523 h -4.185913 -1.181397 -1.958862 c -0.262695,0 -0.476563,-0.2192383 -0.476563,-0.4882812 v -0.064942 c 0,-0.269043 0.213868,-0.4882812 0.476563,-0.4882812 z m 4.362915,5.5932006 C 30.040825,4.7526855 27.037895,2.3479004 26.666313,2.0422363 h 4.208496 c 0.163697,0.1032715 0.341187,0.2125854 0.513611,0.3197021 -0.342407,0.019287 -0.616821,0.3026733 -0.616821,0.6559448 v 0.064941 c 0,0.3657227 0.291992,0.6630859 0.651367,0.6630859 h 2.25238 c 0.374939,0.2214355 0.758301,0.446106 1.1521,0.6742554 l 0.974609,0.5610352 c 0.223694,0.1260376 0.418274,0.2421265 0.633606,0.3653564 h -0.214599 c -0.37616,0 -0.683838,0.3127441 -0.683838,0.6950684 0,0.3822632 0.307678,0.6950684 0.683838,0.6950684 h 2.326538 0.247131 c 1.278443,0.777771 2.381531,1.4847412 3.268921,2.0822144 C 41.372978,9.2406006 40.52343,9.7486572 39.655632,10.262268 38.566521,9.5988159 37.348808,8.8809814 36.020805,8.1228027 Z m 1.065796,7.3497923 c 0.152954,-0.09357 0.294861,-0.177307 0.444824,-0.268066 h 1.098694 2.262757 v 6.1e-4 h 4.103698 c 0.138306,0.226135 0.257996,0.456787 0.357056,0.692505 -0.192322,0.318054 -0.442932,0.637207 -0.736084,0.953552 h -5.636414 l 6.11e-4,-4.88e-4 h -4.18103 c 1.304199,-0.787659 2.285949,-1.378113 2.285888,-1.378113 z m -2.575317,1.552918 h 4.004639 c -0.01306,0.01721 -0.02649,0.03809 -0.03967,0.05719 -0.0067,0.0099 -0.01685,0.01642 -0.02319,0.02649 -0.01398,0.02222 -0.03137,0.04211 -0.04358,0.06525 -0.06641,0.126099 -0.105407,0.264954 -0.105407,0.400818 0,0.02228 0.01233,0.03662 0.01367,0.05792 0.0063,0.09259 0.02606,0.177917 0.06024,0.255127 0.01917,0.04431 0.04602,0.0874 0.07452,0.127136 0.01196,0.0163 0.01666,0.03595 0.03021,0.05157 h -5.692382 c 0.591247,-0.358399 1.177368,-0.713074 1.720947,-1.041504 z m -2.009216,1.216308 h 6.499206 l -7.32e-4,-4.88e-4 h 3.891662 C 42.233208,18.65564 41.232109,19.258179 40.171013,19.888 h -2.492188 -2.200012 v -5.49e-4 h -5.674744 c 0.758606,-0.466797 1.722352,-1.053711 2.697999,-1.64563 z m -3.853882,2.364807 c 0.213562,-0.136047 0.514099,-0.323425 0.871887,-0.544372 h 5.672058 l -0.541199,0.567932 0.511902,0.473572 h -7.216431 c 0.214722,-0.168396 0.446656,-0.334595 0.701783,-0.497132 z m -0.905396,0.671937 h 7.663758 v -4.28e-4 h 2.405578 c -0.888306,0.520447 -1.6073,0.938904 -1.886841,1.101441 v 2.44e-4 c -0.150024,0.102783 -0.527588,0.33313 -1.043335,0.644348 h -4.402649 l 9.16e-4,6.1e-4 h -3.912109 c -0.04169,-0.09711 -0.09686,-0.190979 -0.131958,-0.289673 0.311279,-0.489685 0.741943,-0.980835 1.30664,-1.456542 z m -2.057251,5.015075 -6.1e-5,-6.1e-5 c -0.07294,-0.508728 -0.08624,-1.163391 0.06482,-1.878662 h 0.932495 c 0.497009,0.682556 1.094116,1.252625 1.68518,1.694214 0.221192,0.161377 0.462525,0.3302 0.712342,0.501892 -0.835328,0.5495 -1.555726,1.054443 -2.050232,1.456726 -0.225647,-0.176208 -0.341919,-0.273071 -0.346192,-0.276977 l -0.01709,-0.01758 c -0.05097,-0.04224 -0.5896,-0.505799 -0.981263,-1.479554 z m 11.573548,18.151428 -0.97461,-0.561523 c -6.378418,-3.59375 -9.371094,-6.091797 -9.394043,-6.112305 l -0.01709,-0.01758 c -0.129516,-0.10791 -0.684997,-0.617248 -1.058288,-1.626953 -0.10437,-0.744873 -0.105408,-1.784485 0.396118,-2.890259 0.249573,0.574524 0.578369,1.091858 0.958801,1.542115 h -0.601806 c -0.359375,0 -0.651367,0.297363 -0.651367,0.663085 v 0.06494 c 0,0.365723 0.291992,0.663086 0.651367,0.663086 h 2.120178 c 0.81488,0.588257 1.828186,1.249145 2.901916,1.916992 h -1.755004 c -0.376954,0 -0.683594,0.3125 -0.683594,0.696289 0,0.383789 0.30664,0.696289 0.683594,0.696289 h 4.055419 c 0.761719,0.449951 1.504578,0.880737 2.175049,1.263672 0.400269,0.225525 0.761719,0.437805 1.135071,0.654175 h -0.632019 c -0.358093,0 -0.651062,0.295959 -0.651062,0.657776 v 0.07452 c 0,0.361816 0.292969,0.657837 0.651062,0.657837 h 2.96936 c 1.029114,0.634155 1.9198,1.21051 2.675843,1.717468 -0.693787,0.422973 -1.55304,0.93573 -2.413086,1.444641 -0.86084,-0.522339 -1.731202,-1.035034 -2.541809,-1.504273 z m 6.160156,4.575196 c 0.272644,0.203857 0.522461,0.413635 0.751587,0.628784 h -3.105103 v 0.0013 h -1.303772 c 0.896485,-0.526306 1.702881,-1.004395 2.448853,-1.466065 0.455383,0.303162 0.864868,0.585144 1.208435,0.835938 z m -8.981201,3.825256 h 4.188171 c -0.02277,0.02978 -0.0531,0.05182 -0.07318,0.08368 -0.01398,0.02222 -0.03131,0.04211 -0.04352,0.06525 -0.06647,0.126098 -0.105469,0.264953 -0.105469,0.400818 0,0.203003 0.07928,0.355102 0.19751,0.491272 h -5.882752 c 0.584412,-0.354493 1.168335,-0.708008 1.719239,-1.041016 z m -5.594849,3.418945 c 0.09003,-0.05731 0.201355,-0.127258 0.31958,-0.201233 h 6.128418 l -0.540283,0.566956 0.511353,0.473083 H 27.7481 c 0.316712,-0.285644 0.669495,-0.567627 1.095093,-0.838806 z m -2.665588,13.693299 c 0.07263,-0.31305 0.182006,-0.636353 0.334106,-0.966126 0.151611,0.329712 0.327332,0.653687 0.549133,0.966126 z m 0.692321,-6.498047 -0.01709,-0.01758 c -0.05029,-0.04138 -0.575318,-0.493775 -0.966065,-1.439637 -0.06281,-0.413818 -0.08472,-0.932189 -0.01501,-1.500549 h 1.323913 c 0.210877,0.246704 0.429932,0.481201 0.658447,0.691467 0.03619,0.03308 0.07208,0.06689 0.108521,0.09906 0.195801,0.17395 0.394104,0.338256 0.59137,0.485595 0.250061,0.182434 0.54071,0.384033 0.848999,0.593811 -0.83075,0.545655 -1.563904,1.054627 -2.064698,1.458252 -0.298096,-0.230163 -0.463318,-0.365906 -0.468384,-0.370422 z m 5.5,-2.95697 c -0.803039,0.491638 -1.640808,1.012268 -2.420593,1.514343 -0.383911,-0.258057 -0.739319,-0.50293 -1.038879,-0.721436 -0.34076,-0.254638 -0.635865,-0.521179 -0.907654,-0.793701 h 2.595215 l -0.001,7.94e-4 h 1.772949 z m -1.79541,6.986694 h -3.025818 c 0.398987,-0.424256 0.885865,-0.842468 1.509705,-1.239929 0.09216,-0.05872 0.205505,-0.129944 0.327209,-0.206055 0.661927,0.447327 1.400452,0.931519 2.213685,1.44458 h -1.024781 v 0.0014 z m 3.002991,1.215393 h -2.842346 l 0.542785,-0.567444 -0.513794,-0.473572 h 1.113221 1.134643 2.65918 c 0.282227,0 0.510742,0.233399 0.510742,0.520508 0,0.28711 -0.228515,0.520508 -0.510742,0.520508 h -0.915283 z m 2.466736,-2.273437 9.77e-4,9.76e-4 c 2.110351,1.188477 4.05664,2.37207 5.798828,3.525391 H 36.930962 L 36.26397,69.572022 c -0.41803,-0.235535 -0.819703,-0.465699 -1.208741,-0.691407 h 0.615967 c 0.37793,0 0.686524,-0.3125 0.686524,-0.696289 0,-0.383789 -0.308594,-0.696289 -0.686524,-0.696289 h -2.942749 c -1.086731,-0.670654 -2.002502,-1.267883 -2.78125,-1.793335 0.64978,-0.401184 1.493469,-0.916138 2.379028,-1.454285 1.109986,0.677674 2.355225,1.41272 3.718018,2.19098 z m -3.386475,-6.104432 h -1.576599 c 0.128418,-0.167358 0.195557,-0.377258 0.198181,-0.52008 0.0025,-0.138611 -0.02277,-0.34137 -0.1698,-0.519959 h 3.266114 c -0.51593,0.310669 -1.102173,0.664429 -1.717896,1.040039 z m 3.545716,-2.157531 v 3.05e-4 c -0.194886,0.133484 -0.764832,0.477173 -1.535828,0.941406 h -4.089722 l 9.77e-4,6.71e-4 h -3.634399 c -0.125061,-0.23114 -0.236268,-0.465698 -0.321961,-0.70636 0.238098,-0.37677 0.543335,-0.755004 0.925965,-1.126403 h 7.930297 v -9.16e-4 h 2.252564 c -0.718872,0.420594 -1.287171,0.751343 -1.527893,0.891297 z M 40.094719,55.888 h -2.315918 -2.226746 v -5.49e-4 h -6.106811 c 0.746032,-0.463135 1.844604,-1.133423 2.983886,-1.825134 h 6.707886 l -0.0015,-9.77e-4 h 3.986267 c -0.734619,0.460511 -1.865173,1.138794 -3.027099,1.82666 z m 4.77417,-3.216796 H 39.11364 l 0.0019,-0.0015 h -4.386658 c 1.435669,-0.867371 2.552796,-1.539246 2.552735,-1.539246 0.05109,-0.03125 0.09845,-0.05902 0.149231,-0.08997 h 1.299316 2.262329 v 0.0011 h 4.30896 c 0.125244,0.211914 0.238648,0.426758 0.329529,0.647095 -0.198242,0.327759 -0.456421,0.656799 -0.762085,0.982483 z m 1.154358,-1.805359 H 45.87664 45.189446 41.226677 L 41.769524,50.29834 41.25573,49.824829 h 3.081238 0.80896 1.154357 c -0.05078,0.333008 -0.13916,0.681397 -0.277038,1.041016 z m 0.309631,-1.216797 h -1.3302 c -0.38855,-0.429016 -0.810913,-0.800537 -1.22699,-1.111206 -0.305786,-0.223267 -0.649597,-0.460388 -1.007812,-0.70221 0.783691,-0.501403 1.479431,-0.984253 2.063354,-1.474792 0.412232,0.314148 0.622254,0.489075 0.628052,0.494385 l 0.01642,0.01556 c 0.0052,0.005 0.0093,0.0093 0.01794,0.018 0.09381,0.08392 0.549499,0.535339 0.845947,1.574341 0.03607,0.349182 0.04462,0.751037 -0.0067,1.185913 z"
         inkscape:connector-curvature="0" />
    </g>
    <g
       id="g2321"
       transform="translate(-8.1626942,59.481592)"
       style="stroke:#000000;stroke-opacity:1">
      <rect
         ry="0"
         y="143.54167"
         x="42.333332"
         height="15.875"
         width="21.166666"
         id="rect878"
         style="opacity:0.88700005;fill:none;fill-opacity:1;stroke:#000000;stroke-width:1;stroke-miterlimit:10;stroke-dasharray:none;stroke-dashoffset:0;stroke-opacity:1" />
      <text
         id="text2316"
         y="154.38959"
         x="45.508331"
         style="font-style:normal;font-variant:normal;font-weight:bold;font-stretch:normal;font-size:8.46666622px;line-height:1.25;font-family:Roboto;-inkscape-font-specification:'Roboto Bold';letter-spacing:0px;word-spacing:0px;fill:#000000;fill-opacity:1;stroke:#000000;stroke-width:0.26458332;stroke-opacity:1"
         xml:space="preserve"><tspan
           style="stroke:#000000;stroke-width:0.26458332;stroke-opacity:1"
           y="154.38959"
           x="45.508331"
           id="tspan2314"
           sodipodi:role="line">HIV</tspan></text>
    </g>
    <g
       id="g2653"
       transform="translate(-34.308166,117.47361)">
      <ellipse
         ry="7.7861004"
         rx="10.299643"
         cy="93.138542"
         cx="115.8875"
         id="path2633"
         style="opacity:0.88700005;fill:none;fill-opacity:1;stroke:#000000;stroke-width:1;stroke-miterlimit:4;stroke-dasharray:none;stroke-dashoffset:0;stroke-opacity:1" />
      <text
         id="text2637"
         y="95.916664"
         x="109.5375"
         style="font-style:normal;font-variant:normal;font-weight:bold;font-stretch:normal;font-size:8.46666622px;line-height:1.25;font-family:Roboto;-inkscape-font-specification:'Roboto Bold';letter-spacing:0px;word-spacing:0px;fill:#000000;fill-opacity:1;stroke:none;stroke-width:0.26458332"
         xml:space="preserve"><tspan
           style="stroke-width:0.26458332"
           y="95.916664"
           x="109.5375"
           id="tspan2635"
           sodipodi:role="line">Tat</tspan></text>
    </g>
    <path
       style="fill:none;stroke:#000000;stroke-width:1;stroke-linecap:butt;stroke-linejoin:miter;stroke-miterlimit:4;stroke-dasharray:none;stroke-opacity:1;marker-end:url(#marker2703)"
       d="m 55.33731,210.96079 h 15.875"
       id="path2655"
       inkscape:connector-curvature="0" />
    <path
       style="fill:none;stroke:#000000;stroke-width:1;stroke-linecap:butt;stroke-linejoin:miter;stroke-miterlimit:4;stroke-dasharray:none;stroke-opacity:1;marker-end:url(#Arrow1Mend)"
       d="M 44.253973,202.52329 V 189.29412"
       id="path2681"
       inkscape:connector-curvature="0" />
    <g
       style="fill:#1a1a1a"
       id="g2795"
       transform="matrix(0.26458333,0,0,0.26458333,109.07691,197.23163)">
      <g
         id="g2780">
        <path
           id="path2772"
           d="M 95,50 C 95,41.075 92.32,32.416 87.461,25.097 v 8.621 h -8.33 c 2.755,4.931 4.256,10.532 4.256,16.282 0,6.559 -1.891,12.85 -5.409,18.231 L 69.81,60.063 v 24.01 H 93.82 L 86.317,76.57 C 91.947,68.9 95,59.665 95,50 Z"
           inkscape:connector-curvature="0"
           style="clip-rule:evenodd;fill-rule:evenodd" />
        <path
           id="path2774"
           d="m 16.613,50 c 0,-6.496 1.882,-12.77 5.362,-18.139 l 8.215,8.216 V 16.067 H 6.18 l 7.449,7.449 C 8.041,31.177 5,40.409 5,50 5,59.036 7.638,67.63 12.539,74.948 V 66.562 H 21 C 18.142,61.579 16.613,55.918 16.613,50 Z"
           inkscape:connector-curvature="0"
           style="clip-rule:evenodd;fill-rule:evenodd" />
        <path
           id="path2776"
           d="M 66.422,79.081 C 61.475,81.889 55.863,83.387 50,83.387 c -6.525,0 -12.785,-1.872 -18.146,-5.354 L 39.937,69.95 H 15.926 v 24.01 l 7.583,-7.582 C 31.163,91.971 40.367,95 50,95 c 9.037,0 17.631,-2.638 24.949,-7.54 h -8.527 z"
           inkscape:connector-curvature="0"
           style="clip-rule:evenodd;fill-rule:evenodd" />
        <path
           id="path2778"
           d="M 33.578,20.943 C 38.545,18.139 44.202,16.612 50,16.612 c 6.559,0 12.9,1.922 18.309,5.473 L 60.063,30.33 H 84.075 V 6.319 l -7.426,7.425 C 68.954,8.082 59.649,5 50,5 41,5 32.26,7.734 24.896,12.68 h 8.682 z"
           inkscape:connector-curvature="0"
           style="clip-rule:evenodd;fill-rule:evenodd" />
      </g>
    </g>
    <path
       style="fill:none;stroke:#000000;stroke-width:1;stroke-linecap:butt;stroke-linejoin:miter;stroke-miterlimit:4;stroke-dasharray:none;stroke-opacity:1;marker-end:url(#marker2867)"
       d="M 91.690937,210.46079 H 110.39982"
       id="path2857"
       inkscape:connector-curvature="0" />
    <text
       xml:space="preserve"
       style="font-style:normal;font-variant:normal;font-weight:bold;font-stretch:normal;font-size:8.46666622px;line-height:1.25;font-family:Roboto;-inkscape-font-specification:'Roboto Bold';letter-spacing:0px;word-spacing:0px;fill:#000000;fill-opacity:1;stroke:none;stroke-width:0.26458332"
       x="119.28574"
       y="101.20834"
       id="text2907"><tspan
         sodipodi:role="line"
         x="119.28574"
         y="108.61668"
         style="font-size:6.3499999px;line-height:1ex;text-align:center;text-anchor:middle;stroke-width:0.26458332"
         id="tspan2911" /></text>
    <flowRoot
       xml:space="preserve"
       id="flowRoot2913"
       style="font-style:normal;font-variant:normal;font-weight:bold;font-stretch:normal;font-size:32px;line-height:1.25;font-family:Roboto;-inkscape-font-specification:'Roboto Bold';letter-spacing:0px;word-spacing:0px;fill:#000000;fill-opacity:1;stroke:none"
       transform="matrix(0.26458333,0,0,0.26458333,0,81.1)"><flowRegion
         id="flowRegion2915"><rect
           id="rect2917"
           width="90"
           height="110"
           x="400"
           y="36" /></flowRegion><flowPara
         id="flowPara2919"></flowPara></flowRoot>    <text
       xml:space="preserve"
       style="font-style:normal;font-variant:normal;font-weight:bold;font-stretch:normal;font-size:6.3499999px;line-height:1.25;font-family:Roboto;-inkscape-font-specification:'Roboto Bold';letter-spacing:0px;word-spacing:0px;fill:#000000;fill-opacity:1;stroke:none;stroke-width:0.26458332"
       x="111.125"
       y="103.85416"
       id="text2928"><tspan
         sodipodi:role="line"
         x="111.125"
         y="109.41041"
         style="font-size:6.3499999px;stroke-width:0.26458332"
         id="tspan2930" /></text>
    <text
       xml:space="preserve"
       style="font-style:normal;font-variant:normal;font-weight:bold;font-stretch:normal;font-size:6.3499999px;line-height:1.25;font-family:Roboto;-inkscape-font-specification:'Roboto Bold';letter-spacing:0px;word-spacing:0px;fill:#000000;fill-opacity:1;stroke:none;stroke-width:0.26458332"
       x="145.21306"
       y="188.76503"
       id="text2936"><tspan
         sodipodi:role="line"
         id="tspan2934"
         x="145.21306"
         y="188.76503"
         style="text-align:center;text-anchor:middle;stroke-width:0.26458332">Binding &amp;</tspan><tspan
         sodipodi:role="line"
         x="145.21306"
         y="196.70253"
         style="text-align:center;text-anchor:middle;stroke-width:0.26458332"
         id="tspan2938">Acetylation</tspan><tspan
         sodipodi:role="line"
         x="145.21306"
         y="204.64003"
         style="text-align:center;text-anchor:middle;stroke-width:0.26458332"
         id="tspan2940">&quot;eddies&quot;</tspan></text>
    <path
       style="fill:none;stroke:#000000;stroke-width:1;stroke-linecap:butt;stroke-linejoin:miter;stroke-miterlimit:4;stroke-dasharray:none;stroke-opacity:1;marker-end:url(#marker2952)"
       d="m 134.63909,210.4608 h 18.52084"
       id="path2942"
       inkscape:connector-curvature="0" />
    <text
       xml:space="preserve"
       style="font-style:normal;font-variant:normal;font-weight:bold;font-stretch:normal;font-size:6.3499999px;line-height:1.25;font-family:Roboto;-inkscape-font-specification:'Roboto Bold';letter-spacing:0px;word-spacing:0px;fill:#000000;fill-opacity:1;stroke:none;stroke-width:0.26458332"
       x="155.60106"
       y="212.57756"
       id="text2998"><tspan
         sodipodi:role="line"
         id="tspan2996"
         x="155.60106"
         y="212.57756"
         style="stroke-width:0.26458332">decay</tspan></text>
    <g
       id="g3014"
       transform="translate(28.171543,88.370838)">
      <ellipse
         style="opacity:0.88700005;fill:none;fill-opacity:1;stroke:#000000;stroke-width:1;stroke-miterlimit:4;stroke-dasharray:none;stroke-dashoffset:0;stroke-opacity:1"
         id="ellipse3000"
         ry="7.7861004"
         rx="18.737143"
         cy="151.13057"
         cx="82.237144" />
      <text
         xml:space="preserve"
         style="font-style:normal;font-variant:normal;font-weight:bold;font-stretch:normal;font-size:8.46666622px;line-height:1.25;font-family:Roboto;-inkscape-font-specification:'Roboto Bold';letter-spacing:0px;word-spacing:0px;fill:#000000;fill-opacity:1;stroke:none;stroke-width:0.26458332"
         x="68.332779"
         y="153.46356"
         id="text3004"><tspan
           sodipodi:role="line"
           id="tspan3002"
           x="68.332779"
           y="153.46356"
           style="stroke-width:0.26458332">p-TEFb</tspan></text>
    </g>
    <g
       transform="translate(43.078809,146.36287)"
       id="g3022">
      <ellipse
         style="opacity:0.88700005;fill:none;fill-opacity:1;stroke:#000000;stroke-width:1;stroke-miterlimit:4;stroke-dasharray:none;stroke-dashoffset:0;stroke-opacity:1"
         id="ellipse3016"
         cx="115.8875"
         cy="93.138542"
         rx="10.299643"
         ry="7.7861004" />
      <text
         xml:space="preserve"
         style="font-style:normal;font-variant:normal;font-weight:bold;font-stretch:normal;font-size:8.46666622px;line-height:1.25;font-family:Roboto;-inkscape-font-specification:'Roboto Bold';letter-spacing:0px;word-spacing:0px;fill:#000000;fill-opacity:1;stroke:none;stroke-width:0.26458332"
         x="109.5375"
         y="95.916664"
         id="text3020"><tspan
           sodipodi:role="line"
           id="tspan3018"
           x="109.5375"
           y="95.916664"
           style="stroke-width:0.26458332">Tat</tspan></text>
    </g>
    <g
       id="g3044"
       transform="translate(13.229163,88.370842)">
      <g
         style="fill:#1a1a1a"
         id="g3026"
         transform="matrix(0,0.76292995,-0.76292995,0,150.88815,154.54889)">
        <path
           id="path3024"
           d="m 47.390484,50.279541 c -0.279221,-2.740585 -1.575733,-3.855957 -1.575733,-3.855957 -0.115113,-0.118652 -0.298218,-0.277771 -0.530457,-0.465027 0.130554,-0.14209 0.263733,-0.287964 0.4021,-0.462036 0.24237,-0.304932 0.487427,-0.659424 0.703735,-1.070251 0.529358,-1.005555 0.836685,-1.737069 0.799339,-3.970143 0.03991,-2.258697 -1.563194,-3.993969 -1.563194,-3.993969 v -4.88e-4 c -0.0049,-0.0054 -0.01758,-0.01807 -0.01758,-0.01807 -0.822266,-0.847656 -4.80957,-3.587402 -9.452148,-6.203613 -1.309082,-0.747192 -2.51001,-1.454529 -3.583985,-2.10791 2.279358,-1.382935 4.646119,-2.806458 4.646057,-2.806458 3.473999,-2.125732 6.217347,-3.515502 7.898499,-5.052185 0.155029,-0.163635 0.322693,-0.351196 0.492065,-0.563049 0.259583,-0.324646 0.521729,-0.709595 0.750244,-1.156067 0.509034,-0.994751 0.841763,-2.103128 0.76891,-3.985473 -0.08667,-2.293518 -1.557728,-3.886475 -1.557728,-3.886475 -0.0059,-0.0059 -0.01074,-0.01221 -0.01758,-0.01807 0,0 -0.171814,-0.129151 -0.471436,-0.349121 1.111878,-1.2066045 2.713501,-3.5665288 1.153809,-7.556397 -2.44e-4,-5.493e-4 -4.27e-4,-0.00116 -6.71e-4,-0.00171 C 46.106316,2.4288329 45.96331,2.0930175 45.78997,1.7424316 H 45.7232 c 0.04211,0.1550903 0.100708,0.3831177 0.149658,0.6608276 -0.07233,-0.028809 -0.149536,-0.047974 -0.231567,-0.047974 h -6.394715 l 6.11e-4,-4.883e-4 H 32.522636 C 32.029961,2.0550536 31.554802,1.7627563 31.12188,1.4890136 l -0.07324,-0.046387 h -5.687988 l 0.893066,0.9799805 c 0.0054,0.00586 0.01123,0.011719 0.01709,0.017578 l 9.77e-4,9.766e-4 c 0.822754,0.8476562 4.810058,3.5874023 9.452148,6.2036133 1.211243,0.6913452 2.333924,1.3504028 3.346558,1.963195 -1.481262,0.873657 -2.861206,1.676697 -3.277222,1.918579 v 3.06e-4 c -0.775879,0.531494 -7.510681,4.399658 -9.191833,5.93634 -0.176941,0.186706 -0.370179,0.407776 -0.563721,0.657532 -0.110169,0.142089 -0.219421,0.295227 -0.326721,0.458801 -0.645813,0.98468 -1.202967,2.295471 -1.16515,4.229126 -0.0018,2.566346 1.782581,4.413269 1.782581,4.413269 0.06744,0.06952 0.159424,0.153625 0.268128,0.247497 -0.932862,1.024292 -2.052529,3.174866 -1.736902,5.736023 0.185474,2.502243 1.675317,3.997437 1.675317,3.997437 0.764161,0.787109 4.257813,3.205078 8.471192,5.642578 h -0.002 l 0.227539,0.129883 c 0.185547,0.106445 0.373047,0.21289 0.560547,0.320312 l 0.194336,0.110352 c 1.165405,0.664978 2.244689,1.298341 3.226135,1.890747 -1.460694,0.861328 -2.813111,1.64856 -3.224487,1.887695 v 2.44e-4 c -0.775879,0.531495 -7.510682,4.399659 -9.191834,5.936341 -0.179626,0.189575 -0.376099,0.414734 -0.572632,0.669311 -0.111999,0.145142 -0.223144,0.300903 -0.33197,0.468263 -0.567749,0.872619 -1.20841,2.019531 -1.297071,3.601745 -0.160943,2.505921 1.919691,5.031005 1.919691,5.031005 0.08819,0.09088 0.225097,0.210572 0.383056,0.342469 -0.136841,0.15216 -0.278747,0.319214 -0.423156,0.504089 -0.08716,0.111572 -0.173707,0.221436 -0.259705,0.346497 -0.664917,0.96698 -1.239258,2.347961 -1.062561,4.21997 -0.01404,0.331787 -0.02368,0.661866 0.002,0.9776 l 0.02246,0.275391 h 3.151367 l -0.423828,-0.495117 c -0.344543,-0.4021 -0.590759,-0.797669 -0.778686,-1.182678 h 1.113159 2.262695 v 0.001 h 3.37146 c 0.677307,0.403076 1.376465,0.81012 2.094361,1.214844 l 0.80371,0.461914 h 7.03125 l -0.80371,-0.547851 c -1.957032,-1.333008 -4.19629,-2.712891 -6.65625,-4.09961 v -9.75e-4 c -1.248353,-0.712098 -2.402588,-1.390137 -3.439209,-2.018677 2.262695,-1.372803 4.593994,-2.774781 4.593933,-2.774781 3.473999,-2.125732 6.217346,-3.515502 7.898498,-5.052185 0.160095,-0.168945 0.333679,-0.364502 0.508667,-0.584961 0.234619,-0.295532 0.471069,-0.638732 0.682068,-1.033447 0.545898,-1.021301 0.890877,-1.972214 0.804432,-4.165344 z M 44.719902,42.61206 h -2.788086 c 0.128296,-0.167297 0.195374,-0.377075 0.197998,-0.519897 6.1e-5,-0.003 -6.71e-4,-0.0071 -6.71e-4,-0.01013 1.22e-4,-0.0049 0.004,-0.01001 0.004,-0.01489 0,-0.01831 -0.0071,-0.03259 -0.0081,-0.05035 -0.0026,-0.04834 -0.0116,-0.09875 -0.0249,-0.153992 -0.0078,-0.0304 -0.01355,-0.06213 -0.02509,-0.09064 -0.02557,-0.06732 -0.06146,-0.13501 -0.115174,-0.200135 h 3.395508 c 0.0191,0.04254 0.04657,0.08307 0.06439,0.125916 -0.183899,0.304871 -0.423645,0.610657 -0.699829,0.914123 z M 30.73925,31.644287 h 0.398132 1.12323 3.38617 c 0.282227,0 0.510742,0.233887 0.510742,0.520996 0,0.28711 -0.228515,0.520508 -0.510742,0.520508 h -1.672974 -1.160522 -2.103027 l 0.543029,-0.567749 z m -0.189636,-0.174805 v 6.11e-4 h -3.06073 c 0.355835,-0.345459 0.780151,-0.684815 1.291321,-1.010498 0.0813,-0.05182 0.177185,-0.112183 0.281738,-0.177673 0.544922,0.370239 1.144959,0.767272 1.801086,1.187561 h -0.313415 z m -2.335693,1.390748 h 2.262939 v 3.66e-4 h 2.624023 c 0.854554,0.516174 1.752991,1.042969 2.679688,1.565429 0.211548,0.120667 0.40448,0.234375 0.610535,0.353028 h -1.500794 l 6.11e-4,-4.89e-4 h -6.90149 c -0.592224,-0.597717 -1.008606,-1.240173 -1.276855,-1.918335 z m -0.05975,2.093139 h 6.272888 c -0.02441,0.03223 -0.04883,0.06738 -0.07422,0.106934 -0.01172,0.01563 -0.02246,0.03125 -0.03125,0.04883 -0.06641,0.126465 -0.102539,0.261719 -0.102539,0.390625 0,0.197265 0.05664,0.358887 0.174804,0.495117 H 29.482353 28.45623 26.568169 c -0.262696,0 -0.476563,-0.219238 -0.476563,-0.488281 v -0.06494 c 0,-0.269043 0.213867,-0.488281 0.476563,-0.488281 h 0.757934 0.828064 z m 6.75824,1.216309 -7.32e-4,-4.89e-4 h 3.846862 c 1.169007,0.702088 2.214478,1.352967 3.072388,1.918885 h -1.646973 -2.160217 v -0.0014 H 32.736813 C 31.560787,37.370365 30.54681,36.723271 29.733639,36.169682 Z m -1.887512,2.092773 h 4.672241 l -0.541077,0.56781 0.511475,0.473206 h -2.889771 -1.183532 -3.758973 c -0.280273,0 -0.508789,-0.233398 -0.508789,-0.520508 0,-0.287109 0.228516,-0.520508 0.508789,-0.520508 h 2.038269 z m 4.925598,1.216797 v -10e-4 h 5.792541 c 0.676941,0.596314 1.184082,1.236512 1.5224,1.91803 h -3.830566 l 0.0013,8.55e-4 H 38.3908 c -0.657714,-0.390808 -1.331848,-0.784241 -2.028198,-1.176636 -0.441284,-0.251892 -0.86853,-0.498596 -1.285339,-0.741211 h 2.87323 z m 3.502746,3.307983 -7.93e-4,6.11e-4 h 3.111267 c -0.38446,0.392517 -0.852051,0.778564 -1.430359,1.147034 -0.106445,0.06781 -0.225891,0.142761 -0.355164,0.223144 -0.63208,-0.4245 -1.356994,-0.890869 -2.118591,-1.370789 z m -5.593566,-12.02478 c 6.377929,3.59375 9.371093,6.091797 9.393554,6.112793 l 0.0166,0.0166 c 0.04297,0.03619 0.544433,0.602932 0.861755,1.668911 0.07947,0.7005 0.04016,1.484104 -0.372986,2.46738 -0.313354,-0.598449 -0.7229,-1.113891 -1.163147,-1.565063 0.339173,-0.03906 0.608399,-0.323914 0.608399,-0.679932 0,-0.382263 -0.306519,-0.695068 -0.681275,-0.695068 H 42.905266 C 42.102531,37.535339 41.092888,36.88678 39.92083,36.169189 h 1.405884 c 0.354614,0 0.644714,-0.295959 0.644714,-0.657775 v -0.07452 c 0,-0.361817 -0.2901,-0.657837 -0.644714,-0.657837 H 37.592278 C 37.102959,34.493042 36.601921,34.202454 36.078423,33.903564 35.43914,33.543335 34.843132,33.19751 34.271355,32.860596 h 1.375427 c 0.37793,0 0.686523,-0.312012 0.686523,-0.695313 0,-0.383789 -0.308594,-0.695801 -0.686523,-0.695801 H 31.97863 c -0.905212,-0.567749 -1.688355,-1.081909 -2.357056,-1.535339 0.643921,-0.397766 1.48291,-0.910156 2.371521,-1.450256 1.329102,0.813293 2.703858,1.614563 3.866578,2.278564 z m -6.233704,-4.507202 c -0.329224,-0.222961 -0.638428,-0.436646 -0.90155,-0.62854 -0.511963,-0.38269 -0.932496,-0.789246 -1.289368,-1.211792 h 3.062317 l -4.89e-4,3.66e-4 h 2.081482 c -0.960022,0.584168 -2.001037,1.226746 -2.952392,1.839966 z m 3.240295,-2.014771 h -1.885376 c 0.128662,-0.167419 0.195801,-0.377624 0.198426,-0.520629 0.0015,-0.08051 -0.01135,-0.183899 -0.04663,-0.290406 -8.55e-4,-0.0024 -0.0012,-0.005 -0.002,-0.0074 -0.02569,-0.07483 -0.06171,-0.150391 -0.121765,-0.223084 h 3.58313 c -0.494893,0.29805 -1.086384,0.653641 -1.725789,1.041519 z M 46.003593,14.121155 c -0.04999,0.292846 -0.126831,0.595825 -0.243408,0.909179 h -0.192322 -0.694458 -3.747192 l 0.543274,-0.567993 -0.513733,-0.47351 h 2.847656 0.817444 0.972412 c 0.08166,0 0.155945,0.02441 0.224304,0.05939 -0.0037,0.02393 -0.0099,0.04889 -0.01398,0.07294 z M 44.714958,6.7370605 c -0.437561,0.5268555 -1.005737,1.0487671 -1.776611,1.539917 -0.109192,0.06958 -0.253052,0.1582031 -0.386231,0.2409668 -0.797912,-0.550354 -1.709106,-1.1621704 -2.671569,-1.78125 h 0.929321 v 3.662e-4 z m -1.55841,6.5214845 c 0.241149,0.180237 0.459899,0.366333 0.666809,0.555481 h -2.858216 v 3.66e-4 h -1.098022 c 0.78949,-0.463928 1.526489,-0.89685 2.199707,-1.311096 0.404785,0.271118 0.776794,0.527161 1.089722,0.755249 z m 2.040039,-2.164063 0.01563,0.01611 c 0.04346,0.03638 0.528442,0.466858 0.845275,1.530884 0.03912,0.35852 0.04803,0.77478 -0.0057,1.225646 -0.08002,-0.03326 -0.166931,-0.0531 -0.258545,-0.0531 H 44.67313 c -0.369751,-0.398255 -0.768066,-0.744873 -1.160156,-1.037903 -0.260315,-0.189758 -0.564331,-0.400085 -0.887207,-0.619202 0.786743,-0.500549 1.470642,-0.98236 2.052002,-1.473388 0.33789,0.259887 0.51355,0.406006 0.518799,0.410949 z M 44.865349,6.5622559 H 41.043938 L 41.586967,5.9945069 41.072929,5.520752 h 4.41858 c -0.157654,0.3441162 -0.357911,0.692749 -0.62616,1.0415039 z M 39.265007,3.7454224 h 6.376282 c 0.115478,0 0.218383,-0.039795 0.312378,-0.094665 -0.02435,0.5175781 -0.129578,1.0955811 -0.377503,1.6951904 H 40.88311 v 6.104e-4 H 37.627373 C 37.444572,5.2381593 37.26342,5.1256715 37.080376,5.0197755 h 0.0029 L 36.805962,4.8615724 c -0.166016,-0.095215 -0.332032,-0.1899414 -0.5,-0.284668 L 36.099907,4.4592286 C 35.678276,4.218689 35.267143,3.9811402 34.862724,3.7459107 h 4.403015 z M 31.65789,2.5296021 h 1.154053 5.969421 c -0.02441,0.032227 -0.0498,0.068359 -0.0752,0.1079102 -0.0038,0.00543 -0.0069,0.011353 -0.0105,0.016846 -0.0055,0.00793 -0.01172,0.015503 -0.01617,0.02417 -7.33e-4,0.00146 -10e-4,0.00305 -0.0018,0.00452 -2.44e-4,4.883e-4 -6.11e-4,8.545e-4 -8.55e-4,0.00134 -4.27e-4,7.935e-4 -1.83e-4,0.00159 -6.1e-4,0.00238 -0.06183,0.1199341 -0.09808,0.2506714 -0.100464,0.3793945 -6.1e-5,0.00311 -0.0024,0.00623 -0.0024,0.00934 0,0.1239624 0.03107,0.2299194 0.07727,0.3283691 0.0166,0.03656 0.03925,0.072266 0.06232,0.1057129 0.01398,0.019653 0.0199,0.042847 0.03619,0.061523 h -4.185913 -1.181397 -1.958862 c -0.262695,0 -0.476563,-0.2192383 -0.476563,-0.4882812 v -0.064942 c 0,-0.269043 0.213868,-0.4882812 0.476563,-0.4882812 z m 4.362915,5.5932006 C 30.040825,4.7526855 27.037895,2.3479004 26.666313,2.0422363 h 4.208496 c 0.163697,0.1032715 0.341187,0.2125854 0.513611,0.3197021 -0.342407,0.019287 -0.616821,0.3026733 -0.616821,0.6559448 v 0.064941 c 0,0.3657227 0.291992,0.6630859 0.651367,0.6630859 h 2.25238 c 0.374939,0.2214355 0.758301,0.446106 1.1521,0.6742554 l 0.974609,0.5610352 c 0.223694,0.1260376 0.418274,0.2421265 0.633606,0.3653564 h -0.214599 c -0.37616,0 -0.683838,0.3127441 -0.683838,0.6950684 0,0.3822632 0.307678,0.6950684 0.683838,0.6950684 h 2.326538 0.247131 c 1.278443,0.777771 2.381531,1.4847412 3.268921,2.0822144 C 41.372978,9.2406006 40.52343,9.7486572 39.655632,10.262268 38.566521,9.5988159 37.348808,8.8809814 36.020805,8.1228027 Z m 1.065796,7.3497923 c 0.152954,-0.09357 0.294861,-0.177307 0.444824,-0.268066 h 1.098694 2.262757 v 6.1e-4 h 4.103698 c 0.138306,0.226135 0.257996,0.456787 0.357056,0.692505 -0.192322,0.318054 -0.442932,0.637207 -0.736084,0.953552 h -5.636414 l 6.11e-4,-4.88e-4 h -4.18103 c 1.304199,-0.787659 2.285949,-1.378113 2.285888,-1.378113 z m -2.575317,1.552918 h 4.004639 c -0.01306,0.01721 -0.02649,0.03809 -0.03967,0.05719 -0.0067,0.0099 -0.01685,0.01642 -0.02319,0.02649 -0.01398,0.02222 -0.03137,0.04211 -0.04358,0.06525 -0.06641,0.126099 -0.105407,0.264954 -0.105407,0.400818 0,0.02228 0.01233,0.03662 0.01367,0.05792 0.0063,0.09259 0.02606,0.177917 0.06024,0.255127 0.01917,0.04431 0.04602,0.0874 0.07452,0.127136 0.01196,0.0163 0.01666,0.03595 0.03021,0.05157 h -5.692382 c 0.591247,-0.358399 1.177368,-0.713074 1.720947,-1.041504 z m -2.009216,1.216308 h 6.499206 l -7.32e-4,-4.88e-4 h 3.891662 C 42.233208,18.65564 41.232109,19.258179 40.171013,19.888 h -2.492188 -2.200012 v -5.49e-4 h -5.674744 c 0.758606,-0.466797 1.722352,-1.053711 2.697999,-1.64563 z m -3.853882,2.364807 c 0.213562,-0.136047 0.514099,-0.323425 0.871887,-0.544372 h 5.672058 l -0.541199,0.567932 0.511902,0.473572 h -7.216431 c 0.214722,-0.168396 0.446656,-0.334595 0.701783,-0.497132 z m -0.905396,0.671937 h 7.663758 v -4.28e-4 h 2.405578 c -0.888306,0.520447 -1.6073,0.938904 -1.886841,1.101441 v 2.44e-4 c -0.150024,0.102783 -0.527588,0.33313 -1.043335,0.644348 h -4.402649 l 9.16e-4,6.1e-4 h -3.912109 c -0.04169,-0.09711 -0.09686,-0.190979 -0.131958,-0.289673 0.311279,-0.489685 0.741943,-0.980835 1.30664,-1.456542 z m -2.057251,5.015075 -6.1e-5,-6.1e-5 c -0.07294,-0.508728 -0.08624,-1.163391 0.06482,-1.878662 h 0.932495 c 0.497009,0.682556 1.094116,1.252625 1.68518,1.694214 0.221192,0.161377 0.462525,0.3302 0.712342,0.501892 -0.835328,0.5495 -1.555726,1.054443 -2.050232,1.456726 -0.225647,-0.176208 -0.341919,-0.273071 -0.346192,-0.276977 l -0.01709,-0.01758 c -0.05097,-0.04224 -0.5896,-0.505799 -0.981263,-1.479554 z m 11.573548,18.151428 -0.97461,-0.561523 c -6.378418,-3.59375 -9.371094,-6.091797 -9.394043,-6.112305 l -0.01709,-0.01758 c -0.129516,-0.10791 -0.684997,-0.617248 -1.058288,-1.626953 -0.10437,-0.744873 -0.105408,-1.784485 0.396118,-2.890259 0.249573,0.574524 0.578369,1.091858 0.958801,1.542115 h -0.601806 c -0.359375,0 -0.651367,0.297363 -0.651367,0.663085 v 0.06494 c 0,0.365723 0.291992,0.663086 0.651367,0.663086 h 2.120178 c 0.81488,0.588257 1.828186,1.249145 2.901916,1.916992 h -1.755004 c -0.376954,0 -0.683594,0.3125 -0.683594,0.696289 0,0.383789 0.30664,0.696289 0.683594,0.696289 h 4.055419 c 0.761719,0.449951 1.504578,0.880737 2.175049,1.263672 0.400269,0.225525 0.761719,0.437805 1.135071,0.654175 h -0.632019 c -0.358093,0 -0.651062,0.295959 -0.651062,0.657776 v 0.07452 c 0,0.361816 0.292969,0.657837 0.651062,0.657837 h 2.96936 c 1.029114,0.634155 1.9198,1.21051 2.675843,1.717468 -0.693787,0.422973 -1.55304,0.93573 -2.413086,1.444641 -0.86084,-0.522339 -1.731202,-1.035034 -2.541809,-1.504273 z m 6.160156,4.575196 c 0.272644,0.203857 0.522461,0.413635 0.751587,0.628784 h -3.105103 v 0.0013 h -1.303772 c 0.896485,-0.526306 1.702881,-1.004395 2.448853,-1.466065 0.455383,0.303162 0.864868,0.585144 1.208435,0.835938 z m -8.981201,3.825256 h 4.188171 c -0.02277,0.02978 -0.0531,0.05182 -0.07318,0.08368 -0.01398,0.02222 -0.03131,0.04211 -0.04352,0.06525 -0.06647,0.126098 -0.105469,0.264953 -0.105469,0.400818 0,0.203003 0.07928,0.355102 0.19751,0.491272 h -5.882752 c 0.584412,-0.354493 1.168335,-0.708008 1.719239,-1.041016 z m -5.594849,3.418945 c 0.09003,-0.05731 0.201355,-0.127258 0.31958,-0.201233 h 6.128418 l -0.540283,0.566956 0.511353,0.473083 H 27.7481 c 0.316712,-0.285644 0.669495,-0.567627 1.095093,-0.838806 z m -2.665588,13.693299 c 0.07263,-0.31305 0.182006,-0.636353 0.334106,-0.966126 0.151611,0.329712 0.327332,0.653687 0.549133,0.966126 z m 0.692321,-6.498047 -0.01709,-0.01758 c -0.05029,-0.04138 -0.575318,-0.493775 -0.966065,-1.439637 -0.06281,-0.413818 -0.08472,-0.932189 -0.01501,-1.500549 h 1.323913 c 0.210877,0.246704 0.429932,0.481201 0.658447,0.691467 0.03619,0.03308 0.07208,0.06689 0.108521,0.09906 0.195801,0.17395 0.394104,0.338256 0.59137,0.485595 0.250061,0.182434 0.54071,0.384033 0.848999,0.593811 -0.83075,0.545655 -1.563904,1.054627 -2.064698,1.458252 -0.298096,-0.230163 -0.463318,-0.365906 -0.468384,-0.370422 z m 5.5,-2.95697 c -0.803039,0.491638 -1.640808,1.012268 -2.420593,1.514343 -0.383911,-0.258057 -0.739319,-0.50293 -1.038879,-0.721436 -0.34076,-0.254638 -0.635865,-0.521179 -0.907654,-0.793701 h 2.595215 l -0.001,7.94e-4 h 1.772949 z m -1.79541,6.986694 h -3.025818 c 0.398987,-0.424256 0.885865,-0.842468 1.509705,-1.239929 0.09216,-0.05872 0.205505,-0.129944 0.327209,-0.206055 0.661927,0.447327 1.400452,0.931519 2.213685,1.44458 h -1.024781 v 0.0014 z m 3.002991,1.215393 h -2.842346 l 0.542785,-0.567444 -0.513794,-0.473572 h 1.113221 1.134643 2.65918 c 0.282227,0 0.510742,0.233399 0.510742,0.520508 0,0.28711 -0.228515,0.520508 -0.510742,0.520508 h -0.915283 z m 2.466736,-2.273437 9.77e-4,9.76e-4 c 2.110351,1.188477 4.05664,2.37207 5.798828,3.525391 H 36.930962 L 36.26397,69.572022 c -0.41803,-0.235535 -0.819703,-0.465699 -1.208741,-0.691407 h 0.615967 c 0.37793,0 0.686524,-0.3125 0.686524,-0.696289 0,-0.383789 -0.308594,-0.696289 -0.686524,-0.696289 h -2.942749 c -1.086731,-0.670654 -2.002502,-1.267883 -2.78125,-1.793335 0.64978,-0.401184 1.493469,-0.916138 2.379028,-1.454285 1.109986,0.677674 2.355225,1.41272 3.718018,2.19098 z m -3.386475,-6.104432 h -1.576599 c 0.128418,-0.167358 0.195557,-0.377258 0.198181,-0.52008 0.0025,-0.138611 -0.02277,-0.34137 -0.1698,-0.519959 h 3.266114 c -0.51593,0.310669 -1.102173,0.664429 -1.717896,1.040039 z m 3.545716,-2.157531 v 3.05e-4 c -0.194886,0.133484 -0.764832,0.477173 -1.535828,0.941406 h -4.089722 l 9.77e-4,6.71e-4 h -3.634399 c -0.125061,-0.23114 -0.236268,-0.465698 -0.321961,-0.70636 0.238098,-0.37677 0.543335,-0.755004 0.925965,-1.126403 h 7.930297 v -9.16e-4 h 2.252564 c -0.718872,0.420594 -1.287171,0.751343 -1.527893,0.891297 z M 40.094719,55.888 h -2.315918 -2.226746 v -5.49e-4 h -6.106811 c 0.746032,-0.463135 1.844604,-1.133423 2.983886,-1.825134 h 6.707886 l -0.0015,-9.77e-4 h 3.986267 c -0.734619,0.460511 -1.865173,1.138794 -3.027099,1.82666 z m 4.77417,-3.216796 H 39.11364 l 0.0019,-0.0015 h -4.386658 c 1.435669,-0.867371 2.552796,-1.539246 2.552735,-1.539246 0.05109,-0.03125 0.09845,-0.05902 0.149231,-0.08997 h 1.299316 2.262329 v 0.0011 h 4.30896 c 0.125244,0.211914 0.238648,0.426758 0.329529,0.647095 -0.198242,0.327759 -0.456421,0.656799 -0.762085,0.982483 z m 1.154358,-1.805359 H 45.87664 45.189446 41.226677 L 41.769524,50.29834 41.25573,49.824829 h 3.081238 0.80896 1.154357 c -0.05078,0.333008 -0.13916,0.681397 -0.277038,1.041016 z m 0.309631,-1.216797 h -1.3302 c -0.38855,-0.429016 -0.810913,-0.800537 -1.22699,-1.111206 -0.305786,-0.223267 -0.649597,-0.460388 -1.007812,-0.70221 0.783691,-0.501403 1.479431,-0.984253 2.063354,-1.474792 0.412232,0.314148 0.622254,0.489075 0.628052,0.494385 l 0.01642,0.01556 c 0.0052,0.005 0.0093,0.0093 0.01794,0.018 0.09381,0.08392 0.549499,0.535339 0.845947,1.574341 0.03607,0.349182 0.04462,0.751037 -0.0067,1.185913 z"
           inkscape:connector-curvature="0" />
      </g>
      <rect
         style="opacity:1;fill:#ffffff;fill-opacity:1;stroke:#000000;stroke-width:1;stroke-miterlimit:10;stroke-dasharray:none;stroke-dashoffset:0;stroke-opacity:1"
         id="rect3028"
         width="21.166666"
         height="15.875"
         x="113.77083"
         y="167.35417"
         ry="0" />
      <text
         xml:space="preserve"
         style="font-style:normal;font-variant:normal;font-weight:bold;font-stretch:normal;font-size:8.46666622px;line-height:1.25;font-family:Roboto;-inkscape-font-specification:'Roboto Bold';letter-spacing:0px;word-spacing:0px;fill:#000000;fill-opacity:1;stroke:#000000;stroke-width:0.26458332;stroke-opacity:1"
         x="116.94583"
         y="178.20209"
         id="text3032"><tspan
           sodipodi:role="line"
           id="tspan3030"
           x="116.94583"
           y="178.20209"
           style="stroke:#000000;stroke-width:0.26458332;stroke-opacity:1">HIV</tspan></text>
    </g>
    <path
       style="fill:none;stroke:#000000;stroke-width:1;stroke-linecap:butt;stroke-linejoin:miter;stroke-miterlimit:4;stroke-dasharray:none;stroke-opacity:1;marker-end:url(#marker3166)"
       d="m 111.12501,247.78754 15.875,10.58333"
       id="path3156"
       inkscape:connector-curvature="0" />
    <path
       style="fill:none;stroke:#000000;stroke-width:1;stroke-linecap:butt;stroke-linejoin:miter;stroke-miterlimit:4;stroke-dasharray:none;stroke-opacity:1;marker-end:url(#marker3232)"
       d="m 148.16668,255.72504 7.9375,-7.9375"
       id="path3222"
       inkscape:connector-curvature="0" />
    <g
       transform="matrix(0.26458333,0,0,0.26458333,35.751407,221.4246)"
       id="g3382"
       style="fill:#1a1a1a">
      <g
         id="g3380">
        <path
           style="clip-rule:evenodd;fill-rule:evenodd"
           inkscape:connector-curvature="0"
           d="M 95,50 C 95,41.075 92.32,32.416 87.461,25.097 v 8.621 h -8.33 c 2.755,4.931 4.256,10.532 4.256,16.282 0,6.559 -1.891,12.85 -5.409,18.231 L 69.81,60.063 v 24.01 H 93.82 L 86.317,76.57 C 91.947,68.9 95,59.665 95,50 Z"
           id="path3372" />
        <path
           style="clip-rule:evenodd;fill-rule:evenodd"
           inkscape:connector-curvature="0"
           d="m 16.613,50 c 0,-6.496 1.882,-12.77 5.362,-18.139 l 8.215,8.216 V 16.067 H 6.18 l 7.449,7.449 C 8.041,31.177 5,40.409 5,50 5,59.036 7.638,67.63 12.539,74.948 V 66.562 H 21 C 18.142,61.579 16.613,55.918 16.613,50 Z"
           id="path3374" />
        <path
           style="clip-rule:evenodd;fill-rule:evenodd"
           inkscape:connector-curvature="0"
           d="M 66.422,79.081 C 61.475,81.889 55.863,83.387 50,83.387 c -6.525,0 -12.785,-1.872 -18.146,-5.354 L 39.937,69.95 H 15.926 v 24.01 l 7.583,-7.582 C 31.163,91.971 40.367,95 50,95 c 9.037,0 17.631,-2.638 24.949,-7.54 h -8.527 z"
           id="path3376" />
        <path
           style="clip-rule:evenodd;fill-rule:evenodd"
           inkscape:connector-curvature="0"
           d="M 33.578,20.943 C 38.545,18.139 44.202,16.612 50,16.612 c 6.559,0 12.9,1.922 18.309,5.473 L 60.063,30.33 H 84.075 V 6.319 l -7.426,7.425 C 68.954,8.082 59.649,5 50,5 41,5 32.26,7.734 24.896,12.68 h 8.682 z"
           id="path3378" />
      </g>
    </g>
    <text
       id="text3390"
       y="231.56557"
       x="20.432173"
       style="font-style:normal;font-variant:normal;font-weight:bold;font-stretch:normal;font-size:6.3499999px;line-height:1.25;font-family:Roboto;-inkscape-font-specification:'Roboto Bold';letter-spacing:0px;word-spacing:0px;fill:#000000;fill-opacity:1;stroke:none;stroke-width:0.26458332"
       xml:space="preserve"><tspan
         style="text-align:center;text-anchor:middle;stroke-width:0.26458332"
         y="231.56557"
         x="20.432173"
         id="tspan3384"
         sodipodi:role="line">Binding &amp;</tspan><tspan
         id="tspan3386"
         style="text-align:center;text-anchor:middle;stroke-width:0.26458332"
         y="239.50307"
         x="20.432173"
         sodipodi:role="line">Acetylation</tspan><tspan
         id="tspan3388"
         style="text-align:center;text-anchor:middle;stroke-width:0.26458332"
         y="247.44057"
         x="20.432173"
         sodipodi:role="line">&quot;eddies&quot;</tspan></text>
    <text
       id="text3394"
       y="235.56429"
       x="69.717018"
       style="font-style:normal;font-variant:normal;font-weight:bold;font-stretch:normal;font-size:6.3499999px;line-height:1.25;font-family:Roboto;-inkscape-font-specification:'Roboto Bold';letter-spacing:0px;word-spacing:0px;fill:#000000;fill-opacity:1;stroke:none;stroke-width:0.26458332"
       xml:space="preserve"><tspan
         style="stroke-width:0.26458332"
         y="235.56429"
         x="69.717018"
         id="tspan3392"
         sodipodi:role="line">decay</tspan></text>
    <g
       id="g3910"
       transform="translate(-77.450346,88.516379)">
      <g
         transform="matrix(0,0.76292995,-0.76292995,0,150.88815,154.54889)"
         id="g3902"
         style="fill:#1a1a1a">
        <path
           inkscape:connector-curvature="0"
           d="m 47.390484,50.279541 c -0.279221,-2.740585 -1.575733,-3.855957 -1.575733,-3.855957 -0.115113,-0.118652 -0.298218,-0.277771 -0.530457,-0.465027 0.130554,-0.14209 0.263733,-0.287964 0.4021,-0.462036 0.24237,-0.304932 0.487427,-0.659424 0.703735,-1.070251 0.529358,-1.005555 0.836685,-1.737069 0.799339,-3.970143 0.03991,-2.258697 -1.563194,-3.993969 -1.563194,-3.993969 v -4.88e-4 c -0.0049,-0.0054 -0.01758,-0.01807 -0.01758,-0.01807 -0.822266,-0.847656 -4.80957,-3.587402 -9.452148,-6.203613 -1.309082,-0.747192 -2.51001,-1.454529 -3.583985,-2.10791 2.279358,-1.382935 4.646119,-2.806458 4.646057,-2.806458 3.473999,-2.125732 6.217347,-3.515502 7.898499,-5.052185 0.155029,-0.163635 0.322693,-0.351196 0.492065,-0.563049 0.259583,-0.324646 0.521729,-0.709595 0.750244,-1.156067 0.509034,-0.994751 0.841763,-2.103128 0.76891,-3.985473 -0.08667,-2.293518 -1.557728,-3.886475 -1.557728,-3.886475 -0.0059,-0.0059 -0.01074,-0.01221 -0.01758,-0.01807 0,0 -0.171814,-0.129151 -0.471436,-0.349121 1.111878,-1.2066045 2.713501,-3.5665288 1.153809,-7.556397 -2.44e-4,-5.493e-4 -4.27e-4,-0.00116 -6.71e-4,-0.00171 C 46.106316,2.4288329 45.96331,2.0930175 45.78997,1.7424316 H 45.7232 c 0.04211,0.1550903 0.100708,0.3831177 0.149658,0.6608276 -0.07233,-0.028809 -0.149536,-0.047974 -0.231567,-0.047974 h -6.394715 l 6.11e-4,-4.883e-4 H 32.522636 C 32.029961,2.0550536 31.554802,1.7627563 31.12188,1.4890136 l -0.07324,-0.046387 h -5.687988 l 0.893066,0.9799805 c 0.0054,0.00586 0.01123,0.011719 0.01709,0.017578 l 9.77e-4,9.766e-4 c 0.822754,0.8476562 4.810058,3.5874023 9.452148,6.2036133 1.211243,0.6913452 2.333924,1.3504028 3.346558,1.963195 -1.481262,0.873657 -2.861206,1.676697 -3.277222,1.918579 v 3.06e-4 c -0.775879,0.531494 -7.510681,4.399658 -9.191833,5.93634 -0.176941,0.186706 -0.370179,0.407776 -0.563721,0.657532 -0.110169,0.142089 -0.219421,0.295227 -0.326721,0.458801 -0.645813,0.98468 -1.202967,2.295471 -1.16515,4.229126 -0.0018,2.566346 1.782581,4.413269 1.782581,4.413269 0.06744,0.06952 0.159424,0.153625 0.268128,0.247497 -0.932862,1.024292 -2.052529,3.174866 -1.736902,5.736023 0.185474,2.502243 1.675317,3.997437 1.675317,3.997437 0.764161,0.787109 4.257813,3.205078 8.471192,5.642578 h -0.002 l 0.227539,0.129883 c 0.185547,0.106445 0.373047,0.21289 0.560547,0.320312 l 0.194336,0.110352 c 1.165405,0.664978 2.244689,1.298341 3.226135,1.890747 -1.460694,0.861328 -2.813111,1.64856 -3.224487,1.887695 v 2.44e-4 c -0.775879,0.531495 -7.510682,4.399659 -9.191834,5.936341 -0.179626,0.189575 -0.376099,0.414734 -0.572632,0.669311 -0.111999,0.145142 -0.223144,0.300903 -0.33197,0.468263 -0.567749,0.872619 -1.20841,2.019531 -1.297071,3.601745 -0.160943,2.505921 1.919691,5.031005 1.919691,5.031005 0.08819,0.09088 0.225097,0.210572 0.383056,0.342469 -0.136841,0.15216 -0.278747,0.319214 -0.423156,0.504089 -0.08716,0.111572 -0.173707,0.221436 -0.259705,0.346497 -0.664917,0.96698 -1.239258,2.347961 -1.062561,4.21997 -0.01404,0.331787 -0.02368,0.661866 0.002,0.9776 l 0.02246,0.275391 h 3.151367 l -0.423828,-0.495117 c -0.344543,-0.4021 -0.590759,-0.797669 -0.778686,-1.182678 h 1.113159 2.262695 v 0.001 h 3.37146 c 0.677307,0.403076 1.376465,0.81012 2.094361,1.214844 l 0.80371,0.461914 h 7.03125 l -0.80371,-0.547851 c -1.957032,-1.333008 -4.19629,-2.712891 -6.65625,-4.09961 v -9.75e-4 c -1.248353,-0.712098 -2.402588,-1.390137 -3.439209,-2.018677 2.262695,-1.372803 4.593994,-2.774781 4.593933,-2.774781 3.473999,-2.125732 6.217346,-3.515502 7.898498,-5.052185 0.160095,-0.168945 0.333679,-0.364502 0.508667,-0.584961 0.234619,-0.295532 0.471069,-0.638732 0.682068,-1.033447 0.545898,-1.021301 0.890877,-1.972214 0.804432,-4.165344 z M 44.719902,42.61206 h -2.788086 c 0.128296,-0.167297 0.195374,-0.377075 0.197998,-0.519897 6.1e-5,-0.003 -6.71e-4,-0.0071 -6.71e-4,-0.01013 1.22e-4,-0.0049 0.004,-0.01001 0.004,-0.01489 0,-0.01831 -0.0071,-0.03259 -0.0081,-0.05035 -0.0026,-0.04834 -0.0116,-0.09875 -0.0249,-0.153992 -0.0078,-0.0304 -0.01355,-0.06213 -0.02509,-0.09064 -0.02557,-0.06732 -0.06146,-0.13501 -0.115174,-0.200135 h 3.395508 c 0.0191,0.04254 0.04657,0.08307 0.06439,0.125916 -0.183899,0.304871 -0.423645,0.610657 -0.699829,0.914123 z M 30.73925,31.644287 h 0.398132 1.12323 3.38617 c 0.282227,0 0.510742,0.233887 0.510742,0.520996 0,0.28711 -0.228515,0.520508 -0.510742,0.520508 h -1.672974 -1.160522 -2.103027 l 0.543029,-0.567749 z m -0.189636,-0.174805 v 6.11e-4 h -3.06073 c 0.355835,-0.345459 0.780151,-0.684815 1.291321,-1.010498 0.0813,-0.05182 0.177185,-0.112183 0.281738,-0.177673 0.544922,0.370239 1.144959,0.767272 1.801086,1.187561 h -0.313415 z m -2.335693,1.390748 h 2.262939 v 3.66e-4 h 2.624023 c 0.854554,0.516174 1.752991,1.042969 2.679688,1.565429 0.211548,0.120667 0.40448,0.234375 0.610535,0.353028 h -1.500794 l 6.11e-4,-4.89e-4 h -6.90149 c -0.592224,-0.597717 -1.008606,-1.240173 -1.276855,-1.918335 z m -0.05975,2.093139 h 6.272888 c -0.02441,0.03223 -0.04883,0.06738 -0.07422,0.106934 -0.01172,0.01563 -0.02246,0.03125 -0.03125,0.04883 -0.06641,0.126465 -0.102539,0.261719 -0.102539,0.390625 0,0.197265 0.05664,0.358887 0.174804,0.495117 H 29.482353 28.45623 26.568169 c -0.262696,0 -0.476563,-0.219238 -0.476563,-0.488281 v -0.06494 c 0,-0.269043 0.213867,-0.488281 0.476563,-0.488281 h 0.757934 0.828064 z m 6.75824,1.216309 -7.32e-4,-4.89e-4 h 3.846862 c 1.169007,0.702088 2.214478,1.352967 3.072388,1.918885 h -1.646973 -2.160217 v -0.0014 H 32.736813 C 31.560787,37.370365 30.54681,36.723271 29.733639,36.169682 Z m -1.887512,2.092773 h 4.672241 l -0.541077,0.56781 0.511475,0.473206 h -2.889771 -1.183532 -3.758973 c -0.280273,0 -0.508789,-0.233398 -0.508789,-0.520508 0,-0.287109 0.228516,-0.520508 0.508789,-0.520508 h 2.038269 z m 4.925598,1.216797 v -10e-4 h 5.792541 c 0.676941,0.596314 1.184082,1.236512 1.5224,1.91803 h -3.830566 l 0.0013,8.55e-4 H 38.3908 c -0.657714,-0.390808 -1.331848,-0.784241 -2.028198,-1.176636 -0.441284,-0.251892 -0.86853,-0.498596 -1.285339,-0.741211 h 2.87323 z m 3.502746,3.307983 -7.93e-4,6.11e-4 h 3.111267 c -0.38446,0.392517 -0.852051,0.778564 -1.430359,1.147034 -0.106445,0.06781 -0.225891,0.142761 -0.355164,0.223144 -0.63208,-0.4245 -1.356994,-0.890869 -2.118591,-1.370789 z m -5.593566,-12.02478 c 6.377929,3.59375 9.371093,6.091797 9.393554,6.112793 l 0.0166,0.0166 c 0.04297,0.03619 0.544433,0.602932 0.861755,1.668911 0.07947,0.7005 0.04016,1.484104 -0.372986,2.46738 -0.313354,-0.598449 -0.7229,-1.113891 -1.163147,-1.565063 0.339173,-0.03906 0.608399,-0.323914 0.608399,-0.679932 0,-0.382263 -0.306519,-0.695068 -0.681275,-0.695068 H 42.905266 C 42.102531,37.535339 41.092888,36.88678 39.92083,36.169189 h 1.405884 c 0.354614,0 0.644714,-0.295959 0.644714,-0.657775 v -0.07452 c 0,-0.361817 -0.2901,-0.657837 -0.644714,-0.657837 H 37.592278 C 37.102959,34.493042 36.601921,34.202454 36.078423,33.903564 35.43914,33.543335 34.843132,33.19751 34.271355,32.860596 h 1.375427 c 0.37793,0 0.686523,-0.312012 0.686523,-0.695313 0,-0.383789 -0.308594,-0.695801 -0.686523,-0.695801 H 31.97863 c -0.905212,-0.567749 -1.688355,-1.081909 -2.357056,-1.535339 0.643921,-0.397766 1.48291,-0.910156 2.371521,-1.450256 1.329102,0.813293 2.703858,1.614563 3.866578,2.278564 z m -6.233704,-4.507202 c -0.329224,-0.222961 -0.638428,-0.436646 -0.90155,-0.62854 -0.511963,-0.38269 -0.932496,-0.789246 -1.289368,-1.211792 h 3.062317 l -4.89e-4,3.66e-4 h 2.081482 c -0.960022,0.584168 -2.001037,1.226746 -2.952392,1.839966 z m 3.240295,-2.014771 h -1.885376 c 0.128662,-0.167419 0.195801,-0.377624 0.198426,-0.520629 0.0015,-0.08051 -0.01135,-0.183899 -0.04663,-0.290406 -8.55e-4,-0.0024 -0.0012,-0.005 -0.002,-0.0074 -0.02569,-0.07483 -0.06171,-0.150391 -0.121765,-0.223084 h 3.58313 c -0.494893,0.29805 -1.086384,0.653641 -1.725789,1.041519 z M 46.003593,14.121155 c -0.04999,0.292846 -0.126831,0.595825 -0.243408,0.909179 h -0.192322 -0.694458 -3.747192 l 0.543274,-0.567993 -0.513733,-0.47351 h 2.847656 0.817444 0.972412 c 0.08166,0 0.155945,0.02441 0.224304,0.05939 -0.0037,0.02393 -0.0099,0.04889 -0.01398,0.07294 z M 44.714958,6.7370605 c -0.437561,0.5268555 -1.005737,1.0487671 -1.776611,1.539917 -0.109192,0.06958 -0.253052,0.1582031 -0.386231,0.2409668 -0.797912,-0.550354 -1.709106,-1.1621704 -2.671569,-1.78125 h 0.929321 v 3.662e-4 z m -1.55841,6.5214845 c 0.241149,0.180237 0.459899,0.366333 0.666809,0.555481 h -2.858216 v 3.66e-4 h -1.098022 c 0.78949,-0.463928 1.526489,-0.89685 2.199707,-1.311096 0.404785,0.271118 0.776794,0.527161 1.089722,0.755249 z m 2.040039,-2.164063 0.01563,0.01611 c 0.04346,0.03638 0.528442,0.466858 0.845275,1.530884 0.03912,0.35852 0.04803,0.77478 -0.0057,1.225646 -0.08002,-0.03326 -0.166931,-0.0531 -0.258545,-0.0531 H 44.67313 c -0.369751,-0.398255 -0.768066,-0.744873 -1.160156,-1.037903 -0.260315,-0.189758 -0.564331,-0.400085 -0.887207,-0.619202 0.786743,-0.500549 1.470642,-0.98236 2.052002,-1.473388 0.33789,0.259887 0.51355,0.406006 0.518799,0.410949 z M 44.865349,6.5622559 H 41.043938 L 41.586967,5.9945069 41.072929,5.520752 h 4.41858 c -0.157654,0.3441162 -0.357911,0.692749 -0.62616,1.0415039 z M 39.265007,3.7454224 h 6.376282 c 0.115478,0 0.218383,-0.039795 0.312378,-0.094665 -0.02435,0.5175781 -0.129578,1.0955811 -0.377503,1.6951904 H 40.88311 v 6.104e-4 H 37.627373 C 37.444572,5.2381593 37.26342,5.1256715 37.080376,5.0197755 h 0.0029 L 36.805962,4.8615724 c -0.166016,-0.095215 -0.332032,-0.1899414 -0.5,-0.284668 L 36.099907,4.4592286 C 35.678276,4.218689 35.267143,3.9811402 34.862724,3.7459107 h 4.403015 z M 31.65789,2.5296021 h 1.154053 5.969421 c -0.02441,0.032227 -0.0498,0.068359 -0.0752,0.1079102 -0.0038,0.00543 -0.0069,0.011353 -0.0105,0.016846 -0.0055,0.00793 -0.01172,0.015503 -0.01617,0.02417 -7.33e-4,0.00146 -10e-4,0.00305 -0.0018,0.00452 -2.44e-4,4.883e-4 -6.11e-4,8.545e-4 -8.55e-4,0.00134 -4.27e-4,7.935e-4 -1.83e-4,0.00159 -6.1e-4,0.00238 -0.06183,0.1199341 -0.09808,0.2506714 -0.100464,0.3793945 -6.1e-5,0.00311 -0.0024,0.00623 -0.0024,0.00934 0,0.1239624 0.03107,0.2299194 0.07727,0.3283691 0.0166,0.03656 0.03925,0.072266 0.06232,0.1057129 0.01398,0.019653 0.0199,0.042847 0.03619,0.061523 h -4.185913 -1.181397 -1.958862 c -0.262695,0 -0.476563,-0.2192383 -0.476563,-0.4882812 v -0.064942 c 0,-0.269043 0.213868,-0.4882812 0.476563,-0.4882812 z m 4.362915,5.5932006 C 30.040825,4.7526855 27.037895,2.3479004 26.666313,2.0422363 h 4.208496 c 0.163697,0.1032715 0.341187,0.2125854 0.513611,0.3197021 -0.342407,0.019287 -0.616821,0.3026733 -0.616821,0.6559448 v 0.064941 c 0,0.3657227 0.291992,0.6630859 0.651367,0.6630859 h 2.25238 c 0.374939,0.2214355 0.758301,0.446106 1.1521,0.6742554 l 0.974609,0.5610352 c 0.223694,0.1260376 0.418274,0.2421265 0.633606,0.3653564 h -0.214599 c -0.37616,0 -0.683838,0.3127441 -0.683838,0.6950684 0,0.3822632 0.307678,0.6950684 0.683838,0.6950684 h 2.326538 0.247131 c 1.278443,0.777771 2.381531,1.4847412 3.268921,2.0822144 C 41.372978,9.2406006 40.52343,9.7486572 39.655632,10.262268 38.566521,9.5988159 37.348808,8.8809814 36.020805,8.1228027 Z m 1.065796,7.3497923 c 0.152954,-0.09357 0.294861,-0.177307 0.444824,-0.268066 h 1.098694 2.262757 v 6.1e-4 h 4.103698 c 0.138306,0.226135 0.257996,0.456787 0.357056,0.692505 -0.192322,0.318054 -0.442932,0.637207 -0.736084,0.953552 h -5.636414 l 6.11e-4,-4.88e-4 h -4.18103 c 1.304199,-0.787659 2.285949,-1.378113 2.285888,-1.378113 z m -2.575317,1.552918 h 4.004639 c -0.01306,0.01721 -0.02649,0.03809 -0.03967,0.05719 -0.0067,0.0099 -0.01685,0.01642 -0.02319,0.02649 -0.01398,0.02222 -0.03137,0.04211 -0.04358,0.06525 -0.06641,0.126099 -0.105407,0.264954 -0.105407,0.400818 0,0.02228 0.01233,0.03662 0.01367,0.05792 0.0063,0.09259 0.02606,0.177917 0.06024,0.255127 0.01917,0.04431 0.04602,0.0874 0.07452,0.127136 0.01196,0.0163 0.01666,0.03595 0.03021,0.05157 h -5.692382 c 0.591247,-0.358399 1.177368,-0.713074 1.720947,-1.041504 z m -2.009216,1.216308 h 6.499206 l -7.32e-4,-4.88e-4 h 3.891662 C 42.233208,18.65564 41.232109,19.258179 40.171013,19.888 h -2.492188 -2.200012 v -5.49e-4 h -5.674744 c 0.758606,-0.466797 1.722352,-1.053711 2.697999,-1.64563 z m -3.853882,2.364807 c 0.213562,-0.136047 0.514099,-0.323425 0.871887,-0.544372 h 5.672058 l -0.541199,0.567932 0.511902,0.473572 h -7.216431 c 0.214722,-0.168396 0.446656,-0.334595 0.701783,-0.497132 z m -0.905396,0.671937 h 7.663758 v -4.28e-4 h 2.405578 c -0.888306,0.520447 -1.6073,0.938904 -1.886841,1.101441 v 2.44e-4 c -0.150024,0.102783 -0.527588,0.33313 -1.043335,0.644348 h -4.402649 l 9.16e-4,6.1e-4 h -3.912109 c -0.04169,-0.09711 -0.09686,-0.190979 -0.131958,-0.289673 0.311279,-0.489685 0.741943,-0.980835 1.30664,-1.456542 z m -2.057251,5.015075 -6.1e-5,-6.1e-5 c -0.07294,-0.508728 -0.08624,-1.163391 0.06482,-1.878662 h 0.932495 c 0.497009,0.682556 1.094116,1.252625 1.68518,1.694214 0.221192,0.161377 0.462525,0.3302 0.712342,0.501892 -0.835328,0.5495 -1.555726,1.054443 -2.050232,1.456726 -0.225647,-0.176208 -0.341919,-0.273071 -0.346192,-0.276977 l -0.01709,-0.01758 c -0.05097,-0.04224 -0.5896,-0.505799 -0.981263,-1.479554 z m 11.573548,18.151428 -0.97461,-0.561523 c -6.378418,-3.59375 -9.371094,-6.091797 -9.394043,-6.112305 l -0.01709,-0.01758 c -0.129516,-0.10791 -0.684997,-0.617248 -1.058288,-1.626953 -0.10437,-0.744873 -0.105408,-1.784485 0.396118,-2.890259 0.249573,0.574524 0.578369,1.091858 0.958801,1.542115 h -0.601806 c -0.359375,0 -0.651367,0.297363 -0.651367,0.663085 v 0.06494 c 0,0.365723 0.291992,0.663086 0.651367,0.663086 h 2.120178 c 0.81488,0.588257 1.828186,1.249145 2.901916,1.916992 h -1.755004 c -0.376954,0 -0.683594,0.3125 -0.683594,0.696289 0,0.383789 0.30664,0.696289 0.683594,0.696289 h 4.055419 c 0.761719,0.449951 1.504578,0.880737 2.175049,1.263672 0.400269,0.225525 0.761719,0.437805 1.135071,0.654175 h -0.632019 c -0.358093,0 -0.651062,0.295959 -0.651062,0.657776 v 0.07452 c 0,0.361816 0.292969,0.657837 0.651062,0.657837 h 2.96936 c 1.029114,0.634155 1.9198,1.21051 2.675843,1.717468 -0.693787,0.422973 -1.55304,0.93573 -2.413086,1.444641 -0.86084,-0.522339 -1.731202,-1.035034 -2.541809,-1.504273 z m 6.160156,4.575196 c 0.272644,0.203857 0.522461,0.413635 0.751587,0.628784 h -3.105103 v 0.0013 h -1.303772 c 0.896485,-0.526306 1.702881,-1.004395 2.448853,-1.466065 0.455383,0.303162 0.864868,0.585144 1.208435,0.835938 z m -8.981201,3.825256 h 4.188171 c -0.02277,0.02978 -0.0531,0.05182 -0.07318,0.08368 -0.01398,0.02222 -0.03131,0.04211 -0.04352,0.06525 -0.06647,0.126098 -0.105469,0.264953 -0.105469,0.400818 0,0.203003 0.07928,0.355102 0.19751,0.491272 h -5.882752 c 0.584412,-0.354493 1.168335,-0.708008 1.719239,-1.041016 z m -5.594849,3.418945 c 0.09003,-0.05731 0.201355,-0.127258 0.31958,-0.201233 h 6.128418 l -0.540283,0.566956 0.511353,0.473083 H 27.7481 c 0.316712,-0.285644 0.669495,-0.567627 1.095093,-0.838806 z m -2.665588,13.693299 c 0.07263,-0.31305 0.182006,-0.636353 0.334106,-0.966126 0.151611,0.329712 0.327332,0.653687 0.549133,0.966126 z m 0.692321,-6.498047 -0.01709,-0.01758 c -0.05029,-0.04138 -0.575318,-0.493775 -0.966065,-1.439637 -0.06281,-0.413818 -0.08472,-0.932189 -0.01501,-1.500549 h 1.323913 c 0.210877,0.246704 0.429932,0.481201 0.658447,0.691467 0.03619,0.03308 0.07208,0.06689 0.108521,0.09906 0.195801,0.17395 0.394104,0.338256 0.59137,0.485595 0.250061,0.182434 0.54071,0.384033 0.848999,0.593811 -0.83075,0.545655 -1.563904,1.054627 -2.064698,1.458252 -0.298096,-0.230163 -0.463318,-0.365906 -0.468384,-0.370422 z m 5.5,-2.95697 c -0.803039,0.491638 -1.640808,1.012268 -2.420593,1.514343 -0.383911,-0.258057 -0.739319,-0.50293 -1.038879,-0.721436 -0.34076,-0.254638 -0.635865,-0.521179 -0.907654,-0.793701 h 2.595215 l -0.001,7.94e-4 h 1.772949 z m -1.79541,6.986694 h -3.025818 c 0.398987,-0.424256 0.885865,-0.842468 1.509705,-1.239929 0.09216,-0.05872 0.205505,-0.129944 0.327209,-0.206055 0.661927,0.447327 1.400452,0.931519 2.213685,1.44458 h -1.024781 v 0.0014 z m 3.002991,1.215393 h -2.842346 l 0.542785,-0.567444 -0.513794,-0.473572 h 1.113221 1.134643 2.65918 c 0.282227,0 0.510742,0.233399 0.510742,0.520508 0,0.28711 -0.228515,0.520508 -0.510742,0.520508 h -0.915283 z m 2.466736,-2.273437 9.77e-4,9.76e-4 c 2.110351,1.188477 4.05664,2.37207 5.798828,3.525391 H 36.930962 L 36.26397,69.572022 c -0.41803,-0.235535 -0.819703,-0.465699 -1.208741,-0.691407 h 0.615967 c 0.37793,0 0.686524,-0.3125 0.686524,-0.696289 0,-0.383789 -0.308594,-0.696289 -0.686524,-0.696289 h -2.942749 c -1.086731,-0.670654 -2.002502,-1.267883 -2.78125,-1.793335 0.64978,-0.401184 1.493469,-0.916138 2.379028,-1.454285 1.109986,0.677674 2.355225,1.41272 3.718018,2.19098 z m -3.386475,-6.104432 h -1.576599 c 0.128418,-0.167358 0.195557,-0.377258 0.198181,-0.52008 0.0025,-0.138611 -0.02277,-0.34137 -0.1698,-0.519959 h 3.266114 c -0.51593,0.310669 -1.102173,0.664429 -1.717896,1.040039 z m 3.545716,-2.157531 v 3.05e-4 c -0.194886,0.133484 -0.764832,0.477173 -1.535828,0.941406 h -4.089722 l 9.77e-4,6.71e-4 h -3.634399 c -0.125061,-0.23114 -0.236268,-0.465698 -0.321961,-0.70636 0.238098,-0.37677 0.543335,-0.755004 0.925965,-1.126403 h 7.930297 v -9.16e-4 h 2.252564 c -0.718872,0.420594 -1.287171,0.751343 -1.527893,0.891297 z M 40.094719,55.888 h -2.315918 -2.226746 v -5.49e-4 h -6.106811 c 0.746032,-0.463135 1.844604,-1.133423 2.983886,-1.825134 h 6.707886 l -0.0015,-9.77e-4 h 3.986267 c -0.734619,0.460511 -1.865173,1.138794 -3.027099,1.82666 z m 4.77417,-3.216796 H 39.11364 l 0.0019,-0.0015 h -4.386658 c 1.435669,-0.867371 2.552796,-1.539246 2.552735,-1.539246 0.05109,-0.03125 0.09845,-0.05902 0.149231,-0.08997 h 1.299316 2.262329 v 0.0011 h 4.30896 c 0.125244,0.211914 0.238648,0.426758 0.329529,0.647095 -0.198242,0.327759 -0.456421,0.656799 -0.762085,0.982483 z m 1.154358,-1.805359 H 45.87664 45.189446 41.226677 L 41.769524,50.29834 41.25573,49.824829 h 3.081238 0.80896 1.154357 c -0.05078,0.333008 -0.13916,0.681397 -0.277038,1.041016 z m 0.309631,-1.216797 h -1.3302 c -0.38855,-0.429016 -0.810913,-0.800537 -1.22699,-1.111206 -0.305786,-0.223267 -0.649597,-0.460388 -1.007812,-0.70221 0.783691,-0.501403 1.479431,-0.984253 2.063354,-1.474792 0.412232,0.314148 0.622254,0.489075 0.628052,0.494385 l 0.01642,0.01556 c 0.0052,0.005 0.0093,0.0093 0.01794,0.018 0.09381,0.08392 0.549499,0.535339 0.845947,1.574341 0.03607,0.349182 0.04462,0.751037 -0.0067,1.185913 z"
           id="path3900" />
      </g>
      <rect
         ry="0"
         y="167.35417"
         x="113.77083"
         height="15.875"
         width="21.166666"
         id="rect3904"
         style="opacity:1;fill:#ffffff;fill-opacity:1;stroke:#000000;stroke-width:1;stroke-miterlimit:10;stroke-dasharray:none;stroke-dashoffset:0;stroke-opacity:1" />
      <text
         id="text3908"
         y="178.20209"
         x="116.94583"
         style="font-style:normal;font-variant:normal;font-weight:bold;font-stretch:normal;font-size:8.46666622px;line-height:1.25;font-family:Roboto;-inkscape-font-specification:'Roboto Bold';letter-spacing:0px;word-spacing:0px;fill:#000000;fill-opacity:1;stroke:#000000;stroke-width:0.26458332;stroke-opacity:1"
         xml:space="preserve"><tspan
           style="stroke:#000000;stroke-width:0.26458332;stroke-opacity:1"
           y="178.20209"
           x="116.94583"
           id="tspan3906"
           sodipodi:role="line">HIV</tspan></text>
    </g>
    <path
       style="fill:none;stroke:#000000;stroke-width:1;stroke-linecap:butt;stroke-linejoin:miter;stroke-miterlimit:4;stroke-dasharray:none;stroke-opacity:1;marker-end:url(#marker4104)"
       d="m 49.652351,254.91079 v -7.9375"
       id="path4094"
       inkscape:connector-curvature="0" />
    <text
       xml:space="preserve"
       style="font-style:normal;font-variant:normal;font-weight:bold;font-stretch:normal;font-size:6.3499999px;line-height:1.25;font-family:Roboto;-inkscape-font-specification:'Roboto Bold';letter-spacing:0px;word-spacing:0px;fill:#000000;fill-opacity:1;stroke:none;stroke-width:0.26458332"
       x="137.33008"
       y="286.94577"
       id="text4198"><tspan
         sodipodi:role="line"
         id="tspan4196"
         x="137.33008"
         y="286.94577"
         style="text-align:center;text-anchor:middle;stroke-width:0.26458332">Active/Bright</tspan><tspan
         sodipodi:role="line"
         x="137.33008"
         y="294.88327"
         style="text-align:center;text-anchor:middle;stroke-width:0.26458332"
         id="tspan4200">State</tspan></text>
    <text
       xml:space="preserve"
       style="font-style:normal;font-variant:normal;font-weight:bold;font-stretch:normal;font-size:6.3499999px;line-height:1.25;font-family:Roboto;-inkscape-font-specification:'Roboto Bold';letter-spacing:0px;word-spacing:0px;fill:#000000;fill-opacity:1;stroke:none;stroke-width:0.26458332"
       x="24.89934"
       y="286.27313"
       id="text4204"><tspan
         sodipodi:role="line"
         id="tspan4202"
         x="24.89934"
         y="286.27313"
         style="stroke-width:0.26458332">Latent/Off State</tspan></text>
    <path
       style="fill:none;stroke:#000000;stroke-width:1;stroke-linecap:butt;stroke-linejoin:miter;stroke-miterlimit:4;stroke-dasharray:none;stroke-opacity:1;marker-end:url(#marker4432)"
       d="m 118.33732,221.04413 -2.64583,10.58333"
       id="path4422"
       inkscape:connector-curvature="0" />
    <path
       style="fill:none;stroke:#000000;stroke-width:1;stroke-linecap:butt;stroke-linejoin:miter;stroke-miterlimit:4;stroke-dasharray:none;stroke-opacity:1;marker-end:url(#marker4534)"
       d="m 150.08732,234.27329 -15.875,-15.875"
       id="path4524"
       inkscape:connector-curvature="0" />
    <path
       style="fill:none;stroke:#000000;stroke-width:1;stroke-linecap:butt;stroke-linejoin:miter;stroke-miterlimit:4;stroke-dasharray:none;stroke-opacity:1;marker-end:url(#marker5076)"
       d="m 60.128972,234.27329 h 7.9375"
       id="path5066"
       inkscape:connector-curvature="0" />
    <path
       style="fill:none;stroke:#000000;stroke-width:1;stroke-linecap:butt;stroke-linejoin:miter;stroke-miterlimit:4;stroke-dasharray:none;stroke-opacity:1;marker-start:url(#Arrow2Mstart);marker-end:url(#marker5196)"
       d="M 110.39982,271.31496 H 73.358139"
       id="path5168"
       inkscape:connector-curvature="0" />
  </g>
</svg>
