<svg xmlns="http://www.w3.org/2000/svg" xmlns:xlink="http://www.w3.org/1999/xlink" version="1.1" x="0px" y="0px" viewBox="0 0 100 100" enable-background="new 0 0 100 100" xml:space="preserve"><path d="M33.06,65.863l-0.044-3.328c-0.064,0-0.128-0.001-0.192-0.001c-7.211,0-15.407,0.384-19.992,4.968  c-0.313,0.313-0.486,0.731-0.487,1.176s0.173,0.863,0.489,1.179c0.314,0.313,0.731,0.484,1.176,0.484  c0.444,0,0.861-0.172,1.177-0.486c3.682-3.684,11.105-3.991,17.663-3.991C32.918,65.863,32.99,65.863,33.06,65.863z"></path><path d="M69.099,15.941c0.647-0.649,0.646-1.703-0.001-2.353c-0.627-0.627-1.719-0.629-2.354,0  c-6.981,6.984-5.962,15.381-4.977,23.505c0.949,7.802,1.845,15.171-4.206,21.223c-3.929,3.929-11.473,4.258-18.236,4.258  c-0.158,0-0.316-0.003-0.473-0.003v3.327c0.157,0,0.315,0.004,0.472,0.004c7.43,0,15.76-0.405,20.588-5.232  c7.199-7.198,6.161-15.728,5.157-23.979C64.14,29.022,63.262,21.778,69.099,15.941z"></path><path d="M41.942,42.699c3.338-3.339,7.226-4.828,12.605-4.828c2.021,0,4.081,0.199,6.223,0.455l-0.474-3.402  c-1.897-0.213-3.816-0.373-5.716-0.373c-6.275,0-11.039,1.841-14.991,5.795c-5.376,5.377-5.293,14.807-5.213,23.953  c0.073,8.188,0.147,16.655-3.972,20.775c-0.648,0.648-0.648,1.702,0,2.353c0.313,0.314,0.73,0.487,1.176,0.487  c0.444,0,0.863-0.173,1.176-0.487c5.107-5.106,5.026-14.285,4.948-23.175C37.629,55.814,37.551,47.089,41.942,42.699z"></path><path d="M86.668,31.16c-0.628-0.626-1.72-0.628-2.353,0.001c-3.354,3.354-7.255,4.85-12.649,4.85c-1.859,0-3.752-0.169-5.706-0.395  l0.394,3.389c1.755,0.187,3.523,0.324,5.277,0.324c6.293,0,11.07-1.849,15.037-5.815c0.314-0.314,0.488-0.733,0.488-1.179  C87.156,31.891,86.982,31.474,86.668,31.16z"></path><path d="M39.44,53.878c-0.441,0.531-0.368,1.319,0.163,1.761l5.962,4.954c0.233,0.193,0.517,0.288,0.798,0.288  c0.358,0,0.715-0.153,0.962-0.451c0.441-0.531,0.368-1.319-0.163-1.761L41.2,53.715C40.67,53.276,39.882,53.346,39.44,53.878z"></path><path d="M51.11,59.46c0.336,0,0.672-0.135,0.918-0.401c0.469-0.507,0.438-1.298-0.069-1.767l-9.494-8.774  c-0.507-0.469-1.298-0.437-1.767,0.069c-0.469,0.507-0.438,1.298,0.069,1.767l9.494,8.774C50.502,59.351,50.807,59.46,51.11,59.46z"></path><path d="M55.198,57.684c0.324,0,0.648-0.126,0.894-0.376c0.482-0.493,0.475-1.284-0.02-1.768L44.474,44.188  c-0.494-0.481-1.284-0.473-1.768,0.019c-0.483,0.494-0.474,1.285,0.019,1.768l11.599,11.352  C54.567,57.565,54.883,57.684,55.198,57.684z"></path><path d="M57.862,54.307c0.324,0,0.647-0.125,0.893-0.374c0.483-0.493,0.476-1.284-0.017-1.769L48.175,41.798  c-0.492-0.483-1.283-0.475-1.768,0.017c-0.483,0.493-0.476,1.284,0.017,1.768l10.563,10.367  C57.23,54.188,57.546,54.307,57.862,54.307z"></path><path d="M60.405,49.439c0.482-0.493,0.474-1.285-0.02-1.768l-7.917-7.747c-0.493-0.481-1.284-0.474-1.768,0.02  c-0.482,0.493-0.475,1.285,0.02,1.768l7.917,7.747c0.243,0.238,0.559,0.356,0.874,0.356C59.836,49.815,60.16,49.69,60.405,49.439z"></path><path d="M60.387,41.671l-2.362-2.318c-0.492-0.483-1.283-0.477-1.768,0.017c-0.483,0.493-0.476,1.284,0.018,1.768l2.362,2.318  c0.243,0.239,0.559,0.358,0.875,0.358c0.324,0,0.647-0.125,0.893-0.375C60.888,42.946,60.88,42.155,60.387,41.671z"></path><path d="M29.955,80.948L19.392,70.581c-0.492-0.481-1.283-0.475-1.768,0.017c-0.483,0.493-0.476,1.284,0.017,1.769l10.563,10.367  c0.243,0.238,0.56,0.357,0.875,0.357c0.324,0,0.647-0.125,0.892-0.374C30.455,82.224,30.447,81.433,29.955,80.948z"></path><path d="M21.918,68.728c-0.483,0.493-0.474,1.284,0.02,1.768l7.916,7.746c0.243,0.238,0.559,0.356,0.874,0.356  c0.324,0,0.648-0.126,0.894-0.376c0.483-0.493,0.474-1.284-0.02-1.768l-7.916-7.746C23.193,68.226,22.403,68.234,21.918,68.728z"></path><path d="M30.728,72.598c0.324,0,0.647-0.125,0.892-0.374c0.483-0.493,0.476-1.284-0.017-1.768l-2.362-2.318  c-0.492-0.484-1.284-0.477-1.768,0.016c-0.483,0.493-0.476,1.284,0.017,1.768l2.362,2.318  C30.095,72.479,30.412,72.598,30.728,72.598z"></path><path d="M68.342,19.292c-0.483,0.493-0.476,1.284,0.017,1.768l10.563,10.368c0.244,0.239,0.56,0.358,0.876,0.358  c0.324,0,0.647-0.125,0.893-0.375c0.483-0.493,0.476-1.284-0.017-1.768L70.11,19.276C69.616,18.792,68.826,18.8,68.342,19.292z"></path><path d="M75.502,33.658c0.324,0,0.648-0.125,0.894-0.375c0.482-0.494,0.474-1.285-0.02-1.768l-7.917-7.748  c-0.493-0.482-1.283-0.474-1.768,0.019c-0.482,0.494-0.475,1.285,0.02,1.768l7.917,7.748C74.871,33.539,75.187,33.658,75.502,33.658  z"></path><path d="M66.692,29.787c-0.483,0.493-0.476,1.284,0.018,1.768l2.362,2.318c0.243,0.239,0.559,0.358,0.875,0.358  c0.324,0,0.647-0.125,0.893-0.375c0.483-0.493,0.476-1.284-0.018-1.768L68.46,29.77C67.968,29.286,67.177,29.294,66.692,29.787z"></path></svg>