<?xml version="1.0" encoding="UTF-8" standalone="no"?>
<svg
   xmlns:dc="http://purl.org/dc/elements/1.1/"
   xmlns:cc="http://creativecommons.org/ns#"
   xmlns:rdf="http://www.w3.org/1999/02/22-rdf-syntax-ns#"
   xmlns:svg="http://www.w3.org/2000/svg"
   xmlns="http://www.w3.org/2000/svg"
   xmlns:sodipodi="http://sodipodi.sourceforge.net/DTD/sodipodi-0.dtd"
   xmlns:inkscape="http://www.inkscape.org/namespaces/inkscape"
   version="1.1"
   x="0px"
   y="0px"
   viewBox="0 0 100 100"
   enable-background="new 0 0 100 100"
   xml:space="preserve"
   id="svg925"
   sodipodi:docname="rna.svg"
   inkscape:version="0.92.2 5c3e80d, 2017-08-06"><metadata
     id="metadata931"><rdf:RDF><cc:Work
         rdf:about=""><dc:format>image/svg+xml</dc:format><dc:type
           rdf:resource="http://purl.org/dc/dcmitype/StillImage" /><dc:title></dc:title></cc:Work></rdf:RDF></metadata><defs
     id="defs929" /><sodipodi:namedview
     pagecolor="#ffffff"
     bordercolor="#666666"
     borderopacity="1"
     objecttolerance="10"
     gridtolerance="10"
     guidetolerance="10"
     inkscape:pageopacity="0"
     inkscape:pageshadow="2"
     inkscape:window-width="1392"
     inkscape:window-height="862"
     id="namedview927"
     showgrid="true"
     inkscape:zoom="4.5466966"
     inkscape:cx="57.730269"
     inkscape:cy="50"
     inkscape:window-x="0"
     inkscape:window-y="0"
     inkscape:window-maximized="0"
     inkscape:current-layer="svg925"><inkscape:grid
       type="xygrid"
       id="grid933" /></sodipodi:namedview><path
     d="M41.942,42.699c3.338-3.339,7.226-4.828,12.605-4.828c2.021,0,4.081,0.199,6.223,0.455l-0.474-3.402  c-1.897-0.213-3.816-0.373-5.716-0.373c-6.275,0-11.039,1.841-14.991,5.795c-5.376,5.377-5.293,14.807-5.213,23.953  c0.073,8.188,0.147,16.655-3.972,20.775c-0.648,0.648-0.648,1.702,0,2.353c0.313,0.314,0.73,0.487,1.176,0.487  c0.444,0,0.863-0.173,1.176-0.487c5.107-5.106,5.026-14.285,4.948-23.175C37.629,55.814,37.551,47.089,41.942,42.699z"
     id="path897" /><path
     d="m 86.668,31.16 c -0.628,-0.626 -1.72,-0.628 -2.353,0.001 -3.354,3.354 -7.255,4.85 -12.649,4.85 -1.859,0 -10.106,-0.940719 -12.06,-1.166719 l 0.394,3.389 c 1.755,0.187 9.877,1.095719 11.631,1.095719 6.293,0 11.07,-1.849 15.037,-5.815 0.314,-0.314 0.488,-0.733 0.488,-1.179 0,-0.444 -0.174,-0.861 -0.488,-1.175 z"
     id="path899"
     inkscape:connector-curvature="0"
     sodipodi:nodetypes="ccsccscsc" /><path
     d="M60.387,41.671l-2.362-2.318c-0.492-0.483-1.283-0.477-1.768,0.017c-0.483,0.493-0.476,1.284,0.018,1.768l2.362,2.318  c0.243,0.239,0.559,0.358,0.875,0.358c0.324,0,0.647-0.125,0.893-0.375C60.888,42.946,60.88,42.155,60.387,41.671z"
     id="path911" /><path
     d="m 30.728,72.598 c 0.324,0 0.647,-0.125 0.892,-0.374 0.483,-0.493 0.476,-1.284 -0.017,-1.768 l -2.362,-2.318 c -0.492,-0.484 -1.284,-0.477 -1.768,0.016 -0.483,0.493 -0.476,1.284 0.017,1.768 l 2.362,2.318 c 0.243,0.239 0.56,0.358 0.876,0.358 z"
     id="path917"
     inkscape:connector-curvature="0" /><path
     d="M66.692,29.787c-0.483,0.493-0.476,1.284,0.018,1.768l2.362,2.318c0.243,0.239,0.559,0.358,0.875,0.358  c0.324,0,0.647-0.125,0.893-0.375c0.483-0.493,0.476-1.284-0.018-1.768L68.46,29.77C67.968,29.286,67.177,29.294,66.692,29.787z"
     id="path923" /><path
     id="path935"
     d="m 72.274925,29.21994 c -0.483,0.493 -0.476,1.284 0.018,1.768 l 2.362,2.318 c 0.243,0.239 0.559,0.358 0.875,0.358 0.324,0 0.647,-0.125 0.893,-0.375 0.483,-0.493 0.476,-1.284 -0.018,-1.768 l -2.362,-2.318 c -0.492,-0.484 -1.283,-0.476 -1.768,0.017 z"
     inkscape:connector-curvature="0" /><path
     inkscape:connector-curvature="0"
     d="m 76.65982,27.43988 c -0.483,0.493 -0.476,1.284 0.018,1.768 l 2.362,2.318 c 0.243,0.239 0.559,0.358 0.875,0.358 0.324,0 0.647,-0.125 0.893,-0.375 0.483,-0.493 0.476,-1.284 -0.018,-1.768 l -2.362,-2.318 c -0.492,-0.484 -1.283,-0.476 -1.768,0.017 z"
     id="path937" /><path
     inkscape:connector-curvature="0"
     id="path951"
     d="m 30.728,78.598 c 0.324,0 0.647,-0.125 0.892,-0.374 0.483,-0.493 0.476,-1.284 -0.017,-1.768 l -2.362,-2.318 c -0.492,-0.484 -1.284,-0.477 -1.768,0.016 -0.483,0.493 -0.476,1.284 0.017,1.768 l 2.362,2.318 c 0.243,0.239 0.56,0.358 0.876,0.358 z" /><path
     d="m 29,83 c 0.324,0 0.647,-0.125 0.892,-0.374 0.483,-0.493 0.476,-1.284 -0.017,-1.768 L 27.513,78.54 c -0.492,-0.484 -1.284,-0.477 -1.768,0.016 -0.483,0.493 -0.476,1.284 0.017,1.768 l 2.362,2.318 C 28.367,82.881 28.684,83 29,83 Z"
     id="path953"
     inkscape:connector-curvature="0" /><path
     id="path955"
     d="m 54.49697,42.00091 -2.362,-2.318 c -0.492,-0.483 -1.283,-0.477 -1.768,0.017 -0.483,0.493 -0.476,1.284 0.018,1.768 l 2.362,2.318 c 0.243,0.239 0.559,0.358 0.875,0.358 0.324,0 0.647,-0.125 0.893,-0.375 0.483,-0.493 0.475,-1.284 -0.018,-1.768 z"
     inkscape:connector-curvature="0" /><path
     inkscape:connector-curvature="0"
     d="m 50.49697,44.00091 -2.362,-2.318 c -0.492,-0.483 -1.283,-0.477 -1.768,0.017 -0.483,0.493 -0.476,1.284 0.018,1.768 l 2.362,2.318 c 0.243,0.239 0.559,0.358 0.875,0.358 0.324,0 0.647,-0.125 0.893,-0.375 0.483,-0.493 0.475,-1.284 -0.018,-1.768 z"
     id="path957" /><path
     id="path959"
     d="m 46.49697,46.00091 -2.362,-2.318 c -0.492,-0.483 -1.283,-0.477 -1.768,0.017 -0.483,0.493 -0.476,1.284 0.018,1.768 l 2.362,2.318 c 0.243,0.239 0.559,0.358 0.875,0.358 0.324,0 0.647,-0.125 0.893,-0.375 0.483,-0.493 0.475,-1.284 -0.018,-1.768 z"
     inkscape:connector-curvature="0" /><path
     inkscape:connector-curvature="0"
     d="m 44.67009,50.78006 -2.362,-2.318 c -0.492,-0.483 -1.283,-0.477 -1.768,0.017 -0.483,0.493 -0.476,1.284 0.018,1.768 l 2.362,2.318 c 0.243,0.239 0.559,0.358 0.875,0.358 0.324,0 0.647,-0.125 0.893,-0.375 0.483,-0.493 0.475,-1.284 -0.018,-1.768 z"
     id="path961" /><path
     id="path963"
     d="m 43.65982,56 -2.362,-2.318 c -0.492,-0.483 -1.283,-0.477 -1.768,0.017 -0.483,0.493 -0.476,1.284 0.018,1.768 l 2.362,2.318 c 0.243,0.239 0.559,0.358 0.875,0.358 0.324,0 0.647,-0.125 0.893,-0.375 0.483,-0.493 0.475,-1.284 -0.018,-1.768 z"
     inkscape:connector-curvature="0" /></svg>