<svg xmlns="http://www.w3.org/2000/svg" xmlns:xlink="http://www.w3.org/1999/xlink" version="1.1" x="0px" y="0px" viewBox="0 0 512 512" enable-background="new 0 0 512 512" xml:space="preserve"><g><path d="M256.001,0.008c-0.031,0-0.047,0-0.063,0h0.125C256.032,0.008,256.001,0.008,256.001,0.008z"></path><path d="M335.356,353.65c97.542,0,176.632-79.186,176.632-176.868c0-97.622-79.09-176.775-176.632-176.775   c-0.031,0-0.078,0-0.078,0h0.078v176.775H107.133L57.995,127.66c0.016-0.438,0.031-0.875,0.031-1.281   c0-16.031-12.969-29.062-29.016-29.062c-15.999,0-28.999,13.031-28.999,29.062c0,16.031,13,29.062,28.999,29.062   c0.406,0,0.813,0,1.203-0.031l51.764,51.811c13.687,79.215,80.12,140.432,161.789,145.963l14.327,12.063l-19.5,16.344   c-11.688-8.219-25.921-13.063-41.311-13.063c-39.607,0-71.685,32.125-71.685,71.719c0,39.623,32.077,71.746,71.685,71.746   c39.561,0,71.652-32.123,71.652-71.746c0-9.939-2.031-19.439-5.688-28.064l25.373-21.311l25.343,21.311   c-3.654,8.625-5.688,18.125-5.688,28.064c0,39.623,32.093,71.746,71.653,71.746c39.592,0,71.715-32.123,71.715-71.746   c0-39.594-32.123-71.719-71.715-71.719c-15.374,0-29.624,4.846-41.279,13.063l-19.515-16.344l13.825-11.623   C333.763,353.65,334.544,353.65,335.356,353.65z M197.285,472.74c-17.874,0-32.437-14.563-32.437-32.498   c0-17.938,14.563-32.438,32.437-32.438s32.404,14.498,32.404,32.438C229.689,458.18,215.159,472.74,197.285,472.74z    M379.933,407.807c17.903,0,32.436,14.498,32.436,32.438c0,17.938-14.53,32.498-32.436,32.498   c-17.844,0-32.405-14.563-32.405-32.498C347.527,422.305,362.09,407.807,379.933,407.807z"></path></g></svg>