<svg height="300px" width="300px" fill="#000000" xmlns="http://www.w3.org/2000/svg" xmlns:xlink="http://www.w3.org/1999/xlink" version="1.1" x="0px" y="0px" viewBox="0 0 178.501 249.115" style="enable-background:new 0 0 178.501 249.115;" xml:space="preserve"><g><path d="M175.952,2.145c-3.234-3.011-8.296-2.83-11.307,0.404l-55.929,60.089c-0.05-0.001-0.098-0.008-0.147-0.008H69.934   c-0.051,0-0.099,0.007-0.149,0.008L13.856,2.548C10.845-0.685,5.785-0.866,2.55,2.145c-3.234,3.01-3.417,8.071-0.406,11.306   L62.206,77.98v158.771c0,6.83,5.537,12.363,12.363,12.363c6.828,0,12.365-5.533,12.365-12.363V146.48h4.635v90.271   c0,6.83,5.537,12.363,12.363,12.363c6.828,0,12.365-5.533,12.365-12.363V77.977l60.059-64.525   C179.368,10.217,179.185,5.156,175.952,2.145z"/><circle cx="89.251" cy="34.066" r="22.5"/></g></svg>