<svg height="300px" width="300px" fill="#000000" xmlns:dc="http://purl.org/dc/elements/1.1/" xmlns:cc="http://creativecommons.org/ns#" xmlns:rdf="http://www.w3.org/1999/02/22-rdf-syntax-ns#" xmlns:svg="http://www.w3.org/2000/svg" xmlns="http://www.w3.org/2000/svg" xmlns:sodipodi="http://sodipodi.sourceforge.net/DTD/sodipodi-0.dtd" xmlns:inkscape="http://www.inkscape.org/namespaces/inkscape" viewBox="0 0 100 100" version="1.1" x="0px" y="0px"><g transform="translate(0,-952.36216)"><path style="" d="m 49.980707,957.36219 c -4.04468,0 -7.334293,3.2896 -7.334293,7.33429 0.0011,4.06992 3.290698,7.33429 7.334293,7.33429 4.069926,0 7.368565,-3.26437 7.368565,-7.33429 0,-4.04469 -3.298639,-7.33429 -7.368565,-7.33429 z m -8.634505,14.21662 a 2.8791691,2.8791691 0 0 0 -2.60899,1.81643 l -2.953842,7.14152 -2.666831,-5.66352 a 2.8794027,2.8794027 0 0 0 -5.209404,2.45476 l 5.442895,11.55408 a 2.8791691,2.8791691 0 0 0 5.265095,-0.12638 l 1.426587,-3.44866 0,24.04636 0,33.8375 a 4.1130987,4.1130987 0 1 0 8.225375,0 l 0,-33.8375 3.461512,0 0,33.8375 a 4.1130987,4.1130987 0 1 0 8.225375,0 l 0,-36.3115 0,-21.57236 1.426587,3.44866 a 2.8791691,2.8791691 0 0 0 5.265095,0.12638 L 72.08854,977.328 a 2.8794027,2.8794027 0 1 0 -5.209404,-2.45476 l -2.66682,5.66352 -2.953853,-7.14152 a 2.8791691,2.8791691 0 0 0 -2.696804,-1.81643 c -1.388509,0 -2.142589,0.31414 -2.962429,0.81183 -1.579733,1.14662 -3.51773,1.83357 -5.62495,1.83357 -1.959328,0 -3.77639,-0.59705 -5.290802,-1.61294 l 0.0022,0.011 c -0.987396,-0.63883 -1.739173,-1.03844 -3.337276,-1.03888 l -0.0022,0 0,-0.004 z m 8.446001,9.9347 c 0.487655,-0.0142 0.980903,0.0259 1.482289,0.1221 0.508252,0.0888 0.995951,0.23556 1.462998,0.43484 0.467048,0.19225 0.903541,0.43899 1.308778,0.74114 0.412102,0.30225 0.772648,0.65897 1.081725,1.07101 0.309065,0.41203 0.553995,0.87884 0.732574,1.40088 0.185443,0.52192 0.283994,1.09883 0.297736,1.73076 0.01371,0.67305 -0.07929,1.32979 -0.278467,1.96852 -0.199186,0.63883 -0.510215,1.225 -0.936059,1.76074 -0.425844,0.52884 -0.968587,0.99009 -1.627944,1.38161 -0.652492,0.39153 -1.432465,0.67623 -2.339088,0.85466 l 0.04069,2.51688 c -0.0066,0.17175 -0.09191,0.3159 -0.257038,0.4327 -0.157971,0.1168 -0.357244,0.20209 -0.597633,0.25704 -0.233524,0.0559 -0.491658,0.0805 -0.773262,0.0728 -0.274739,-0.011 -0.532884,-0.0452 -0.773273,-0.11352 -0.233524,-0.0691 -0.428948,-0.16938 -0.586919,-0.29989 -0.157982,-0.13742 -0.239468,-0.30801 -0.246334,-0.51408 l -0.08357,-3.51507 0,-0.002 c -0.0066,-0.26793 0.02577,-0.48811 0.09421,-0.65974 0.07556,-0.17175 0.174104,-0.30829 0.297737,-0.41127 0.130498,-0.10989 0.282394,-0.18962 0.454107,-0.23777 0.178578,-0.0548 0.370163,-0.095 0.576214,-0.1221 0.542579,-0.0625 1.030289,-0.17227 1.462999,-0.32987 0.432709,-0.16484 0.80477,-0.37565 1.113847,-0.62976 0.309066,-0.2541 0.551857,-0.55578 0.730435,-0.90607 0.178579,-0.35029 0.280979,-0.74498 0.308452,-1.18454 0.02062,-0.34338 -0.03608,-0.67541 -0.173501,-0.99818 -0.137364,-0.32967 -0.336626,-0.61807 -0.597634,-0.86538 -0.25412,-0.24731 -0.557921,-0.44484 -0.908213,-0.58906 -0.35028,-0.15112 -0.724063,-0.22325 -1.122423,-0.21634 -0.446441,0.011 -0.844966,0.0912 -1.195246,0.24847 -0.35028,0.15113 -0.648105,0.35423 -0.89537,0.60834 -0.247255,0.24731 -0.440979,0.53191 -0.578343,0.85467 -0.130509,0.32276 -0.204307,0.65303 -0.224915,0.98961 -0.0066,0.15113 -0.0941,0.27996 -0.259187,0.38985 -0.157971,0.10309 -0.357233,0.18281 -0.597623,0.23776 -0.233523,0.0548 -0.487819,0.0845 -0.762558,0.0921 -0.274727,0.011 -0.530745,-0.011 -0.771134,-0.0514 -0.233524,-0.0406 -0.428926,-0.10551 -0.586908,-0.19492 -0.151105,-0.0888 -0.227053,-0.20707 -0.227053,-0.35129 0,-0.64564 0.076,-1.23572 0.227053,-1.77146 0.157982,-0.54255 0.374299,-1.03415 0.649026,-1.47371 0.274739,-0.43957 0.597316,-0.82274 0.968203,-1.15241 0.377765,-0.33658 0.785655,-0.61941 1.22523,-0.8461 0.446441,-0.23349 0.913236,-0.408 1.400891,-0.5248 0.487655,-0.1236 0.983031,-0.19192 1.484417,-0.20563 z m -0.37057,16.19158 c 0.473914,-0.0139 0.864762,0.0774 1.173827,0.26989 0.315964,0.18542 0.553184,0.4205 0.711155,0.709 0.164848,0.28844 0.246334,0.60551 0.246334,0.94893 0.0066,0.34343 -0.06547,0.66209 -0.216339,0.95749 -0.151105,0.2953 -0.380659,0.5441 -0.689736,0.7432 -0.3022,0.1992 -0.683671,0.2978 -1.143842,0.2978 -0.418979,0 -0.771826,-0.093 -1.060306,-0.2785 -0.288458,-0.1923 -0.512474,-0.4335 -0.670445,-0.7218 -0.151105,-0.2886 -0.232602,-0.5956 -0.246333,-0.92536 -0.0066,-0.33647 0.05396,-0.64971 0.184215,-0.93821 0.137375,-0.29531 0.348153,-0.54191 0.629746,-0.74114 0.281604,-0.1991 0.642149,-0.30748 1.081724,-0.3213 z" fill="#000000"/></g></svg>