<?xml version="1.0" encoding="UTF-8" standalone="no"?>
<svg
   xmlns:dc="http://purl.org/dc/elements/1.1/"
   xmlns:cc="http://creativecommons.org/ns#"
   xmlns:rdf="http://www.w3.org/1999/02/22-rdf-syntax-ns#"
   xmlns:svg="http://www.w3.org/2000/svg"
   xmlns="http://www.w3.org/2000/svg"
   xmlns:sodipodi="http://sodipodi.sourceforge.net/DTD/sodipodi-0.dtd"
   xmlns:inkscape="http://www.inkscape.org/namespaces/inkscape"
   version="1.1"
   x="0px"
   y="0px"
	 height="100"
	 width="100"
   viewBox="0 0 100 100"
   enable-background="new 0 0 100 100"
   xml:space="preserve"
   id="svg10756"
   sodipodi:docname="breeding.svg"
   inkscape:version="0.92.2 5c3e80d, 2017-08-06"><metadata
     id="metadata10762"><rdf:RDF><cc:Work
         rdf:about=""><dc:format>image/svg+xml</dc:format><dc:type
           rdf:resource="http://purl.org/dc/dcmitype/StillImage" /></cc:Work></rdf:RDF></metadata><defs
     id="defs10760" /><sodipodi:namedview
     pagecolor="#ffffff"
     bordercolor="#666666"
     borderopacity="1"
     objecttolerance="10"
     gridtolerance="10"
     guidetolerance="10"
     inkscape:pageopacity="0"
     inkscape:pageshadow="2"
     inkscape:window-width="744"
     inkscape:window-height="480"
     id="namedview10758"
     showgrid="false"
     inkscape:zoom="2.36"
     inkscape:cx="51.271186"
     inkscape:cy="50"
     inkscape:window-x="0"
     inkscape:window-y="0"
     inkscape:window-maximized="0"
     inkscape:current-layer="svg10756" /><g
     id="g10670"
     style="fill:#fec22f;fill-opacity:1"><path
       fill="none"
       d="M14.651,79.763c0,0.592,0.48,1.072,1.072,1.072c0.592,0,1.072-0.48,1.072-1.072S14.651,79.171,14.651,79.763z"
       id="path10666"
       style="fill:#fec22f;fill-opacity:1" /><path
       fill="#000000"
       d="M24.535,90.614h-0.138c-0.192,0-0.371,0.061-0.518,0.163c-0.272-3.452-2.567-6.335-5.701-7.462   c1.483-0.833,2.486-2.418,2.486-4.239c0-1.797-0.978-3.362-2.427-4.203c0.288-0.42,0.543-0.87,0.757-1.352   c0.706-1.591,0.878-3.283,0.594-4.876c-0.064-0.358-0.502-0.515-0.781-0.281c-0.923,0.773-1.691,1.759-2.227,2.922   c-0.204-1.199-0.658-2.313-1.312-3.282c-0.204-0.302-0.668-0.267-0.828,0.06c-0.547,1.115-0.854,2.369-0.854,3.695   c0,0.977,0.172,1.912,0.478,2.784c-1.824,0.7-3.122,2.464-3.122,4.535c0,1.891,1.083,3.526,2.66,4.33   c-0.559,0.47-0.916,1.174-0.916,1.962v5.284c-0.079-0.022-0.16-0.038-0.246-0.038h-0.138c-0.505,0-0.918,0.413-0.918,0.918v1.51   c0,0.505,0.413,0.918,0.918,0.918h0.138c0.086,0,0.167-0.016,0.246-0.038v0.038h10.006c0.374,0,0.704-0.172,0.927-0.438   c0.162,0.261,0.449,0.438,0.778,0.438h0.138c0.505,0,0.918-0.413,0.918-0.918v-1.51C25.453,91.027,25.04,90.614,24.535,90.614z    M16.795,79.763c0,0.592-0.48,1.072-1.072,1.072c-0.592,0-1.072-0.48-1.072-1.072S16.795,79.171,16.795,79.763z"
       id="path10668"
       style="fill:#fec22f;fill-opacity:1" /></g><g
     id="g10676"
     style="fill:#fec22f;fill-opacity:1"><path
       fill="none"
       d="M30.63,79.72c0,0.592,0.48,1.072,1.072,1.072c0.592,0,1.072-0.48,1.072-1.072S30.63,79.128,30.63,79.72z"
       id="path10672"
       style="fill:#fec22f;fill-opacity:1" /><path
       fill="#000000"
       d="M40.515,90.572h-0.138c-0.192,0-0.371,0.061-0.518,0.163c-0.272-3.452-2.567-6.335-5.701-7.462   c1.483-0.833,2.486-2.418,2.486-4.239c0-1.797-0.978-3.362-2.427-4.203c0.288-0.42,0.543-0.87,0.757-1.352   c0.706-1.591,0.878-3.283,0.594-4.876c-0.064-0.358-0.502-0.515-0.781-0.281c-0.923,0.773-1.691,1.759-2.227,2.922   c-0.204-1.199-0.658-2.313-1.312-3.282c-0.204-0.302-0.668-0.267-0.828,0.06c-0.547,1.115-0.854,2.369-0.854,3.695   c0,0.977,0.172,1.912,0.478,2.784c-1.824,0.7-3.122,2.464-3.122,4.535c0,1.891,1.083,3.526,2.66,4.33   c-0.559,0.47-0.916,1.174-0.916,1.962v5.284c-0.079-0.022-0.16-0.038-0.246-0.038h-0.138c-0.505,0-0.918,0.413-0.918,0.918v1.51   c0,0.505,0.413,0.918,0.918,0.918h0.138c0.086,0,0.167-0.016,0.246-0.038v0.038h10.006c0.374,0,0.704-0.172,0.927-0.438   c0.162,0.261,0.449,0.438,0.778,0.438h0.138c0.505,0,0.918-0.413,0.918-0.918v-1.51C41.432,90.984,41.02,90.572,40.515,90.572z    M32.775,79.72c0,0.592-0.48,1.072-1.072,1.072c-0.592,0-1.072-0.48-1.072-1.072S32.775,79.128,32.775,79.72z"
       id="path10674"
       style="fill:#fec22f;fill-opacity:1" /></g><g
     id="g10682"
     style="fill:#fec22f;fill-opacity:1"><path
       fill="none"
       d="M46.61,79.678c0,0.592,0.48,1.072,1.072,1.072c0.592,0,1.072-0.48,1.072-1.072   C48.754,79.086,46.61,79.086,46.61,79.678z"
       id="path10678"
       style="fill:#fec22f;fill-opacity:1" /><path
       fill="#000000"
       d="M56.494,90.529h-0.138c-0.192,0-0.371,0.061-0.518,0.163c-0.272-3.452-2.567-6.335-5.701-7.462   c1.483-0.833,2.486-2.418,2.486-4.239c0-1.797-0.978-3.362-2.427-4.203c0.288-0.42,0.543-0.87,0.757-1.352   c0.706-1.591,0.878-3.283,0.594-4.876c-0.064-0.358-0.502-0.515-0.781-0.281c-0.923,0.773-1.691,1.759-2.227,2.922   c-0.204-1.199-0.658-2.313-1.312-3.282c-0.204-0.302-0.668-0.267-0.828,0.06c-0.547,1.115-0.854,2.369-0.854,3.695   c0,0.977,0.172,1.912,0.478,2.784c-1.824,0.7-3.122,2.464-3.122,4.535c0,1.891,1.083,3.526,2.66,4.33   c-0.559,0.47-0.916,1.174-0.916,1.962v5.284c-0.079-0.022-0.16-0.038-0.246-0.038h-0.138c-0.505,0-0.918,0.413-0.918,0.918v1.51   c0,0.505,0.413,0.918,0.918,0.918h0.138c0.086,0,0.167-0.016,0.246-0.038v0.038h10.006c0.374,0,0.704-0.172,0.927-0.438   c0.162,0.261,0.449,0.438,0.778,0.438h0.138c0.505,0,0.918-0.413,0.918-0.918v-1.51C57.412,90.942,56.999,90.529,56.494,90.529z    M48.754,79.678c0,0.592-0.48,1.072-1.072,1.072c-0.592,0-1.072-0.48-1.072-1.072C46.61,79.086,48.754,79.086,48.754,79.678z"
       id="path10680"
       style="fill:#fec22f;fill-opacity:1" /></g><g
     id="g10688"
     style="fill:#fec22f;fill-opacity:1"><path
       fill="none"
       d="M62.589,79.635c0,0.592,0.48,1.072,1.072,1.072c0.592,0,1.072-0.48,1.072-1.072   C64.734,79.043,62.589,79.043,62.589,79.635z"
       id="path10684"
       style="fill:#fec22f;fill-opacity:1" /><path
       fill="#000000"
       d="M72.474,90.487h-0.138c-0.192,0-0.371,0.061-0.518,0.163c-0.272-3.452-2.567-6.335-5.701-7.462   c1.483-0.833,2.486-2.418,2.486-4.239c0-1.797-0.978-3.362-2.427-4.203c0.288-0.42,0.543-0.87,0.757-1.352   c0.706-1.591,0.878-3.283,0.594-4.876c-0.064-0.358-0.502-0.515-0.781-0.281c-0.923,0.773-1.691,1.759-2.227,2.922   c-0.204-1.199-0.658-2.313-1.312-3.282c-0.204-0.302-0.668-0.267-0.828,0.06c-0.547,1.115-0.854,2.369-0.854,3.695   c0,0.977,0.172,1.912,0.478,2.784c-1.824,0.7-3.122,2.464-3.122,4.535c0,1.891,1.083,3.526,2.66,4.33   c-0.559,0.47-0.916,1.174-0.916,1.962v5.284c-0.079-0.022-0.16-0.038-0.246-0.038h-0.138c-0.505,0-0.918,0.413-0.918,0.918v1.51   c0,0.505,0.413,0.918,0.918,0.918h0.138c0.086,0,0.167-0.016,0.246-0.038v0.038h10.006c0.374,0,0.704-0.172,0.927-0.438   c0.162,0.261,0.449,0.438,0.778,0.438h0.138c0.505,0,0.918-0.413,0.918-0.918v-1.51C73.391,90.9,72.978,90.487,72.474,90.487z    M64.734,79.635c0,0.592-0.48,1.072-1.072,1.072c-0.592,0-1.072-0.48-1.072-1.072C62.589,79.043,64.734,79.043,64.734,79.635z"
       id="path10686"
       style="fill:#fec22f;fill-opacity:1" /></g><g
     id="g10694"
     style="fill:#fec22f;fill-opacity:1"><path
       fill="none"
       d="M14.651,49.949c0,0.592,0.48,1.072,1.072,1.072c0.592,0,1.072-0.48,1.072-1.072S14.651,49.357,14.651,49.949z"
       id="path10690"
       style="fill:#fec22f;fill-opacity:1" /><path
       fill="#000000"
       d="M24.535,60.8h-0.138c-0.192,0-0.371,0.061-0.518,0.163c-0.272-3.452-2.567-6.335-5.701-7.462   c1.483-0.833,2.486-2.418,2.486-4.239c0-1.797-0.978-3.362-2.427-4.203c0.288-0.42,0.543-0.87,0.757-1.352   c0.706-1.591,0.878-3.283,0.594-4.876c-0.064-0.358-0.502-0.515-0.781-0.281c-0.923,0.773-1.691,1.759-2.227,2.922   c-0.204-1.199-0.658-2.313-1.312-3.282c-0.204-0.302-0.668-0.267-0.828,0.06c-0.547,1.115-0.854,2.369-0.854,3.695   c0,0.977,0.172,1.912,0.478,2.784c-1.824,0.7-3.122,2.464-3.122,4.535c0,1.891,1.083,3.526,2.66,4.33   c-0.559,0.47-0.916,1.174-0.916,1.962v5.284c-0.079-0.022-0.16-0.038-0.246-0.038h-0.138c-0.505,0-0.918,0.413-0.918,0.918v1.51   c0,0.505,0.413,0.918,0.918,0.918h0.138c0.086,0,0.167-0.016,0.246-0.038v0.038h10.006c0.374,0,0.704-0.172,0.927-0.438   c0.162,0.261,0.449,0.438,0.778,0.438h0.138c0.505,0,0.918-0.413,0.918-0.918v-1.51C25.453,61.213,25.04,60.8,24.535,60.8z    M16.795,49.949c0,0.592-0.48,1.072-1.072,1.072c-0.592,0-1.072-0.48-1.072-1.072S16.795,49.357,16.795,49.949z"
       id="path10692"
       style="fill:#fec22f;fill-opacity:1" /></g><g
     id="g10700"
     style="fill:#fec22f;fill-opacity:1"><path
       fill="none"
       d="M30.63,49.906c0,0.592,0.48,1.072,1.072,1.072c0.592,0,1.072-0.48,1.072-1.072S30.63,49.314,30.63,49.906z"
       id="path10696"
       style="fill:#fec22f;fill-opacity:1" /><path
       fill="#000000"
       d="M40.515,60.758h-0.138c-0.192,0-0.371,0.061-0.518,0.163c-0.272-3.452-2.567-6.335-5.701-7.462   c1.483-0.833,2.486-2.418,2.486-4.239c0-1.797-0.978-3.362-2.427-4.203c0.288-0.42,0.543-0.87,0.757-1.352   c0.706-1.591,0.878-3.283,0.594-4.876c-0.064-0.358-0.502-0.515-0.781-0.281c-0.923,0.773-1.691,1.759-2.227,2.922   c-0.204-1.199-0.658-2.313-1.312-3.282c-0.204-0.302-0.668-0.267-0.828,0.06c-0.547,1.115-0.854,2.369-0.854,3.695   c0,0.977,0.172,1.912,0.478,2.784c-1.824,0.7-3.122,2.464-3.122,4.535c0,1.891,1.083,3.526,2.66,4.33   c-0.559,0.47-0.916,1.174-0.916,1.962v5.284c-0.079-0.022-0.16-0.038-0.246-0.038h-0.138c-0.505,0-0.918,0.413-0.918,0.918v1.51   c0,0.505,0.413,0.918,0.918,0.918h0.138c0.086,0,0.167-0.016,0.246-0.038v0.038h10.006c0.374,0,0.704-0.172,0.927-0.438   c0.162,0.261,0.449,0.438,0.778,0.438h0.138c0.505,0,0.918-0.413,0.918-0.918v-1.51C41.432,61.171,41.02,60.758,40.515,60.758z    M32.775,49.906c0,0.592-0.48,1.072-1.072,1.072c-0.592,0-1.072-0.48-1.072-1.072S32.775,49.314,32.775,49.906z"
       id="path10698"
       style="fill:#fec22f;fill-opacity:1" /></g><g
     id="g10706"
     style="fill:#fec22f;fill-opacity:1"><path
       fill="none"
       d="M46.61,49.864c0,0.592,0.48,1.072,1.072,1.072c0.592,0,1.072-0.48,1.072-1.072   C48.754,49.272,46.61,49.272,46.61,49.864z"
       id="path10702"
       style="fill:#fec22f;fill-opacity:1" /><path
       fill="#000000"
       d="M56.494,60.715h-0.138c-0.192,0-0.371,0.061-0.518,0.163c-0.272-3.452-2.567-6.335-5.701-7.462   c1.483-0.833,2.486-2.418,2.486-4.239c0-1.797-0.978-3.362-2.427-4.203c0.288-0.42,0.543-0.87,0.757-1.352   c0.706-1.591,0.878-3.283,0.594-4.876c-0.064-0.358-0.502-0.515-0.781-0.281c-0.923,0.773-1.691,1.759-2.227,2.922   c-0.204-1.199-0.658-2.313-1.312-3.282c-0.204-0.302-0.668-0.267-0.828,0.06c-0.547,1.115-0.854,2.369-0.854,3.695   c0,0.977,0.172,1.912,0.478,2.784c-1.824,0.7-3.122,2.464-3.122,4.535c0,1.891,1.083,3.526,2.66,4.33   c-0.559,0.47-0.916,1.174-0.916,1.962v5.284c-0.079-0.022-0.16-0.038-0.246-0.038h-0.138c-0.505,0-0.918,0.413-0.918,0.918v1.51   c0,0.505,0.413,0.918,0.918,0.918h0.138c0.086,0,0.167-0.016,0.246-0.038v0.038h10.006c0.374,0,0.704-0.172,0.927-0.438   c0.162,0.261,0.449,0.438,0.778,0.438h0.138c0.505,0,0.918-0.413,0.918-0.918v-1.51C57.412,61.128,56.999,60.715,56.494,60.715z    M48.754,49.864c0,0.592-0.48,1.072-1.072,1.072c-0.592,0-1.072-0.48-1.072-1.072C46.61,49.272,48.754,49.272,48.754,49.864z"
       id="path10704"
       style="fill:#fec22f;fill-opacity:1" /></g><g
     id="g10712"
     style="fill:#fec22f;fill-opacity:1"><path
       fill="none"
       d="M62.589,49.822c0,0.592,0.48,1.072,1.072,1.072c0.592,0,1.072-0.48,1.072-1.072   C64.734,49.229,62.589,49.229,62.589,49.822z"
       id="path10708"
       style="fill:#fec22f;fill-opacity:1" /><path
       fill="#000000"
       d="M72.474,60.673h-0.138c-0.192,0-0.371,0.061-0.518,0.163c-0.272-3.452-2.567-6.335-5.701-7.462   c1.483-0.833,2.486-2.418,2.486-4.239c0-1.797-0.978-3.362-2.427-4.203c0.288-0.42,0.543-0.87,0.757-1.352   c0.706-1.591,0.878-3.283,0.594-4.876c-0.064-0.358-0.502-0.515-0.781-0.281c-0.923,0.773-1.691,1.759-2.227,2.922   c-0.204-1.199-0.658-2.313-1.312-3.282c-0.204-0.302-0.668-0.267-0.828,0.06c-0.547,1.115-0.854,2.369-0.854,3.695   c0,0.977,0.172,1.912,0.478,2.784c-1.824,0.7-3.122,2.464-3.122,4.535c0,1.891,1.083,3.526,2.66,4.33   c-0.559,0.47-0.916,1.174-0.916,1.962v5.284c-0.079-0.022-0.16-0.038-0.246-0.038h-0.138c-0.505,0-0.918,0.413-0.918,0.918v1.51   c0,0.505,0.413,0.918,0.918,0.918h0.138c0.086,0,0.167-0.016,0.246-0.038v0.038h10.006c0.374,0,0.704-0.172,0.927-0.438   c0.162,0.261,0.449,0.438,0.778,0.438h0.138c0.505,0,0.918-0.413,0.918-0.918v-1.51C73.391,61.086,72.978,60.673,72.474,60.673z    M64.734,49.822c0,0.592-0.48,1.072-1.072,1.072c-0.592,0-1.072-0.48-1.072-1.072C62.589,49.229,64.734,49.229,64.734,49.822z"
       id="path10710"
       style="fill:#fec22f;fill-opacity:1" /></g><g
     id="g10718"
     style="fill:#fec22f;fill-opacity:1"><path
       fill="none"
       d="M14.651,20.135c0,0.592,0.48,1.072,1.072,1.072c0.592,0,1.072-0.48,1.072-1.072   C16.795,19.543,14.651,19.543,14.651,20.135z"
       id="path10714"
       style="fill:#fec22f;fill-opacity:1" /><path
       fill="#000000"
       d="M24.535,30.986h-0.138c-0.192,0-0.371,0.061-0.518,0.163c-0.272-3.452-2.567-6.335-5.701-7.462   c1.483-0.833,2.486-2.418,2.486-4.239c0-1.797-0.978-3.362-2.427-4.203c0.288-0.42,0.543-0.87,0.757-1.352   c0.706-1.591,0.878-3.283,0.594-4.876c-0.064-0.358-0.502-0.515-0.781-0.281c-0.923,0.773-1.691,1.759-2.227,2.922   c-0.204-1.199-0.658-2.313-1.312-3.282c-0.204-0.302-0.668-0.267-0.828,0.06c-0.547,1.115-0.854,2.369-0.854,3.695   c0,0.977,0.172,1.912,0.478,2.784c-1.824,0.7-3.122,2.464-3.122,4.535c0,1.891,1.083,3.526,2.66,4.33   c-0.559,0.47-0.916,1.174-0.916,1.962v5.284c-0.079-0.022-0.16-0.038-0.246-0.038h-0.138c-0.505,0-0.918,0.413-0.918,0.918v1.51   c0,0.505,0.413,0.918,0.918,0.918h0.138c0.086,0,0.167-0.016,0.246-0.038v0.038h10.006c0.374,0,0.704-0.172,0.927-0.438   c0.162,0.261,0.449,0.438,0.778,0.438h0.138c0.505,0,0.918-0.413,0.918-0.918v-1.51C25.453,31.399,25.04,30.986,24.535,30.986z    M16.795,20.135c0,0.592-0.48,1.072-1.072,1.072c-0.592,0-1.072-0.48-1.072-1.072C14.651,19.543,16.795,19.543,16.795,20.135z"
       id="path10716"
       style="fill:#fec22f;fill-opacity:1" /></g><g
     id="g10724"
     style="fill:#fec22f;fill-opacity:1"><path
       fill="none"
       d="M30.63,20.093c0,0.592,0.48,1.072,1.072,1.072c0.592,0,1.072-0.48,1.072-1.072S30.63,19.5,30.63,20.093z"
       id="path10720"
       style="fill:#fec22f;fill-opacity:1" /><path
       fill="#000000"
       d="M40.515,30.944h-0.138c-0.192,0-0.371,0.061-0.518,0.163c-0.272-3.452-2.567-6.335-5.701-7.462   c1.483-0.833,2.486-2.418,2.486-4.239c0-1.797-0.978-3.362-2.427-4.203c0.288-0.42,0.543-0.87,0.757-1.352   c0.706-1.591,0.878-3.283,0.594-4.876c-0.064-0.358-0.502-0.515-0.781-0.281c-0.923,0.773-1.691,1.759-2.227,2.922   c-0.204-1.199-0.658-2.313-1.312-3.282c-0.204-0.302-0.668-0.267-0.828,0.06c-0.547,1.115-0.854,2.369-0.854,3.695   c0,0.977,0.172,1.912,0.478,2.784c-1.824,0.7-3.122,2.464-3.122,4.535c0,1.891,1.083,3.526,2.66,4.33   c-0.559,0.47-0.916,1.174-0.916,1.962v5.284c-0.079-0.022-0.16-0.038-0.246-0.038h-0.138c-0.505,0-0.918,0.413-0.918,0.918v1.51   c0,0.505,0.413,0.918,0.918,0.918h0.138c0.086,0,0.167-0.016,0.246-0.038v0.038h10.006c0.374,0,0.704-0.172,0.927-0.438   c0.162,0.261,0.449,0.438,0.778,0.438h0.138c0.505,0,0.918-0.413,0.918-0.918v-1.51C41.432,31.357,41.02,30.944,40.515,30.944z    M32.775,20.093c0,0.592-0.48,1.072-1.072,1.072c-0.592,0-1.072-0.48-1.072-1.072S32.775,19.5,32.775,20.093z"
       id="path10722"
       style="fill:#fec22f;fill-opacity:1" /></g><g
     id="g10730"
     style="fill:#fec22f;fill-opacity:1"><path
       fill="none"
       d="M46.61,20.05c0,0.592,0.48,1.072,1.072,1.072c0.592,0,1.072-0.48,1.072-1.072   C48.754,19.458,46.61,19.458,46.61,20.05z"
       id="path10726"
       style="fill:#fec22f;fill-opacity:1" /><path
       fill="#000000"
       d="M56.494,30.901h-0.138c-0.192,0-0.371,0.061-0.518,0.163c-0.272-3.452-2.567-6.335-5.701-7.462   c1.483-0.833,2.486-2.418,2.486-4.239c0-1.797-0.978-3.362-2.427-4.203c0.288-0.42,0.543-0.87,0.757-1.352   c0.706-1.591,0.878-3.283,0.594-4.876c-0.064-0.358-0.502-0.515-0.781-0.281c-0.923,0.773-1.691,1.759-2.227,2.922   c-0.204-1.199-0.658-2.313-1.312-3.282c-0.204-0.302-0.668-0.267-0.828,0.06c-0.547,1.115-0.854,2.369-0.854,3.695   c0,0.977,0.172,1.912,0.478,2.784c-1.824,0.7-3.122,2.464-3.122,4.535c0,1.891,1.083,3.526,2.66,4.33   c-0.559,0.47-0.916,1.174-0.916,1.962v5.284c-0.079-0.022-0.16-0.038-0.246-0.038h-0.138c-0.505,0-0.918,0.413-0.918,0.918v1.51   c0,0.505,0.413,0.918,0.918,0.918h0.138c0.086,0,0.167-0.016,0.246-0.038v0.038h10.006c0.374,0,0.704-0.172,0.927-0.438   c0.162,0.261,0.449,0.438,0.778,0.438h0.138c0.505,0,0.918-0.413,0.918-0.918v-1.51C57.412,31.314,56.999,30.901,56.494,30.901z    M48.754,20.05c0,0.592-0.48,1.072-1.072,1.072c-0.592,0-1.072-0.48-1.072-1.072C46.61,19.458,48.754,19.458,48.754,20.05z"
       id="path10728"
       style="fill:#fec22f;fill-opacity:1" /></g><g
     id="g10736"
     style="fill:#fec22f;fill-opacity:1"><path
       fill="none"
       d="M62.589,20.008c0,0.592,0.48,1.072,1.072,1.072c0.592,0,1.072-0.48,1.072-1.072S62.589,19.415,62.589,20.008z"
       id="path10732"
       style="fill:#fec22f;fill-opacity:1" /><path
       fill="#000000"
       d="M72.474,30.859h-0.138c-0.192,0-0.371,0.061-0.518,0.163c-0.272-3.452-2.567-6.335-5.701-7.462   c1.483-0.833,2.486-2.418,2.486-4.239c0-1.797-0.978-3.362-2.427-4.203c0.288-0.42,0.543-0.87,0.757-1.352   c0.706-1.591,0.878-3.283,0.594-4.876c-0.064-0.358-0.502-0.515-0.781-0.281c-0.923,0.773-1.691,1.759-2.227,2.922   c-0.204-1.199-0.658-2.313-1.312-3.282c-0.204-0.302-0.668-0.267-0.828,0.06c-0.547,1.115-0.854,2.369-0.854,3.695   c0,0.977,0.172,1.912,0.478,2.784c-1.824,0.7-3.122,2.464-3.122,4.535c0,1.891,1.083,3.526,2.66,4.33   c-0.559,0.47-0.916,1.174-0.916,1.962v5.284c-0.079-0.022-0.16-0.038-0.246-0.038h-0.138c-0.505,0-0.918,0.413-0.918,0.918v1.51   c0,0.505,0.413,0.918,0.918,0.918h0.138c0.086,0,0.167-0.016,0.246-0.038v0.038h10.006c0.374,0,0.704-0.172,0.927-0.438   c0.162,0.261,0.449,0.438,0.778,0.438h0.138c0.505,0,0.918-0.413,0.918-0.918v-1.51C73.391,31.272,72.978,30.859,72.474,30.859z    M64.734,20.008c0,0.592-0.48,1.072-1.072,1.072c-0.592,0-1.072-0.48-1.072-1.072S64.734,19.415,64.734,20.008z"
       id="path10734"
       style="fill:#fec22f;fill-opacity:1" /></g><g
     id="g10742"
     style="fill:#fec22f;fill-opacity:1"><path
       fill="none"
       d="M78.256,79.763c0,0.592,0.48,1.072,1.072,1.072c0.592,0,1.072-0.48,1.072-1.072S78.256,79.171,78.256,79.763z"
       id="path10738"
       style="fill:#fec22f;fill-opacity:1" /><path
       fill="#000000"
       d="M88.141,90.614h-0.138c-0.192,0-0.371,0.061-0.518,0.163c-0.272-3.452-2.567-6.335-5.701-7.462   c1.483-0.833,2.486-2.418,2.486-4.239c0-1.797-0.978-3.362-2.427-4.203c0.288-0.42,0.543-0.87,0.757-1.352   c0.706-1.591,0.878-3.283,0.594-4.876c-0.064-0.358-0.502-0.515-0.781-0.281c-0.923,0.773-1.691,1.759-2.227,2.922   c-0.204-1.199-0.658-2.313-1.312-3.282c-0.204-0.302-0.668-0.267-0.828,0.06c-0.547,1.115-0.854,2.369-0.854,3.695   c0,0.977,0.172,1.912,0.478,2.784c-1.824,0.7-3.122,2.464-3.122,4.535c0,1.891,1.083,3.526,2.66,4.33   c-0.559,0.47-0.916,1.174-0.916,1.962v5.284c-0.079-0.022-0.16-0.038-0.246-0.038h-0.138c-0.505,0-0.918,0.413-0.918,0.918v1.51   c0,0.505,0.413,0.918,0.918,0.918h0.138c0.086,0,0.167-0.016,0.246-0.038v0.038h10.006c0.374,0,0.704-0.172,0.927-0.438   c0.162,0.261,0.449,0.438,0.778,0.438h0.138c0.505,0,0.918-0.413,0.918-0.918v-1.51C89.058,91.027,88.645,90.614,88.141,90.614z    M80.4,79.763c0,0.592-0.48,1.072-1.072,1.072c-0.592,0-1.072-0.48-1.072-1.072S80.4,79.171,80.4,79.763z"
       id="path10740"
       style="fill:#fec22f;fill-opacity:1" /></g><g
     id="g10748"
     style="fill:#fec22f;fill-opacity:1"><path
       fill="none"
       d="M78.256,49.949c0,0.592,0.48,1.072,1.072,1.072c0.592,0,1.072-0.48,1.072-1.072S78.256,49.357,78.256,49.949z"
       id="path10744"
       style="fill:#fec22f;fill-opacity:1" /><path
       fill="#000000"
       d="M88.141,60.8h-0.138c-0.192,0-0.371,0.061-0.518,0.163c-0.272-3.452-2.567-6.335-5.701-7.462   c1.483-0.833,2.486-2.418,2.486-4.239c0-1.797-0.978-3.362-2.427-4.203c0.288-0.42,0.543-0.87,0.757-1.352   c0.706-1.591,0.878-3.283,0.594-4.876c-0.064-0.358-0.502-0.515-0.781-0.281c-0.923,0.773-1.691,1.759-2.227,2.922   c-0.204-1.199-0.658-2.313-1.312-3.282c-0.204-0.302-0.668-0.267-0.828,0.06c-0.547,1.115-0.854,2.369-0.854,3.695   c0,0.977,0.172,1.912,0.478,2.784c-1.824,0.7-3.122,2.464-3.122,4.535c0,1.891,1.083,3.526,2.66,4.33   c-0.559,0.47-0.916,1.174-0.916,1.962v5.284c-0.079-0.022-0.16-0.038-0.246-0.038h-0.138c-0.505,0-0.918,0.413-0.918,0.918v1.51   c0,0.505,0.413,0.918,0.918,0.918h0.138c0.086,0,0.167-0.016,0.246-0.038v0.038h10.006c0.374,0,0.704-0.172,0.927-0.438   c0.162,0.261,0.449,0.438,0.778,0.438h0.138c0.505,0,0.918-0.413,0.918-0.918v-1.51C89.058,61.213,88.645,60.8,88.141,60.8z    M80.4,49.949c0,0.592-0.48,1.072-1.072,1.072c-0.592,0-1.072-0.48-1.072-1.072S80.4,49.357,80.4,49.949z"
       id="path10746"
       style="fill:#fec22f;fill-opacity:1" /></g><g
     id="g10754"
     style="fill:#fec22f;fill-opacity:1"><path
       fill="none"
       d="M78.256,20.135c0,0.592,0.48,1.072,1.072,1.072c0.592,0,1.072-0.48,1.072-1.072   C80.4,19.543,78.256,19.543,78.256,20.135z"
       id="path10750"
       style="fill:#fec22f;fill-opacity:1" /><path
       fill="#000000"
       d="M88.141,30.986h-0.138c-0.192,0-0.371,0.061-0.518,0.163c-0.272-3.452-2.567-6.335-5.701-7.462   c1.483-0.833,2.486-2.418,2.486-4.239c0-1.797-0.978-3.362-2.427-4.203c0.288-0.42,0.543-0.87,0.757-1.352   c0.706-1.591,0.878-3.283,0.594-4.876c-0.064-0.358-0.502-0.515-0.781-0.281c-0.923,0.773-1.691,1.759-2.227,2.922   c-0.204-1.199-0.658-2.313-1.312-3.282c-0.204-0.302-0.668-0.267-0.828,0.06c-0.547,1.115-0.854,2.369-0.854,3.695   c0,0.977,0.172,1.912,0.478,2.784c-1.824,0.7-3.122,2.464-3.122,4.535c0,1.891,1.083,3.526,2.66,4.33   c-0.559,0.47-0.916,1.174-0.916,1.962v5.284c-0.079-0.022-0.16-0.038-0.246-0.038h-0.138c-0.505,0-0.918,0.413-0.918,0.918v1.51   c0,0.505,0.413,0.918,0.918,0.918h0.138c0.086,0,0.167-0.016,0.246-0.038v0.038h10.006c0.374,0,0.704-0.172,0.927-0.438   c0.162,0.261,0.449,0.438,0.778,0.438h0.138c0.505,0,0.918-0.413,0.918-0.918v-1.51C89.058,31.399,88.645,30.986,88.141,30.986z    M80.4,20.135c0,0.592-0.48,1.072-1.072,1.072c-0.592,0-1.072-0.48-1.072-1.072C78.256,19.543,80.4,19.543,80.4,20.135z"
       id="path10752"
       style="fill:#fec22f;fill-opacity:1" /></g></svg>
