<svg height='100px' width='100px'  fill="#000000" xmlns="http://www.w3.org/2000/svg" xmlns:xlink="http://www.w3.org/1999/xlink" version="1.1" x="0px" y="0px" viewBox="0 0 98.386 53.232" enable-background="new 0 0 98.386 53.232" xml:space="preserve"><path d="M62.781,42.304c0-1.946,1.578-3.524,3.521-3.524l0,0c1.945,0,3.523,1.578,3.523,3.524l0,0  c0.004,2.137,1.744,3.879,3.887,3.882l0,0c2.143-0.003,3.883-1.747,3.887-3.882l0,0c-0.004-2.139-1.744-3.882-3.887-3.886l0,0  c-7.348-0.003-13.504-5.11-15.105-11.97l0,0H22.881l-0.002-0.013C10.243,26.409,0.004,16.161,0,3.522l0,0C0,1.576,1.577,0,3.523,0  l0,0c1.944,0,3.522,1.576,3.522,3.522l0,0c0.016,8.753,7.115,15.852,15.877,15.868l0,0l0.003,0.013h35.675  c1.592-6.874,7.754-11.994,15.111-11.997l0,0c7.354,0.002,13.512,5.118,15.109,11.984l0,0h1.461c4.475,0.003,8.098,3.624,8.104,8.1  l0,0c-0.006,4.476-3.627,8.096-8.104,8.101l0,0c-4.473-0.006-8.092-3.618-8.104-8.088l0,0l0,0v-1.054H66.027  c1.342,2.901,4.279,4.919,7.686,4.924l0,0c6.037,0.004,10.928,4.892,10.934,10.932l0,0C84.64,48.34,79.75,53.228,73.712,53.232l0,0  C67.675,53.228,62.785,48.339,62.781,42.304L62.781,42.304z M89.226,27.49c0,0.576,0.479,1.054,1.057,1.054l0,0  c0.58,0,1.055-0.479,1.057-1.054l0,0c-0.002-0.521-0.387-0.959-0.889-1.041l0,0h-1.227v1.041H89.226L89.226,27.49z M81.414,19.403  c-1.338-2.917-4.281-4.946-7.701-4.952l0,0c-3.416,0.006-6.361,2.035-7.699,4.952l0,0H81.414L81.414,19.403z"></path></svg>