<svg height='100px' width='100px'  fill="#000000" xmlns:x="http://ns.adobe.com/Extensibility/1.0/" xmlns:i="http://ns.adobe.com/AdobeIllustrator/10.0/" xmlns:graph="http://ns.adobe.com/Graphs/1.0/" xmlns="http://www.w3.org/2000/svg" xmlns:xlink="http://www.w3.org/1999/xlink" version="1.1" x="0px" y="0px" viewBox="0 0 311.2 320.9" style="enable-background:new 0 0 311.2 320.9;" xml:space="preserve"><g><g i:extraneous="self"><g><ellipse cx="153.1" cy="64.1" rx="4.3" ry="4.1"></ellipse><ellipse cx="161.3" cy="64.6" rx="4.3" ry="4.1"></ellipse><ellipse cx="169.2" cy="65.7" rx="4.3" ry="4.1"></ellipse><ellipse cx="176.7" cy="67.4" rx="4.3" ry="4.1"></ellipse><ellipse cx="183.8" cy="69.7" rx="4.3" ry="4.1"></ellipse><ellipse cx="190.5" cy="72.5" rx="4.3" ry="4.1"></ellipse><ellipse cx="196.9" cy="75.8" rx="4.3" ry="4.1"></ellipse><ellipse cx="202.9" cy="79.5" rx="4.3" ry="4.1"></ellipse><ellipse cx="208.5" cy="83.7" rx="4.3" ry="4.1"></ellipse><ellipse cx="213.7" cy="88.3" rx="4.3" ry="4.1"></ellipse><ellipse cx="218.5" cy="93.3" rx="4.3" ry="4.1"></ellipse><ellipse cx="222.9" cy="98.7" rx="4.3" ry="4.1"></ellipse><ellipse cx="226.9" cy="104.4" rx="4.3" ry="4.1"></ellipse><ellipse cx="230.5" cy="110.3" rx="4.3" ry="4.1"></ellipse><ellipse cx="233.6" cy="116.6" rx="4.3" ry="4.1"></ellipse><ellipse cx="236.3" cy="123.1" rx="4.3" ry="4.1"></ellipse><ellipse cx="238.6" cy="129.8" rx="4.3" ry="4.1"></ellipse><ellipse cx="240.5" cy="136.6" rx="4.3" ry="4.1"></ellipse><ellipse cx="241.9" cy="143.7" rx="4.3" ry="4.1"></ellipse><ellipse cx="242.9" cy="150.8" rx="4.3" ry="4.1"></ellipse><ellipse cx="243.4" cy="158.1" rx="4.3" ry="4.1"></ellipse><ellipse cx="243.4" cy="165.7" rx="4.3" ry="4.1"></ellipse><ellipse cx="242.9" cy="173.9" rx="4.3" ry="4.1"></ellipse><ellipse cx="241.8" cy="181.8" rx="4.3" ry="4.1"></ellipse><ellipse cx="240.1" cy="189.3" rx="4.3" ry="4.1"></ellipse><ellipse cx="237.9" cy="196.6" rx="4.3" ry="4.1"></ellipse><ellipse cx="235.1" cy="203.5" rx="4.3" ry="4.1"></ellipse><ellipse cx="231.9" cy="210.1" rx="4.3" ry="4.1"></ellipse><ellipse cx="228.3" cy="216.4" rx="4.3" ry="4.1"></ellipse><ellipse cx="224.2" cy="222.2" rx="4.3" ry="4.1"></ellipse><ellipse cx="219.7" cy="227.7" rx="4.3" ry="4.1"></ellipse><ellipse cx="214.9" cy="232.7" rx="4.3" ry="4.1"></ellipse><ellipse cx="209.7" cy="237.4" rx="4.3" ry="4.1"></ellipse><ellipse cx="204.1" cy="241.6" rx="4.3" ry="4.1"></ellipse><ellipse cx="198.3" cy="245.3" rx="4.3" ry="4.1"></ellipse><ellipse cx="192.3" cy="248.5" rx="4.3" ry="4.1"></ellipse><ellipse cx="186" cy="251.3" rx="4.3" ry="4.1"></ellipse><ellipse cx="179.5" cy="253.5" rx="4.3" ry="4.1"></ellipse><ellipse cx="172.8" cy="255.2" rx="4.3" ry="4.1"></ellipse><ellipse cx="165.9" cy="256.4" rx="4.3" ry="4.1"></ellipse><ellipse cx="159" cy="257" rx="4.3" ry="4.1"></ellipse><ellipse cx="151.9" cy="257.1" rx="4.3" ry="4.1"></ellipse><ellipse cx="144.9" cy="256.4" rx="4.3" ry="4.1"></ellipse><ellipse cx="138.1" cy="255.1" rx="4.3" ry="4.1"></ellipse><ellipse cx="131.4" cy="253.1" rx="4.3" ry="4.1"></ellipse><ellipse cx="124.9" cy="250.6" rx="4.3" ry="4.1"></ellipse><ellipse cx="118.6" cy="247.4" rx="4.3" ry="4.1"></ellipse><ellipse cx="112.5" cy="243.8" rx="4.3" ry="4.1"></ellipse><ellipse cx="106.8" cy="239.6" rx="4.3" ry="4.1"></ellipse><ellipse cx="101.3" cy="235" rx="4.3" ry="4.1"></ellipse><ellipse cx="96.1" cy="229.9" rx="4.3" ry="4.1"></ellipse><ellipse cx="91.3" cy="224.4" rx="4.3" ry="4.1"></ellipse><ellipse cx="86.9" cy="218.6" rx="4.3" ry="4.1"></ellipse><ellipse cx="82.9" cy="212.5" rx="4.3" ry="4.1"></ellipse><ellipse cx="79.3" cy="206.1" rx="4.3" ry="4.1"></ellipse><ellipse cx="76.2" cy="199.4" rx="4.3" ry="4.1"></ellipse><ellipse cx="73.6" cy="192.5" rx="4.3" ry="4.1"></ellipse><ellipse cx="71.5" cy="185.4" rx="4.3" ry="4.1"></ellipse><ellipse cx="69.9" cy="178.1" rx="4.3" ry="4.1"></ellipse><ellipse cx="68.9" cy="170.8" rx="4.3" ry="4.1"></ellipse><ellipse cx="68.5" cy="163.3" rx="4.3" ry="4.1"></ellipse><ellipse cx="68.6" cy="156.4" rx="4.3" ry="4.1"></ellipse><ellipse cx="69.2" cy="149.4" rx="4.3" ry="4.1"></ellipse><ellipse cx="70.1" cy="142.5" rx="4.3" ry="4.1"></ellipse><ellipse cx="71.5" cy="135.6" rx="4.3" ry="4.1"></ellipse><ellipse cx="73.3" cy="128.8" rx="4.3" ry="4.1"></ellipse><ellipse cx="75.6" cy="122.1" rx="4.3" ry="4.1"></ellipse><ellipse cx="78.2" cy="115.6" rx="4.3" ry="4.1"></ellipse><ellipse cx="81.3" cy="109.3" rx="4.3" ry="4.1"></ellipse><ellipse cx="84.9" cy="103.2" rx="4.3" ry="4.1"></ellipse><ellipse cx="88.9" cy="97.5" rx="4.3" ry="4.1"></ellipse><ellipse cx="93.3" cy="92" rx="4.3" ry="4.1"></ellipse><ellipse cx="98.2" cy="86.9" rx="4.3" ry="4.1"></ellipse><ellipse cx="103.5" cy="82.2" rx="4.3" ry="4.1"></ellipse><ellipse cx="109.3" cy="77.9" rx="4.3" ry="4.1"></ellipse><ellipse cx="115.6" cy="74.2" rx="4.3" ry="4.1"></ellipse><ellipse cx="122.3" cy="70.9" rx="4.3" ry="4.1"></ellipse><ellipse cx="129.5" cy="68.2" rx="4.3" ry="4.1"></ellipse><ellipse cx="137.2" cy="66.2" rx="4.3" ry="4.1"></ellipse><ellipse cx="145.4" cy="64.7" rx="4.3" ry="4.1"></ellipse></g><g><ellipse cx="163.8" cy="74.8" rx="3.8" ry="3.6"></ellipse><ellipse cx="171.7" cy="75.7" rx="3.8" ry="3.6"></ellipse><ellipse cx="178.4" cy="78.5" rx="3.8" ry="3.6"></ellipse><ellipse cx="183.2" cy="83.6" rx="3.8" ry="3.6"></ellipse><ellipse cx="185.5" cy="91.1" rx="3.8" ry="3.6"></ellipse><ellipse cx="187.1" cy="98.6" rx="3.8" ry="3.6"></ellipse><ellipse cx="188.7" cy="106.2" rx="3.8" ry="3.6"></ellipse><ellipse cx="190.3" cy="113.6" rx="3.8" ry="3.6"></ellipse><ellipse cx="191.9" cy="121.1" rx="3.8" ry="3.6"></ellipse><ellipse cx="193.5" cy="128.4" rx="3.8" ry="3.6"></ellipse><ellipse cx="195.2" cy="135.8" rx="3.8" ry="3.6"></ellipse><ellipse cx="196.7" cy="143.2" rx="3.8" ry="3.6"></ellipse><ellipse cx="198.3" cy="150.5" rx="3.8" ry="3.6"></ellipse><ellipse cx="199.8" cy="157.8" rx="3.8" ry="3.6"></ellipse><ellipse cx="201.2" cy="165.1" rx="3.8" ry="3.6"></ellipse><ellipse cx="202.5" cy="172.4" rx="3.8" ry="3.6"></ellipse><ellipse cx="203.7" cy="179.8" rx="3.8" ry="3.6"></ellipse><ellipse cx="204.8" cy="187.1" rx="3.8" ry="3.6"></ellipse><ellipse cx="205.7" cy="194.5" rx="3.8" ry="3.6"></ellipse><ellipse cx="206.6" cy="201.8" rx="3.8" ry="3.6"></ellipse><ellipse cx="207.2" cy="209.3" rx="3.8" ry="3.6"></ellipse><ellipse cx="207.6" cy="216.9" rx="3.8" ry="3.6"></ellipse><ellipse cx="206.3" cy="224.1" rx="3.8" ry="3.6"></ellipse><ellipse cx="202.9" cy="230.2" rx="3.8" ry="3.6"></ellipse><ellipse cx="197.8" cy="235.1" rx="3.8" ry="3.6"></ellipse><ellipse cx="191.4" cy="239.1" rx="3.8" ry="3.6"></ellipse><ellipse cx="184.2" cy="242.1" rx="3.8" ry="3.6"></ellipse><ellipse cx="176.4" cy="244.2" rx="3.8" ry="3.6"></ellipse><ellipse cx="168.6" cy="245.6" rx="3.8" ry="3.6"></ellipse><ellipse cx="161.2" cy="246.2" rx="3.8" ry="3.6"></ellipse><ellipse cx="154" cy="246.2" rx="3.8" ry="3.6"></ellipse><ellipse cx="146.3" cy="245.4" rx="3.8" ry="3.6"></ellipse><ellipse cx="138.4" cy="243.9" rx="3.8" ry="3.6"></ellipse><ellipse cx="130.7" cy="241.4" rx="3.8" ry="3.6"></ellipse><ellipse cx="123.7" cy="238.1" rx="3.8" ry="3.6"></ellipse><ellipse cx="117.6" cy="233.9" rx="3.8" ry="3.6"></ellipse><ellipse cx="112.9" cy="228.7" rx="3.8" ry="3.6"></ellipse><ellipse cx="110" cy="222.5" rx="3.8" ry="3.6"></ellipse><ellipse cx="109.2" cy="215.3" rx="3.8" ry="3.6"></ellipse><ellipse cx="109.4" cy="207.7" rx="3.8" ry="3.6"></ellipse><ellipse cx="109.8" cy="200.2" rx="3.8" ry="3.6"></ellipse><ellipse cx="110.5" cy="192.7" rx="3.8" ry="3.6"></ellipse><ellipse cx="111.3" cy="185.2" rx="3.8" ry="3.6"></ellipse><ellipse cx="112.4" cy="177.6" rx="3.8" ry="3.6"></ellipse><ellipse cx="113.6" cy="170.1" rx="3.8" ry="3.6"></ellipse><ellipse cx="114.9" cy="162.7" rx="3.8" ry="3.6"></ellipse><ellipse cx="116.4" cy="155.2" rx="3.8" ry="3.6"></ellipse><ellipse cx="118.1" cy="147.8" rx="3.8" ry="3.6"></ellipse><ellipse cx="119.8" cy="140.4" rx="3.8" ry="3.6"></ellipse><ellipse cx="121.6" cy="133" rx="3.8" ry="3.6"></ellipse><ellipse cx="123.5" cy="125.7" rx="3.8" ry="3.6"></ellipse><ellipse cx="125.4" cy="118.5" rx="3.8" ry="3.6"></ellipse><ellipse cx="127.4" cy="111.2" rx="3.8" ry="3.6"></ellipse><ellipse cx="129.3" cy="104.1" rx="3.8" ry="3.6"></ellipse><ellipse cx="131.3" cy="97" rx="3.8" ry="3.6"></ellipse><ellipse cx="133.2" cy="90" rx="3.8" ry="3.6"></ellipse><ellipse cx="136.1" cy="82.9" rx="3.8" ry="3.6"></ellipse><ellipse cx="141.2" cy="78.1" rx="3.8" ry="3.6"></ellipse><ellipse cx="147.9" cy="75.6" rx="3.8" ry="3.6"></ellipse><ellipse cx="156" cy="74.8" rx="3.8" ry="3.6"></ellipse></g><g><ellipse cx="156" cy="88.5" rx="3.1" ry="2.9"></ellipse><path d="M162.2,91.5c1.7,0,3.1-1.3,3.1-2.9s-1.4-2.9-3.1-2.9c-1.7,0-3.1,1.3-3.1,2.9S160.4,91.5,162.2,91.5z"></path><path d="M152.9,94.4c0,1.6,1.4,2.9,3.1,2.9s3.1-1.3,3.1-2.9c0-1.6-1.4-2.9-3.1-2.9S152.9,92.8,152.9,94.4z"></path><path d="M159.1,94.4c0,1.6,1.4,2.9,3.1,2.9c1.7,0,3.1-1.3,3.1-2.9c0-1.6-1.4-2.9-3.1-2.9C160.4,91.5,159.1,92.8,159.1,94.4z"></path><path d="M303.6,183c-1.5-0.4-8.6-1.2-14.7-2.2c-6-1.1-12.5,5.2-12.5,5.2l-13.2-2c1.1-7.6,1.7-15.5,1.7-23.7     c0-2.9-0.1-5.8-0.2-8.6l11.6-1.2c0,0,6,6.7,12.1,6c6.1-0.7,13.3-1.1,14.8-1.4c3.2-0.6,6.5-2.4,7-4.8c0.6-2.8,0.1-3.9-0.8-5.1     c-0.9-1.2-3.3-1.5-4-3.9l-0.3-0.9l0.1-0.9c0.2-2.5,2.5-3.3,3.1-4.6c0.6-1.3,0.9-2.5-0.2-5.1c-0.9-2.2-4.6-3.4-7.8-3.4     c-1.6,0-8.7,1-14.8,1.4c-6.1,0.4-10.7,8.1-10.7,8.1l-11.5,1.1c-1.5-9.7-3.8-18.8-7.1-27.4l9.1-4.8c0,0,8.4,3.8,13.6,0.8     c5.3-3,11.7-6.1,13-6.9c2.7-1.8,4.9-4.7,4.4-7c-0.7-2.8-1.6-3.6-2.9-4.4c-1.3-0.7-3.7-0.1-5.3-2.1l-0.6-0.7l-0.3-0.9     c-0.9-2.4,0.9-4,0.9-5.4c0-1.4-0.3-2.6-2.4-4.6c-1.8-1.7-5.6-1.4-8.6-0.1c-1.4,0.6-7.5,4.2-13,6.9c-5.4,2.7-6.4,11.5-6.4,11.5     l-7.7,4.1c-5.1-9.4-11.5-17.7-19.1-24.8l5.1-5.7c0,0,9.2,0.8,13.1-3.8c3.8-4.6,8.7-9.6,9.6-10.8c1.8-2.5,2.9-6.1,1.5-8.1     c-1.7-2.4-2.9-2.9-4.3-3.1c-1.5-0.3-3.5,1.1-5.8-0.2l-0.8-0.5l-0.6-0.7c-1.7-1.9-0.6-4.1-1.1-5.4c-0.5-1.3-1.2-2.4-3.9-3.5     c-2.3-1-5.8,0.6-8.1,2.8c-1.1,1-5.5,6.4-9.6,10.8c-4.1,4.4-1.7,12.9-1.7,12.9l-5.2,5.8c-6-4-12.5-7.4-19.5-10l3-9.3     c0,0,8.8-2.7,10.5-8.4c1.6-5.6,4.1-12.1,4.4-13.5c0.6-3,0.2-6.7-1.9-8c-2.5-1.6-3.8-1.6-5.3-1.2c-1.5,0.3-2.8,2.3-5.4,2l-1-0.1     l-0.9-0.4c-2.4-1.1-2.2-3.5-3.3-4.5c-1-1-2.1-1.7-5.1-1.8c-2.5,0-5.1,2.7-6.3,5.6c-0.6,1.4-2.4,8-4.4,13.5     c-2,5.5,3.7,12.5,3.7,12.5l-3,9.2c-5.8-1.3-11.8-2.2-18.1-2.6V34.2c0,0,7.6-5.1,7.4-10.9c-0.2-5.8,0.2-12.7,0-14.1     c-0.3-3.1-1.9-6.4-4.3-7.1c-2.9-0.8-4.1-0.4-5.4,0.3c-1.3,0.7-1.9,3-4.5,3.4l-0.9,0.2l-0.9-0.2c-2.6-0.4-3.2-2.7-4.5-3.4     c-1.3-0.7-2.5-1.1-5.4-0.3c-2.4,0.7-4,4-4.3,7.1c-0.2,1.5,0.2,8.3,0,14.1c-0.2,5.8,7.4,10.9,7.4,10.9v10     c-6.6,0.3-12.9,1-18.9,2.1l-2.7-9.1c0,0,5.8-6.9,3.9-12.5c-1.9-5.6-3.6-12.2-4.2-13.6c-1.2-2.9-3.7-5.6-6.3-5.6     c-3,0-4.1,0.7-5.1,1.7c-1,1-0.9,3.4-3.3,4.5l-0.9,0.4l-1,0.1c-2.6,0.3-3.9-1.7-5.4-2.1c-1.4-0.3-2.8-0.3-5.3,1.2     c-2.1,1.3-2.6,4.9-2,8c0.3,1.5,2.6,7.9,4.2,13.6c1.6,5.6,10.4,8.4,10.4,8.4l2.6,8.8c-6.8,2.3-13.2,5.3-19.1,8.8l-5.2-6.3     c0,0,2.7-8.5-1.3-12.9c-3.9-4.5-8.1-10-9.2-11.1c-2.3-2.2-5.7-3.9-8-3c-2.8,1.1-3.5,2.1-4.1,3.4c-0.6,1.3,0.4,3.5-1.3,5.3     l-0.6,0.7l-0.8,0.4c-2.3,1.2-4.3-0.2-5.8,0c-1.5,0.2-2.7,0.7-4.4,3c-1.5,1.9-0.5,5.5,1.2,8.1c0.8,1.3,5.5,6.4,9.2,11.1     c3.7,4.7,12.9,4.2,12.9,4.2l4.9,6.2C78,74.4,71.7,81.7,66.4,90L58.6,86c0,0-0.8-8.8-6.1-11.6C47,71.5,41,67.8,39.6,67.2     c-2.9-1.3-6.8-1.7-8.6,0c-2.2,2-2.5,3.2-2.5,4.6c0,1.4,1.7,3.1,0.8,5.4L29,78l-0.6,0.7c-1.7,1.9-4.1,1.3-5.4,2     c-1.3,0.7-2.3,1.5-3,4.3c-0.6,2.3,1.6,5.3,4.2,7.1c1.3,0.9,7.6,4.1,12.8,7.1c5.2,3.1,13.6-0.6,13.6-0.6l8.5,4.7     c-3.2,7-5.7,14.6-7.5,22.6l-12.4-2c0,0-4-8-10.1-8.8c-6.1-0.8-13.1-2.2-14.7-2.3c-3.2-0.2-7,0.7-8,2.9c-1.3,2.6-1.1,3.8-0.6,5.1     c0.5,1.3,2.8,2.3,2.8,4.8l0,0.9l-0.3,0.9c-0.9,2.4-3.3,2.6-4.3,3.7c-0.9,1.1-1.5,2.2-1.2,5c0.3,2.4,3.5,4.4,6.6,5.2     c1.5,0.4,8.6,1.2,14.7,2.3c6,1.1,12.5-5.2,12.5-5.2l12.4,2c-0.8,6.4-1.2,12.9-1.2,19.7c0,5.2,0.2,10.3,0.7,15.2l-13,1.5     c0,0-6.2-6.6-12.3-5.7c-6.1,0.9-13.2,1.4-14.8,1.7c-3.2,0.7-6.5,2.6-6.9,4.9c-0.5,2.8,0,3.9,0.9,5.1c0.9,1.1,3.4,1.4,4.1,3.9     l0.3,0.9l0,0.9c-0.1,2.5-2.4,3.4-3,4.7c-0.6,1.3-0.8,2.5,0.4,5.1c1,2.2,4.7,3.3,7.9,3.2c1.6,0,8.6-1.2,14.8-1.7     c6.1-0.6,10.5-8.3,10.5-8.3l13.2-1.5c1.9,9.9,4.8,19.2,8.7,27.8l-8.5,5.9c0,0-8.8-2.8-13.6,0.7c-4.9,3.6-10.8,7.3-12,8.3     c-2.4,2.1-4.3,5.2-3.5,7.5c1,2.7,2.1,3.4,3.4,4c1.4,0.6,3.7-0.3,5.6,1.5l0.7,0.6l0.4,0.8c1.2,2.3-0.4,4.1-0.2,5.5     c0.2,1.4,0.6,2.6,2.9,4.3c2,1.5,5.8,0.7,8.6-0.8c1.3-0.8,7-5,12-8.3c5.1-3.3,4.9-12.1,4.9-12.1l6.5-4.5     c5.7,9,12.7,16.8,20.8,23.4l-5.1,7.5c0,0-9.3,0.3-12.5,5.3c-3.2,5-7.4,10.5-8.1,11.8c-1.5,2.7-2.1,6.4-0.5,8.2     c1.9,2.2,3.2,2.5,4.7,2.6c1.5,0.1,3.3-1.5,5.7-0.5l0.9,0.4l0.7,0.6c1.9,1.7,1.1,3.9,1.8,5.2c0.7,1.3,1.5,2.2,4.4,3     c2.4,0.7,5.6-1.3,7.7-3.7c1-1.2,4.6-7,8.1-11.8c3.5-4.8,0-13,0-13l4.8-7c7.1,4,14.9,7.2,23.4,9.5l-1.8,10.9c0,0-8.3,3.9-9.1,9.7     c-0.8,5.8-2.3,12.5-2.4,14c-0.2,3.1,0.8,6.6,3.1,7.6c2.7,1.2,4,1,5.4,0.5c1.4-0.5,2.4-2.7,5-2.7l1,0l0.9,0.3     c2.5,0.8,2.7,3.2,3.9,4.1c1.2,0.9,2.3,1.4,5.3,1.1c2.5-0.3,4.6-3.4,5.4-6.3c0.4-1.4,1.2-8.2,2.4-14c1.1-5.7-5.5-11.9-5.5-11.9     l1.7-10.2c5.7,0.8,11.6,1.2,17.8,1.2c4.1,0,8-0.2,11.9-0.5l1.3,10.8c0,0-6.9,5.8-6.1,11.6c0.8,5.8,1.3,12.6,1.7,14.1     c0.7,3,2.6,6.2,5.1,6.6c2.9,0.5,4.1,0,5.3-0.8c1.2-0.8,1.6-3.2,4.1-3.9l0.9-0.3l1,0.1c2.6,0.1,3.5,2.4,4.9,2.9     c1.4,0.6,2.6,0.8,5.4-0.3c2.3-0.9,3.5-4.4,3.5-7.5c0-1.5-1.1-8.2-1.7-14.1c-0.5-5.8-8.7-10.1-8.7-10.1l-1.3-11.4     c10.8-2.3,20.6-6.1,29.4-11.1l5.7,6.8c0,0-2.6,8.5,1.4,12.9c4,4.5,8.2,10,9.3,11c2.3,2.2,5.7,3.9,8,2.9c2.8-1.1,3.5-2.1,4-3.4     c0.5-1.3-0.5-3.5,1.3-5.4l0.6-0.7l0.8-0.4c2.3-1.2,4.3,0.2,5.8,0c1.5-0.2,2.7-0.7,4.4-3c1.4-2,0.5-5.5-1.3-8.1     c-0.9-1.2-5.6-6.4-9.3-11c-3.7-4.6-13-4.1-13-4.1l-5.2-6.1c6.2-5,11.7-10.8,16.5-17.2l8.3,5c0,0,0.5,8.8,5.8,11.8     c5.3,3,11.2,6.8,12.6,7.5c2.9,1.4,6.7,1.9,8.6,0.3c2.2-1.9,2.6-3.1,2.6-4.5c0.1-1.4-1.6-3.1-0.6-5.5l0.4-0.8l0.6-0.7     c1.8-1.9,4.1-1.2,5.4-1.8c1.3-0.7,2.3-1.5,3.1-4.2c0.7-2.3-1.4-5.3-4-7.2c-1.2-0.9-7.5-4.3-12.6-7.5c-5.1-3.2-13.7,0.2-13.7,0.2     l-8.5-5.1c4.3-8,7.6-16.7,10.1-26l13.7,2.1c0,0,4.1,7.9,10.1,8.7c6.1,0.8,13.1,2.2,14.7,2.2c3.2,0.2,7-0.8,8-2.9     c1.3-2.6,1.1-3.8,0.6-5.1c-0.5-1.3-2.8-2.3-2.8-4.8l0-0.9l0.3-0.9c0.9-2.4,3.3-2.6,4.3-3.7c0.9-1.1,1.5-2.2,1.1-5     C309.9,185.8,306.7,183.8,303.6,183z M155.6,262.7c-52.7,0-92.8-47.4-92.8-103.9c0-56.5,40.1-100.7,92.8-100.7     S251,103.9,251,160.4C251,216.9,208.3,262.7,155.6,262.7z"></path><ellipse cx="105" cy="111.2" rx="5.5" ry="5.2"></ellipse><ellipse cx="87.9" cy="186.5" rx="5.5" ry="5.2"></ellipse><ellipse cx="221" cy="187.9" rx="5.5" ry="5.2"></ellipse><ellipse cx="206.5" cy="112.9" rx="5.5" ry="5.2"></ellipse><path d="M175,149.1c-1.5-2-4.5-2-7.9-1.3c0.4-0.6,0.6-1.3,0.6-2.1c0-2.4-2.1-4.4-4.6-4.4s-4.6,2-4.6,4.4c0,1.7,1,3.1,2.5,3.9     c-6.5,2.2-12.6,4.5-12.6-0.2c0-8.7,27.9-18.7,27.5-31.2c-0.4-11.1-24-17.4-27.8-10.4l0-0.1l-7.7,1.5v2l7.1-1.7     c0,0.5-0.1,0.9,0,1.5c0.7,4.8,15.4,4.6,14.7,9c-0.7,4.4-26.8,10.9-25.1,28.7c1.7,17.7,13.8,14.2,17.2,14.2     c3.1,0,21.2-5.4,21.4-11.4l5.2-1.3l0.5-1.7l-6.2,1.2C175.1,149.4,175.1,149.3,175,149.1z"></path><path d="M152.2,168.8c-7.4,1.7-13.3,5.8-14,9.3l-5,1v2l5.1-1.2c0.2,0.5,0.4,1,0.8,1.4c1.6,1.7,5.8,0.8,10.5-0.5     c-0.8,0.8-1.2,1.8-1.2,2.9c0,2.4,2,4.3,4.5,4.3s4.5-1.9,4.5-4.3c0-2-1.5-3.8-3.5-4.2c6.7-2,13.1-3.5,13.8,1.2     c1.3,9.1-32.4,18.3-30.6,30.9c1.8,12.2,28,17.5,30.5,8.3l5.7-1.4l0.5-1.7l-6.1,1.2c-0.6-8.9-20.8-3.7-15.5-8.4     c5.5-5,29.1-10.3,27.4-28.3C177.8,163.3,161.8,166.6,152.2,168.8z"></path></g></g></g></svg>