<?xml version="1.0" encoding="UTF-8" standalone="no"?>
<svg
   xmlns:dc="http://purl.org/dc/elements/1.1/"
   xmlns:cc="http://creativecommons.org/ns#"
   xmlns:rdf="http://www.w3.org/1999/02/22-rdf-syntax-ns#"
   xmlns:svg="http://www.w3.org/2000/svg"
   xmlns="http://www.w3.org/2000/svg"
   xmlns:sodipodi="http://sodipodi.sourceforge.net/DTD/sodipodi-0.dtd"
   xmlns:inkscape="http://www.inkscape.org/namespaces/inkscape"
   version="1.1"
   x="0px"
   y="0px"
	 height="100"
	 width="100"
   viewBox="0 0 100 92.316"
   enable-background="new 0 0 100 92.316"
   xml:space="preserve"
   id="svg9993"
   sodipodi:docname="hunting.svg"
   inkscape:version="0.92.2 5c3e80d, 2017-08-06"><metadata
     id="metadata9999"><rdf:RDF><cc:Work
         rdf:about=""><dc:format>image/svg+xml</dc:format><dc:type
           rdf:resource="http://purl.org/dc/dcmitype/StillImage" /></cc:Work></rdf:RDF></metadata><defs
     id="defs9997" /><sodipodi:namedview
     pagecolor="#ffffff"
     bordercolor="#666666"
     borderopacity="1"
     objecttolerance="10"
     gridtolerance="10"
     guidetolerance="10"
     inkscape:pageopacity="0"
     inkscape:pageshadow="2"
     inkscape:window-width="1076"
     inkscape:window-height="608"
     id="namedview9995"
     showgrid="false"
     inkscape:zoom="2.5564365"
     inkscape:cx="51.173508"
     inkscape:cy="46.158001"
     inkscape:window-x="0"
     inkscape:window-y="0"
     inkscape:window-maximized="0"
     inkscape:current-layer="svg9993" /><path
     d="M81.655,30.105l-4.908,8.306l-3.101-1.835l13.636-23.071L81.069,1.597L61.75,16.658l-23.506,0.017l-4.817,7.439  L0.142,16.609v17.294c0,0,3.04,0.926,7.18,2.186v7.277l6.438-5.317c0.003,0,0.005,0.001,0.009,0.001l3.342,9.885l5.295-7.256  c0.033,0.009,0.067,0.021,0.1,0.03l3.092,5.92l5.04-2.882l7.61,11.42H24.289v5.481l-5.449,1.853l-6.949-6.082v8.446l-5.874,1.996  l5.22,7.831l25.944-3.426l24.604,21.048h38.131L100,42.715L81.655,30.105z M43.217,30.967c-1.804,0-3.265-1.461-3.265-3.264  c0-1.802,1.46-3.262,3.265-3.262c1.803,0,3.263,1.46,3.263,3.262C46.48,29.506,45.021,30.967,43.217,30.967z M71.476,30.017  l-1.69,1.9l-6.933-6.161l8.226-7.48l1.713,1.886l-6.131,5.572L71.476,30.017z"
     id="path9991"
     style="fill:#fec22f;fill-opacity:1" /></svg>
