<?xml version="1.0" encoding="UTF-8" standalone="no"?>
<svg
   xmlns:dc="http://purl.org/dc/elements/1.1/"
   xmlns:cc="http://creativecommons.org/ns#"
   xmlns:rdf="http://www.w3.org/1999/02/22-rdf-syntax-ns#"
   xmlns:svg="http://www.w3.org/2000/svg"
   xmlns="http://www.w3.org/2000/svg"
   xmlns:sodipodi="http://sodipodi.sourceforge.net/DTD/sodipodi-0.dtd"
   xmlns:inkscape="http://www.inkscape.org/namespaces/inkscape"
   fill="#1A1A1A"
   version="1.1"
   x="0px"
   y="0px"
	 height="100"
	 width="100"
   viewBox="0 0 100 100"
   enable-background="new 0 0 100 100"
   xml:space="preserve"
   id="svg4"
   sodipodi:docname="population-vital.svg"
   inkscape:export-filename="/Users/ewd/Downloads/noun_statistics_40041_1A1A1A.png"
   inkscape:export-xdpi="1602.95"
   inkscape:export-ydpi="1602.95"
   inkscape:version="0.92.2 5c3e80d, 2017-08-06"><metadata
     id="metadata10"><rdf:RDF><cc:Work
         rdf:about=""><dc:format>image/svg+xml</dc:format><dc:type
           rdf:resource="http://purl.org/dc/dcmitype/StillImage" /><dc:title /></cc:Work></rdf:RDF></metadata><defs
     id="defs8"><marker
       inkscape:isstock="true"
       style="overflow:visible;"
       id="marker2798"
       refX="0.0"
       refY="0.0"
       orient="auto"
       inkscape:stockid="Arrow1Mend"><path
         transform="scale(0.4) rotate(180) translate(10,0)"
         style="fill-rule:evenodd;stroke:#000000;stroke-width:1pt;stroke-opacity:1;fill:#000000;fill-opacity:1"
         d="M 0.0,0.0 L 5.0,-5.0 L -12.5,0.0 L 5.0,5.0 L 0.0,0.0 z "
         id="path2796" /></marker><marker
       inkscape:isstock="true"
       style="overflow:visible;"
       id="marker2610"
       refX="0.0"
       refY="0.0"
       orient="auto"
       inkscape:stockid="Arrow1Mend"><path
         transform="scale(0.4) rotate(180) translate(10,0)"
         style="fill-rule:evenodd;stroke:#000000;stroke-width:1pt;stroke-opacity:1;fill:#000000;fill-opacity:1"
         d="M 0.0,0.0 L 5.0,-5.0 L -12.5,0.0 L 5.0,5.0 L 0.0,0.0 z "
         id="path2608" /></marker><marker
       inkscape:isstock="true"
       style="overflow:visible;"
       id="marker2345"
       refX="0.0"
       refY="0.0"
       orient="auto"
       inkscape:stockid="Arrow1Mend"><path
         transform="scale(0.4) rotate(180) translate(10,0)"
         style="fill-rule:evenodd;stroke:#000000;stroke-width:1pt;stroke-opacity:1;fill:#000000;fill-opacity:1"
         d="M 0.0,0.0 L 5.0,-5.0 L -12.5,0.0 L 5.0,5.0 L 0.0,0.0 z "
         id="path2343" /></marker><marker
       inkscape:stockid="Arrow1Mend"
       orient="auto"
       refY="0.0"
       refX="0.0"
       id="marker933"
       style="overflow:visible;"
       inkscape:isstock="true"><path
         id="path931"
         d="M 0.0,0.0 L 5.0,-5.0 L -12.5,0.0 L 5.0,5.0 L 0.0,0.0 z "
         style="fill-rule:evenodd;stroke:#fec22f;stroke-width:1pt;stroke-opacity:1;fill:#fec22f;fill-opacity:1"
         transform="scale(0.4) rotate(180) translate(10,0)" /></marker><marker
       inkscape:stockid="Arrow1Mend"
       orient="auto"
       refY="0.0"
       refX="0.0"
       id="marker2248"
       style="overflow:visible;"
       inkscape:isstock="true"><path
         id="path2246"
         d="M 0.0,0.0 L 5.0,-5.0 L -12.5,0.0 L 5.0,5.0 L 0.0,0.0 z "
         style="fill-rule:evenodd;stroke:#aaaa00;stroke-width:1pt;stroke-opacity:1;fill:#aaaa00;fill-opacity:1"
         transform="scale(0.4) rotate(180) translate(10,0)" /></marker><marker
       inkscape:stockid="Arrow1Mend"
       orient="auto"
       refY="0.0"
       refX="0.0"
       id="marker2190"
       style="overflow:visible;"
       inkscape:isstock="true"><path
         id="path2188"
         d="M 0.0,0.0 L 5.0,-5.0 L -12.5,0.0 L 5.0,5.0 L 0.0,0.0 z "
         style="fill-rule:evenodd;stroke:#aaaa00;stroke-width:1pt;stroke-opacity:1;fill:#aaaa00;fill-opacity:1"
         transform="scale(0.4) rotate(180) translate(10,0)" /></marker><marker
       inkscape:stockid="Arrow1Mend"
       orient="auto"
       refY="0.0"
       refX="0.0"
       id="marker2088"
       style="overflow:visible;"
       inkscape:isstock="true"><path
         id="path2086"
         d="M 0.0,0.0 L 5.0,-5.0 L -12.5,0.0 L 5.0,5.0 L 0.0,0.0 z "
         style="fill-rule:evenodd;stroke:#fec22f;stroke-width:1pt;stroke-opacity:1;fill:#fec22f;fill-opacity:1"
         transform="scale(0.4) rotate(180) translate(10,0)" /></marker><marker
       inkscape:isstock="true"
       style="overflow:visible;"
       id="marker2248-3"
       refX="0.0"
       refY="0.0"
       orient="auto"
       inkscape:stockid="Arrow1Mend"><path
         transform="scale(0.4) rotate(180) translate(10,0)"
         style="fill-rule:evenodd;stroke:#000000;stroke-width:1pt;stroke-opacity:1;fill:#000000;fill-opacity:1"
         d="M 0.0,0.0 L 5.0,-5.0 L -12.5,0.0 L 5.0,5.0 L 0.0,0.0 z "
         id="path2246-8" /></marker><marker
       inkscape:isstock="true"
       style="overflow:visible;"
       id="marker2190-0"
       refX="0.0"
       refY="0.0"
       orient="auto"
       inkscape:stockid="Arrow1Mend"><path
         transform="scale(0.4) rotate(180) translate(10,0)"
         style="fill-rule:evenodd;stroke:#aaaa00;stroke-width:1pt;stroke-opacity:1;fill:#aaaa00;fill-opacity:1"
         d="M 0.0,0.0 L 5.0,-5.0 L -12.5,0.0 L 5.0,5.0 L 0.0,0.0 z "
         id="path2188-2" /></marker><marker
       inkscape:isstock="true"
       style="overflow:visible;"
       id="marker2088-4"
       refX="0.0"
       refY="0.0"
       orient="auto"
       inkscape:stockid="Arrow1Mend"><path
         transform="scale(0.4) rotate(180) translate(10,0)"
         style="fill-rule:evenodd;stroke:#fec22f;stroke-width:1pt;stroke-opacity:1;fill:#fec22f;fill-opacity:1"
         d="M 0.0,0.0 L 5.0,-5.0 L -12.5,0.0 L 5.0,5.0 L 0.0,0.0 z "
         id="path2086-8" /></marker><marker
       inkscape:isstock="true"
       style="overflow:visible;"
       id="marker3103"
       refX="0.0"
       refY="0.0"
       orient="auto"
       inkscape:stockid="Arrow1Mend"><path
         transform="scale(0.4) rotate(180) translate(10,0)"
         style="fill-rule:evenodd;stroke:#000000;stroke-width:1pt;stroke-opacity:1;fill:#000000;fill-opacity:1"
         d="M 0.0,0.0 L 5.0,-5.0 L -12.5,0.0 L 5.0,5.0 L 0.0,0.0 z "
         id="path3101" /></marker><marker
       inkscape:stockid="Arrow1Mend"
       orient="auto"
       refY="0.0"
       refX="0.0"
       id="marker2190-3"
       style="overflow:visible;"
       inkscape:isstock="true"><path
         id="path2188-8"
         d="M 0.0,0.0 L 5.0,-5.0 L -12.5,0.0 L 5.0,5.0 L 0.0,0.0 z "
         style="fill-rule:evenodd;stroke:#aaaa00;stroke-width:1pt;stroke-opacity:1;fill:#aaaa00;fill-opacity:1"
         transform="scale(0.4) rotate(180) translate(10,0)" /></marker><marker
       inkscape:stockid="Arrow1Mend"
       orient="auto"
       refY="0.0"
       refX="0.0"
       id="marker2088-0"
       style="overflow:visible;"
       inkscape:isstock="true"><path
         id="path2086-2"
         d="M 0.0,0.0 L 5.0,-5.0 L -12.5,0.0 L 5.0,5.0 L 0.0,0.0 z "
         style="fill-rule:evenodd;stroke:#aaaa00;stroke-width:1pt;stroke-opacity:1;fill:#aaaa00;fill-opacity:1"
         transform="scale(0.4) rotate(180) translate(10,0)" /></marker><marker
       inkscape:isstock="true"
       style="overflow:visible;"
       id="marker2248-7"
       refX="0.0"
       refY="0.0"
       orient="auto"
       inkscape:stockid="Arrow1Mend"><path
         transform="scale(0.4) rotate(180) translate(10,0)"
         style="fill-rule:evenodd;stroke:#000000;stroke-width:1pt;stroke-opacity:1;fill:#000000;fill-opacity:1"
         d="M 0.0,0.0 L 5.0,-5.0 L -12.5,0.0 L 5.0,5.0 L 0.0,0.0 z "
         id="path2246-3" /></marker><marker
       inkscape:isstock="true"
       style="overflow:visible;"
       id="marker2190-7"
       refX="0.0"
       refY="0.0"
       orient="auto"
       inkscape:stockid="Arrow1Mend"><path
         transform="scale(0.4) rotate(180) translate(10,0)"
         style="fill-rule:evenodd;stroke:#aaaa00;stroke-width:1pt;stroke-opacity:1;fill:#aaaa00;fill-opacity:1"
         d="M 0.0,0.0 L 5.0,-5.0 L -12.5,0.0 L 5.0,5.0 L 0.0,0.0 z "
         id="path2188-9" /></marker><marker
       inkscape:isstock="true"
       style="overflow:visible;"
       id="marker2088-02"
       refX="0.0"
       refY="0.0"
       orient="auto"
       inkscape:stockid="Arrow1Mend"><path
         transform="scale(0.4) rotate(180) translate(10,0)"
         style="fill-rule:evenodd;stroke:#fec22f;stroke-width:1pt;stroke-opacity:1;fill:#fec22f;fill-opacity:1"
         d="M 0.0,0.0 L 5.0,-5.0 L -12.5,0.0 L 5.0,5.0 L 0.0,0.0 z "
         id="path2086-3" /></marker><marker
       inkscape:isstock="true"
       style="overflow:visible;"
       id="marker3103-9"
       refX="0.0"
       refY="0.0"
       orient="auto"
       inkscape:stockid="Arrow1Mend"><path
         transform="scale(0.4) rotate(180) translate(10,0)"
         style="fill-rule:evenodd;stroke:#000000;stroke-width:1pt;stroke-opacity:1;fill:#000000;fill-opacity:1"
         d="M 0.0,0.0 L 5.0,-5.0 L -12.5,0.0 L 5.0,5.0 L 0.0,0.0 z "
         id="path3101-9" /></marker><marker
       inkscape:stockid="Arrow1Mend"
       orient="auto"
       refY="0.0"
       refX="0.0"
       id="marker2190-3-7"
       style="overflow:visible;"
       inkscape:isstock="true"><path
         id="path2188-8-0"
         d="M 0.0,0.0 L 5.0,-5.0 L -12.5,0.0 L 5.0,5.0 L 0.0,0.0 z "
         style="fill-rule:evenodd;stroke:#aaaa00;stroke-width:1pt;stroke-opacity:1;fill:#aaaa00;fill-opacity:1"
         transform="scale(0.4) rotate(180) translate(10,0)" /></marker><marker
       inkscape:stockid="Arrow1Mend"
       orient="auto"
       refY="0.0"
       refX="0.0"
       id="marker2088-0-3"
       style="overflow:visible;"
       inkscape:isstock="true"><path
         id="path2086-2-9"
         d="M 0.0,0.0 L 5.0,-5.0 L -12.5,0.0 L 5.0,5.0 L 0.0,0.0 z "
         style="fill-rule:evenodd;stroke:#aaaa00;stroke-width:1pt;stroke-opacity:1;fill:#aaaa00;fill-opacity:1"
         transform="scale(0.4) rotate(180) translate(10,0)" /></marker></defs><sodipodi:namedview
     pagecolor="#ffffff"
     bordercolor="#666666"
     borderopacity="1"
     objecttolerance="10"
     gridtolerance="10"
     guidetolerance="10"
     inkscape:pageopacity="0"
     inkscape:pageshadow="2"
     inkscape:window-width="1328"
     inkscape:window-height="819"
     id="namedview6"
     showgrid="true"
     inkscape:zoom="2.06"
     inkscape:cx="1.3361531"
     inkscape:cy="30.582524"
     inkscape:window-x="0"
     inkscape:window-y="0"
     inkscape:window-maximized="0"
     inkscape:current-layer="svg4"><inkscape:grid
       type="xygrid"
       id="grid840" /></sodipodi:namedview><g
     style="fill:#3677bc;fill-opacity:1"
     transform="translate(0.43999973,1.2309992)"
     id="g1990"><path
       style="fill:#3677bc;fill-opacity:1"
       inkscape:connector-curvature="0"
       d="m 37.386,50.157 c 0.028,0.016 0.056,0.033 0.084,0.05 0.639,0.388 1.297,0.748 1.972,1.077 0.053,0.024 0.105,0.049 0.158,0.073 0.269,0.128 0.541,0.252 0.815,0.37 0.086,0.037 0.172,0.076 0.259,0.112 0.315,0.132 0.632,0.259 0.954,0.378 0.05,0.018 0.1,0.034 0.15,0.054 0.281,0.102 0.566,0.198 0.852,0.289 0.125,0.041 0.249,0.078 0.374,0.116 0.227,0.069 0.456,0.133 0.686,0.195 0.116,0.031 0.232,0.065 0.35,0.096 0.316,0.079 0.635,0.153 0.956,0.222 0.125,0.026 0.25,0.05 0.376,0.074 0.233,0.045 0.467,0.086 0.703,0.126 0.126,0.021 0.251,0.042 0.377,0.061 0.337,0.05 0.675,0.095 1.017,0.13 0.078,0.009 0.156,0.014 0.234,0.021 0.293,0.027 0.587,0.051 0.883,0.067 0.105,0.006 0.209,0.013 0.314,0.017 0.366,0.017 0.733,0.028 1.103,0.028 0.37,0 0.737,-0.012 1.102,-0.028 0.105,-0.004 0.209,-0.011 0.315,-0.017 0.295,-0.017 0.588,-0.04 0.881,-0.067 0.078,-0.007 0.157,-0.012 0.234,-0.021 0.341,-0.035 0.679,-0.08 1.016,-0.13 0.127,-0.019 0.253,-0.039 0.379,-0.061 0.235,-0.04 0.469,-0.081 0.702,-0.125 0.126,-0.025 0.252,-0.049 0.379,-0.075 0.32,-0.068 0.639,-0.143 0.954,-0.222 0.119,-0.03 0.236,-0.065 0.355,-0.097 0.228,-0.062 0.454,-0.125 0.678,-0.194 0.127,-0.038 0.253,-0.076 0.378,-0.116 0.283,-0.091 0.563,-0.186 0.841,-0.286 0.056,-0.021 0.113,-0.04 0.169,-0.06 0.316,-0.119 0.63,-0.244 0.941,-0.375 0.088,-0.036 0.177,-0.075 0.265,-0.113 0.271,-0.117 0.541,-0.239 0.807,-0.367 0.055,-0.025 0.11,-0.051 0.164,-0.077 0.336,-0.163 0.669,-0.334 0.997,-0.513 10e-4,-10e-4 0.003,-0.002 0.004,-0.002 0.327,-0.18 0.648,-0.366 0.966,-0.559 0.03,-0.019 0.059,-0.037 0.089,-0.055 C 69.601,45.871 74.271,38.151 74.271,29.354 74.273,15.926 63.385,5 50.002,5 36.619,5 25.73,15.926 25.73,29.355 c 0,8.797 4.672,16.519 11.656,20.802 z"
       id="path1986" /><path
       style="fill:#3677bc;fill-opacity:1"
       inkscape:connector-curvature="0"
       d="M 92.423,77.171 C 87.957,64.209 78.424,56.074 64.084,52.986 c -0.326,0.195 -0.657,0.382 -0.99,0.564 -0.021,0.011 -0.042,0.022 -0.063,0.033 -0.343,0.186 -0.688,0.363 -1.038,0.533 -0.055,0.027 -0.111,0.055 -0.166,0.082 -0.368,0.177 -0.738,0.345 -1.112,0.506 -0.056,0.023 -0.112,0.045 -0.168,0.069 -0.309,0.128 -0.619,0.251 -0.932,0.368 -0.113,0.042 -0.227,0.085 -0.34,0.126 -0.348,0.125 -0.697,0.246 -1.049,0.356 -0.092,0.029 -0.185,0.055 -0.278,0.083 -0.291,0.088 -0.583,0.171 -0.876,0.251 -0.142,0.037 -0.285,0.075 -0.428,0.11 -0.303,0.075 -0.607,0.146 -0.914,0.212 -0.129,0.028 -0.26,0.054 -0.39,0.081 -0.319,0.063 -0.639,0.12 -0.96,0.172 -0.137,0.022 -0.273,0.044 -0.411,0.063 -0.342,0.049 -0.685,0.094 -1.029,0.131 -0.066,0.008 -0.132,0.017 -0.197,0.022 -0.387,0.039 -0.775,0.067 -1.166,0.091 -0.11,0.005 -0.22,0.01 -0.33,0.016 -0.415,0.019 -0.829,0.032 -1.245,0.032 -0.416,0 -0.83,-0.014 -1.245,-0.032 -0.109,-0.006 -0.22,-0.011 -0.33,-0.016 -0.39,-0.023 -0.779,-0.052 -1.166,-0.091 -0.065,-0.006 -0.131,-0.015 -0.197,-0.022 -0.344,-0.037 -0.687,-0.082 -1.029,-0.131 -0.138,-0.02 -0.274,-0.041 -0.411,-0.063 -0.321,-0.052 -0.642,-0.109 -0.96,-0.172 -0.13,-0.027 -0.26,-0.053 -0.389,-0.081 -0.307,-0.065 -0.611,-0.137 -0.915,-0.212 -0.143,-0.035 -0.285,-0.073 -0.427,-0.11 -0.294,-0.08 -0.587,-0.163 -0.878,-0.251 C 41.963,55.678 41.87,55.652 41.779,55.624 41.426,55.513 41.076,55.392 40.728,55.267 40.615,55.226 40.503,55.185 40.391,55.142 40.077,55.024 39.766,54.9 39.455,54.771 39.4,54.748 39.345,54.727 39.29,54.704 38.915,54.544 38.544,54.375 38.176,54.198 38.121,54.171 38.067,54.144 38.012,54.117 37.661,53.947 37.315,53.768 36.97,53.582 36.95,53.57 36.93,53.561 36.91,53.55 36.576,53.368 36.244,53.181 35.917,52.986 21.537,56.082 11.992,64.253 7.542,77.275 4.935,84.908 4.91,92.059 5.042,95 H 94.959 C 95.09,92.039 95.06,84.819 92.423,77.171 Z"
       id="path1988" /></g><g
     id="g2096"
     transform="matrix(0.62500778,0,0,0.62500778,16.864406,42.931056)"
     style="fill:#fec22f;fill-opacity:1"><path
       id="path2058"
       d="m 60.763,56.182 c 0.045,-0.127 0.074,-0.262 0.075,-0.403 0,-0.001 0,-0.004 0,-0.007 0,-10e-4 0,-0.002 0,-0.003 0,-0.141 -0.029,-0.274 -0.072,-0.401 -0.005,-0.017 -0.009,-0.032 -0.015,-0.048 -0.05,-0.13 -0.123,-0.246 -0.21,-0.351 -0.007,-0.01 -0.009,-0.02 -0.017,-0.028 l -2.941,-3.335 c -0.458,-0.52 -1.249,-0.57 -1.768,-0.111 -0.519,0.457 -0.568,1.249 -0.111,1.768 l 1.106,1.254 h -9.157 c -0.692,0 -1.253,0.562 -1.253,1.253 0,0.691 0.561,1.252 1.253,1.252 h 9.127 l -1.07,1.194 c -0.461,0.516 -0.418,1.308 0.097,1.77 0.239,0.215 0.538,0.319 0.835,0.319 0.344,0 0.686,-0.14 0.933,-0.417 l 2.941,-3.282 c 0.008,-0.008 0.01,-0.02 0.017,-0.029 0.089,-0.104 0.163,-0.22 0.214,-0.352 0.008,-0.015 0.011,-0.029 0.016,-0.043 z"
       inkscape:connector-curvature="0"
       style="fill:#fec22f;fill-opacity:1" /><path
       id="path2060"
       d="M 89.268,70.092 H 65.33 c -0.692,0 -1.253,0.561 -1.253,1.253 v 6.281 c 0,0.69 0.561,1.253 1.253,1.253 h 23.938 c 0.692,0 1.252,-0.562 1.252,-1.253 v -6.281 c 0.001,-0.693 -0.56,-1.253 -1.252,-1.253 z"
       inkscape:connector-curvature="0"
       style="fill:#fec22f;fill-opacity:1" /><path
       id="path2062"
       d="M 87.754,63.583 H 66.843 c -0.692,0 -1.252,0.562 -1.252,1.253 v 3.142 c 0,0.69 0.561,1.253 1.252,1.253 h 20.911 c 0.692,0 1.252,-0.562 1.252,-1.253 v -3.142 c 0.001,-0.691 -0.56,-1.253 -1.252,-1.253 z"
       inkscape:connector-curvature="0"
       style="fill:#fec22f;fill-opacity:1" /><path
       id="path2064"
       d="m 87.446,43.462 c -0.253,-4.667 -3.582,-8.431 -7.982,-9.375 v -5.072 h 1.696 c 0.692,0 1.252,-0.561 1.252,-1.253 V 25.94 c 0,-0.692 -0.561,-1.253 -1.252,-1.253 h -1.696 v -2.312 c 0,-0.692 -0.561,-1.252 -1.253,-1.252 h -1.823 c -0.692,0 -1.252,0.56 -1.252,1.252 v 2.312 H 73.44 c -0.692,0 -1.252,0.561 -1.252,1.253 v 1.821 c 0,0.692 0.561,1.253 1.252,1.253 h 1.696 v 5.072 c -4.4,0.944 -7.727,4.707 -7.983,9.371 -0.017,0.083 -0.026,0.169 -0.026,0.258 v 17.832 c 0,0.691 0.561,1.253 1.252,1.253 H 86.22 c 0.692,0 1.252,-0.562 1.252,-1.253 V 43.715 c 0,-0.087 -0.009,-0.171 -0.026,-0.253 z m -4.084,3.074 c 0,0.461 -0.374,0.835 -0.835,0.835 H 72.071 c -0.461,0 -0.835,-0.374 -0.835,-0.835 v -3.141 c 0,-0.461 0.374,-0.835 0.835,-0.835 h 10.455 c 0.461,0 0.835,0.374 0.835,0.835 v 3.141 z"
       inkscape:connector-curvature="0"
       style="fill:#fec22f;fill-opacity:1" /><g
       id="g2076"
       style="fill:#fec22f;fill-opacity:1"><path
         id="path2066"
         d="m 18.42,66.237 c -2.426,0 -4.398,1.973 -4.398,4.398 0,2.425 1.973,4.399 4.398,4.399 2.425,0 4.399,-1.974 4.399,-4.399 0,-2.425 -1.973,-4.398 -4.399,-4.398 z m 0,6.292 c -1.044,0 -1.894,-0.849 -1.894,-1.894 0,-1.044 0.849,-1.894 1.894,-1.894 1.045,0 1.894,0.85 1.894,1.894 0,1.046 -0.85,1.894 -1.894,1.894 z"
         inkscape:connector-curvature="0"
         style="fill:#fec22f;fill-opacity:1" /><path
         id="path2068"
         d="m 33.178,66.237 c -2.425,0 -4.398,1.973 -4.398,4.398 0,2.425 1.973,4.399 4.398,4.399 2.426,0 4.399,-1.974 4.399,-4.399 0,-2.425 -1.973,-4.398 -4.399,-4.398 z m 0,6.292 c -1.044,0 -1.894,-0.849 -1.894,-1.894 0,-1.044 0.849,-1.894 1.894,-1.894 1.045,0 1.894,0.85 1.894,1.894 0,1.046 -0.85,1.894 -1.894,1.894 z"
         inkscape:connector-curvature="0"
         style="fill:#fec22f;fill-opacity:1" /><path
         id="path2070"
         d="M 40.505,52.993 H 11.773 c -0.692,0 -1.252,0.561 -1.252,1.252 0,5.743 6.68,12.164 15.619,12.164 8.938,0 15.618,-6.421 15.618,-12.164 0,-0.691 -0.561,-1.252 -1.253,-1.252 z"
         inkscape:connector-curvature="0"
         style="fill:#fec22f;fill-opacity:1" /><path
         id="path2072"
         d="m 11.773,51.6 h 15.414 v 0 c 0,0 0,0 0,0 0.093,0 0.188,-0.014 0.281,-0.034 0.033,-0.008 0.064,-0.021 0.096,-0.03 0.04,-0.013 0.079,-0.021 0.117,-0.037 0.02,-0.009 0.036,-0.021 0.055,-0.03 0.033,-0.017 0.063,-0.034 0.094,-0.052 0.055,-0.033 0.105,-0.069 0.154,-0.109 0.023,-0.021 0.047,-0.038 0.07,-0.061 0.062,-0.059 0.117,-0.123 0.165,-0.192 0.005,-0.008 0.012,-0.012 0.016,-0.019 0.001,-0.001 0.001,-0.003 0.002,-0.005 0.051,-0.079 0.091,-0.165 0.124,-0.252 0.01,-0.026 0.016,-0.052 0.023,-0.079 0.019,-0.064 0.033,-0.13 0.042,-0.197 0.004,-0.03 0.007,-0.06 0.008,-0.09 0.004,-0.069 0,-0.137 -0.008,-0.207 -0.002,-0.026 -0.003,-0.051 -0.008,-0.078 -0.017,-0.092 -0.041,-0.184 -0.08,-0.274 L 23.105,37.662 c -0.273,-0.636 -1.011,-0.93 -1.645,-0.657 -0.636,0.272 -0.93,1.009 -0.657,1.645 l 0.137,0.319 c -5.944,1.824 -10.418,6.607 -10.418,11.378 -10e-4,0.692 0.559,1.253 1.251,1.253 z"
         inkscape:connector-curvature="0"
         style="fill:#fec22f;fill-opacity:1" /><path
         id="path2074"
         d="m 44.694,45.938 c -1.811,-0.279 -2.975,0.334 -3.634,0.898 -1.756,1.505 -1.807,4.138 -1.807,4.434 0,0.69 0.561,1.252 1.252,1.252 0.691,0 1.252,-0.562 1.252,-1.252 0,-0.45 0.171,-1.879 0.932,-2.531 0.383,-0.329 0.913,-0.436 1.62,-0.326 0.685,0.101 1.324,-0.362 1.43,-1.046 0.107,-0.683 -0.362,-1.324 -1.045,-1.429 z"
         inkscape:connector-curvature="0"
         style="fill:#fec22f;fill-opacity:1" /></g></g><text
     xml:space="preserve"
     style="font-style:normal;font-variant:normal;font-weight:normal;font-stretch:normal;font-size:31.99999809px;line-height:1.25;font-family:Helvetica;-inkscape-font-specification:Helvetica;letter-spacing:0px;word-spacing:0px;fill:#000000;fill-opacity:1;stroke:none;stroke-width:0.99999994"
     x="140.34662"
     y="4.152411"
     id="text2814"><tspan
       sodipodi:role="line"
       id="tspan2812"
       x="140.34662"
       y="34.241581"
       style="font-size:31.99999809px;stroke-width:0.99999994" /></text>
<text
     xml:space="preserve"
     style="font-style:normal;font-variant:normal;font-weight:normal;font-stretch:normal;font-size:31.99999809px;line-height:1.25;font-family:Helvetica;-inkscape-font-specification:Helvetica;letter-spacing:0px;word-spacing:0px;fill:#000000;fill-opacity:1;stroke:none;stroke-width:0.99999994"
     x="150.44814"
     y="6.1727419"
     id="text2814-6"><tspan
       sodipodi:role="line"
       id="tspan2812-2"
       x="150.44814"
       y="36.261913"
       style="font-size:31.99999809px;stroke-width:0.99999994" /></text>
</svg>
