<?xml version="1.0" encoding="UTF-8" standalone="no"?>
<svg
   xmlns:dc="http://purl.org/dc/elements/1.1/"
   xmlns:cc="http://creativecommons.org/ns#"
   xmlns:rdf="http://www.w3.org/1999/02/22-rdf-syntax-ns#"
   xmlns:svg="http://www.w3.org/2000/svg"
   xmlns="http://www.w3.org/2000/svg"
   xmlns:sodipodi="http://sodipodi.sourceforge.net/DTD/sodipodi-0.dtd"
   xmlns:inkscape="http://www.inkscape.org/namespaces/inkscape"
   version="1.1"
   x="0px"
   y="0px"
	 height="100"
	 width="100"
   viewBox="0 0 100 100"
   enable-background="new 0 0 100 100"
   xml:space="preserve"
   id="svg8716"
   sodipodi:docname="predator.svg"
   inkscape:version="0.92.2 5c3e80d, 2017-08-06"><metadata
     id="metadata8722"><rdf:RDF><cc:Work
         rdf:about=""><dc:format>image/svg+xml</dc:format><dc:type
           rdf:resource="http://purl.org/dc/dcmitype/StillImage" /></cc:Work></rdf:RDF></metadata><defs
     id="defs8720" /><sodipodi:namedview
     pagecolor="#ffffff"
     bordercolor="#666666"
     borderopacity="1"
     objecttolerance="10"
     gridtolerance="10"
     guidetolerance="10"
     inkscape:pageopacity="0"
     inkscape:pageshadow="2"
     inkscape:window-width="744"
     inkscape:window-height="480"
     id="namedview8718"
     showgrid="false"
     inkscape:zoom="2.36"
     inkscape:cx="51.271186"
     inkscape:cy="50"
     inkscape:window-x="0"
     inkscape:window-y="0"
     inkscape:window-maximized="0"
     inkscape:current-layer="svg8716" /><path
     d="M93.5,34.2L93.5,34.2l-3.2-0.7c-1-0.3-1.9-0.9-2.5-1.8l-0.2-0.3c-0.9-1.4-2.5-2.2-4.1-2.2c-0.1,0-0.1,0-0.2,0  c-1.4,0-2.7,0.3-3.9,0.7l-5.1-0.2l0,0l0,0l1.8,1.9c-1.8,1.1-3.9,2.5-6.6,4.3C60.6,41.5,55.2,36,45.2,36c-3.3,0-6.2,1.8-7.8,4.4  c-6.5,0-9.7,1.4-14.4,6.8c-1.8,2-3.5,3.5-5.1,4.6l-0.7,0.5c0,0,0,0-0.1,0c-0.1,0.1-0.3,0.2-0.4,0.2c0,0-0.1,0-0.1,0.1  c-0.1,0.1-0.2,0.1-0.3,0.2c0,0-0.1,0-0.1,0.1C16.2,52.9,16.1,53,16,53c0,0,0,0-0.1,0c-0.1,0.1-0.2,0.1-0.3,0.2c0,0-0.1,0-0.1,0  c-0.1,0.1-0.2,0.1-0.4,0.2c0,0,0,0,0,0c-0.1,0.1-0.2,0.1-0.3,0.1c0,0-0.1,0-0.1,0c-0.1,0-0.2,0.1-0.3,0.1c0,0,0,0,0,0  c-0.1,0-0.2,0.1-0.4,0.1c0,0-0.1,0-0.1,0c-0.1,0-0.2,0.1-0.3,0.1c0,0,0,0-0.1,0c-0.1,0-0.2,0.1-0.3,0.1c0,0-0.1,0-0.1,0  c-0.1,0-0.2,0-0.3,0.1c0,0-0.1,0-0.1,0c-0.1,0-0.2,0-0.3,0.1c0,0,0,0-0.1,0c-0.1,0-0.2,0-0.3,0c0,0-0.1,0-0.1,0c-0.1,0-0.2,0-0.3,0  c0,0,0,0,0,0c-0.1,0-0.2,0-0.3,0c0,0-0.1,0-0.1,0c-0.1,0-0.2,0-0.3,0c0,0,0,0,0,0c-0.1,0-0.2,0-0.3,0c0,0-0.1,0-0.1,0  c-0.1,0-0.2,0-0.3,0c0,0,0,0-0.1,0c-0.1,0-0.2,0-0.3,0c0,0,0,0-0.1,0c-0.1,0-0.2,0-0.3,0c0,0-0.1,0-0.1,0c-0.1,0-0.2,0-0.3,0  c0,0,0,0-0.1,0c-0.1,0-0.2,0-0.3-0.1c0,0-0.1,0-0.1,0c-0.1,0-0.2,0-0.3-0.1c0,0,0,0,0,0c-0.1,0-0.2-0.1-0.3-0.1c0,0-0.1,0-0.1,0  c-0.1,0-0.2-0.1-0.3-0.1c0,0,0,0,0,0c-0.1,0-0.2-0.1-0.3-0.1c0,0-0.1,0-0.1,0c-0.1,0-0.2-0.1-0.3-0.1c0,0,0,0-0.1,0  c-0.1,0-0.2-0.1-0.3-0.1c0,0,0,0-0.1,0c-0.1,0-0.2-0.1-0.2-0.1c0,0-0.1,0-0.1,0c-0.1,0-0.2-0.1-0.3-0.1c0,0,0,0,0,0  c-0.1,0-0.2-0.1-0.3-0.1c0,0-0.1,0-0.1,0C5.4,53.1,5.3,53,5.2,53c0.5,1.9,2.4,3.3,5.1,4.2l-0.5,1.2l3-0.5l-0.2,1.6l2.4-1.2v1.5  l2.3-1.7v1.5l2.1-1.7l0.1,1.5l2-2l0.4,1.5l1.6-2.3c0,0,0,0,0.1,0l0.4,1.5l1.8-2.5l0.5,1.3l1.2-2.3l0.7,1l1.1-2.6l0.6,1l1-3l0.6,1  l1-3.2l0.5,0.9l1-2.8l0.8,1.4l1.4-3.9c0,0,0.1,0,0.1,0c0,0.2,0,0.4,0,0.6c0,5,4.1,9.1,9.1,9.1l1.6,0c1.4,0.2,2.8,0.9,3.6,2l0.5,1.2  l-2.3,3.8l-3.1-0.4l-1.3,1.7l1.4,1.4l3.6,0l3-3l0.9,2.3l3.2-0.9L56,64.3l2.4,6.6l4.7,0l0-1.5l-2.7-1.1l-1-4.1l1.4-3.2l4.2-1.2  l3.5,1.9l0.6-1.2l-0.4-1.1l0.3-0.5l-0.7-1.9l-3.2-0.9L62.9,56l0.5-1.1c2.9-0.3,5.7-1.5,7.9-3.5c0,0,0,0,0,0c0.4-0.3,0.8-0.6,1.2-1  c0.1-0.1,0.2-0.2-0.1,0.1l0.7-0.6l1,1.2l0.2-2l1,1l0.2-2.3l0.9,1l0.2-2.3l1,1.1l0.2-2.2l0,0l1,1.1l0.2-2.2l0,0l1,1.1l0.2-2.2l0,0  l1.2,1.3l0.3-2.5l1.1,1.2l0.2-2.4l1.8-1.6l7.2-1.4l2.5-2v-0.2v-0.6v-0.3L93.5,34.2z M56.7,56.3l0.9-0.9l-0.2,0.9L56.7,56.3z"
     id="path8714"
     style="fill:#3677bc;fill-opacity:1" /></svg>
