<?xml version="1.0" encoding="UTF-8" standalone="no"?>
<svg
   xmlns:dc="http://purl.org/dc/elements/1.1/"
   xmlns:cc="http://creativecommons.org/ns#"
   xmlns:rdf="http://www.w3.org/1999/02/22-rdf-syntax-ns#"
   xmlns:svg="http://www.w3.org/2000/svg"
   xmlns="http://www.w3.org/2000/svg"
   xmlns:sodipodi="http://sodipodi.sourceforge.net/DTD/sodipodi-0.dtd"
   xmlns:inkscape="http://www.inkscape.org/namespaces/inkscape"
   version="1.1"
   x="0px"
   y="0px"
	 height="100"
	 width="100"
   viewBox="0 0 100 100"
   id="svg6"
   sodipodi:docname="noun_clock_318113_000000.svg"
   inkscape:version="0.92.2 5c3e80d, 2017-08-06">
  <metadata
     id="metadata12">
    <rdf:RDF>
      <cc:Work
         rdf:about="">
        <dc:format>image/svg+xml</dc:format>
        <dc:type
           rdf:resource="http://purl.org/dc/dcmitype/StillImage" />
        <dc:title></dc:title>
      </cc:Work>
    </rdf:RDF>
  </metadata>
  <defs
     id="defs10" />
  <sodipodi:namedview
     pagecolor="#ffffff"
     bordercolor="#666666"
     borderopacity="1"
     objecttolerance="10"
     gridtolerance="10"
     guidetolerance="10"
     inkscape:pageopacity="0"
     inkscape:pageshadow="2"
     inkscape:window-width="1185"
     inkscape:window-height="757"
     id="namedview8"
     showgrid="false"
     inkscape:zoom="2.36"
     inkscape:cx="50"
     inkscape:cy="50"
     inkscape:window-x="0"
     inkscape:window-y="0"
     inkscape:window-maximized="0"
     inkscape:current-layer="svg6" />
  <g
     transform="translate(0,-952.36218)"
     id="g4"
     style="fill:#fec22f;fill-opacity:1">
    <path
       style="color:#000000;enable-background:accumulate;fill:#fec22f;fill-opacity:1"
       d="M 50,8 C 26.804043,8 8,26.804033 8,50 8,73.195957 26.804043,92 50,92 73.195957,92 92,73.195957 92,50 92,26.804033 73.195957,8 50,8 z m 0,6 c 1.656855,0 3,1.343147 3,3 0,1.656853 -1.343145,3 -3,3 -1.656855,0 -3,-1.343147 -3,-3 0,-1.656853 1.343145,-3 3,-3 z m -0.21875,9.96875 C 50.90924,23.844492 52.02444,24.86545 52,26 l 0,23.15625 16.375,16.375 c 0.768355,0.730732 0.789348,2.102003 0.04372,2.855914 -0.745626,0.75391 -2.117046,0.74807 -2.856223,-0.01216 L 48.90625,51.71875 C 48.162422,51.140464 48,50.515161 48,49.625 L 48,26 c -0.02126,-0.98844 0.798498,-1.923255 1.78125,-2.03125 z M 17,47 c 1.656853,0 3,1.343145 3,3 0,1.656855 -1.343147,3 -3,3 -1.656853,0 -3,-1.343145 -3,-3 0,-1.656855 1.343147,-3 3,-3 z m 66,0 c 1.656853,0 3,1.343145 3,3 0,1.656855 -1.343147,3 -3,3 -1.656853,0 -3,-1.343145 -3,-3 0,-1.656855 1.343147,-3 3,-3 z M 50,80 c 1.656855,0 3,1.343147 3,3 0,1.656853 -1.343145,3 -3,3 -1.656855,0 -3,-1.343147 -3,-3 0,-1.656853 1.343145,-3 3,-3 z"
       transform="translate(0,952.36218)"
       fill="#000000"
       stroke="none"
       marker="none"
       visibility="visible"
       display="inline"
       overflow="visible"
       id="path2" />
  </g>
</svg>
