<?xml version="1.0" encoding="UTF-8" standalone="no"?>
<svg
   xmlns:dc="http://purl.org/dc/elements/1.1/"
   xmlns:cc="http://creativecommons.org/ns#"
   xmlns:rdf="http://www.w3.org/1999/02/22-rdf-syntax-ns#"
   xmlns:svg="http://www.w3.org/2000/svg"
   xmlns="http://www.w3.org/2000/svg"
   xmlns:sodipodi="http://sodipodi.sourceforge.net/DTD/sodipodi-0.dtd"
   xmlns:inkscape="http://www.inkscape.org/namespaces/inkscape"
   version="1.1"
   x="0px"
   y="0px"
	 width="100"
	 height="100"
   viewBox="0 0 100 100"
   enable-background="new 0 0 100 100"
   xml:space="preserve"
   id="svg6259"
   sodipodi:docname="virus.svg"
   inkscape:version="0.92.2 5c3e80d, 2017-08-06"><metadata
     id="metadata6265"><rdf:RDF><cc:Work
         rdf:about=""><dc:format>image/svg+xml</dc:format><dc:type
           rdf:resource="http://purl.org/dc/dcmitype/StillImage" /></cc:Work></rdf:RDF></metadata><defs
     id="defs6263" /><sodipodi:namedview
     pagecolor="#ffffff"
     bordercolor="#666666"
     borderopacity="1"
     objecttolerance="10"
     gridtolerance="10"
     guidetolerance="10"
     inkscape:pageopacity="0"
     inkscape:pageshadow="2"
     inkscape:window-width="744"
     inkscape:window-height="480"
     id="namedview6261"
     showgrid="false"
     inkscape:zoom="2.36"
     inkscape:cx="51.271186"
     inkscape:cy="50"
     inkscape:window-x="0"
     inkscape:window-y="0"
     inkscape:window-maximized="0"
     inkscape:current-layer="svg6259" /><path
     d="M92.164,48.477c2.116-0.373,3.308-3.656,2.659-7.332c-0.648-3.677-2.891-6.354-5.007-5.981  c-1.575,0.277-2.637,2.168-2.81,4.631l-5.508,1.946c-0.707-2.665-1.745-5.196-3.066-7.546l5.479-2.229  c1.542,1.64,3.386,2.36,4.639,1.637c1.652-0.954,1.648-4.054-0.008-6.924c-1.657-2.87-4.34-4.423-5.992-3.469  c-1.253,0.724-1.552,2.681-0.901,4.836l-4.747,3.689c-1.603-2.336-3.501-4.452-5.644-6.294l4.124-3.633  c1.979,1.027,3.942,1.092,4.857,0.001c1.189-1.418,0.158-4.241-2.303-6.307c-2.462-2.064-5.421-2.59-6.61-1.173  c-0.915,1.091-0.511,3.014,0.844,4.784l-2.897,4.751c-2.181-1.599-4.566-2.933-7.113-3.953l2.823-4.839  c2.343,0.184,4.27-0.531,4.798-1.982c0.735-2.021-1.513-4.692-5.021-5.97c-3.508-1.276-6.948-0.674-7.684,1.346  c-0.528,1.451,0.488,3.237,2.401,4.603l-0.966,5.628c-2.579-0.691-5.285-1.074-8.074-1.105l0.571-4.064  c2.142-0.437,3.679-1.609,3.679-2.992c0-1.755-2.471-3.177-5.518-3.177s-5.517,1.422-5.517,3.177c0,1.383,1.537,2.556,3.679,2.992  l0.581,4.133c-2.72,0.178-5.349,0.689-7.846,1.495l-1.22-6.378c1.849-1.355,2.821-3.105,2.302-4.531  c-0.735-2.021-4.175-2.623-7.683-1.346c-3.508,1.276-5.756,3.949-5.021,5.97c0.519,1.426,2.389,2.142,4.676,1.991l3.215,5.76  c-2.3,1.073-4.454,2.405-6.423,3.962l-2.917-5.034c1.212-1.809,1.515-3.687,0.589-4.789c-1.308-1.559-4.562-0.981-7.269,1.29  c-2.707,2.271-3.841,5.376-2.533,6.935c0.925,1.104,2.827,1.132,4.818,0.251l4.532,3.813c-1.877,1.867-3.528,3.96-4.907,6.237  l-3.867-2.948c0.689-2.104,0.431-4.043-0.786-4.745c-1.556-0.898-4.083,0.563-5.643,3.267c-1.56,2.702-1.563,5.621-0.007,6.52  c1.217,0.703,3.025-0.043,4.503-1.691l4.536,1.896c-1.253,2.505-2.193,5.192-2.767,8.014l-5.201-1.837  c-0.172-2.466-1.234-4.358-2.81-4.636c-2.117-0.373-4.358,2.305-5.007,5.981c-0.648,3.676,0.542,6.959,2.659,7.332  c1.577,0.278,3.221-1.137,4.226-3.396l5.62,0.055c-0.091,0.993-0.14,1.998-0.14,3.015c0,1.794,0.147,3.554,0.427,5.27l-5.034,0.12  c-0.861-2.07-2.333-3.39-3.744-3.141c-1.834,0.323-2.866,3.168-2.304,6.353c0.562,3.186,2.504,5.506,4.338,5.183  c1.411-0.249,2.343-1.992,2.444-4.232l4.846-1.634c0.679,2.713,1.697,5.29,3.009,7.685l-5.089,1.975  c-1.745-1.881-3.845-2.714-5.269-1.892c-1.862,1.074-1.857,4.567,0.009,7.8c1.867,3.233,4.889,4.983,6.751,3.908  c1.423-0.822,1.752-3.057,0.996-5.509l4.328-3.479c1.462,2.127,3.171,4.07,5.084,5.79l-3.53,3.049  c-1.753-0.741-3.411-0.692-4.228,0.28c-1.179,1.405-0.156,4.205,2.284,6.253c2.441,2.048,5.375,2.569,6.555,1.164  c0.816-0.974,0.576-2.614-0.458-4.212l2.442-4.095c2.069,1.452,4.313,2.671,6.698,3.614l-2.723,4.806  c-2.445-0.25-4.479,0.466-5.025,1.965c-0.735,2.02,1.513,4.692,5.021,5.97c3.508,1.276,6.948,0.674,7.683-1.346  c0.545-1.499-0.553-3.354-2.586-4.735l1.021-5.531c2.458,0.671,5.032,1.062,7.686,1.133l-0.673,4.539  c-2.047,0.538-3.473,1.725-3.473,3.105c0,1.886,2.656,3.415,5.931,3.415c3.276,0,5.932-1.529,5.932-3.415  c0-1.381-1.426-2.567-3.473-3.106l-0.688-4.635c2.727-0.222,5.358-0.778,7.853-1.63l0.854,4.195  c-1.393,0.998-2.132,2.302-1.746,3.361c0.538,1.479,3.057,1.919,5.625,0.984s4.213-2.891,3.675-4.369  c-0.385-1.06-1.789-1.583-3.497-1.453l-2.083-3.836c2.557-1.151,4.936-2.625,7.09-4.367l2.485,4.221  c-1.309,1.809-1.671,3.734-0.741,4.843c1.253,1.492,4.369,0.939,6.961-1.235s3.678-5.147,2.425-6.64  c-0.93-1.109-2.89-1.087-4.897-0.111l-3.804-3.249c1.908-1.888,3.586-4.009,4.983-6.318l3.307,2.762  c-0.505,1.857-0.218,3.519,0.869,4.146c1.487,0.858,3.902-0.539,5.394-3.122s1.494-5.373,0.007-6.231  c-1.088-0.628-2.67-0.046-4.025,1.32l-4.119-1.51c1.205-2.485,2.102-5.147,2.644-7.936l4.434,1.563  c0.146,2.104,1.05,3.721,2.395,3.957c1.804,0.318,3.714-1.963,4.267-5.096c0.552-3.133-0.462-5.93-2.266-6.248  c-1.345-0.237-2.748,0.972-3.604,2.899l-4.787-0.049c0.107-1.074,0.163-2.163,0.163-3.265c0-1.69-0.129-3.35-0.378-4.971  l5.729-0.054C88.945,47.342,90.588,48.755,92.164,48.477z M60.348,23.717c1.195,0,2.164,0.969,2.164,2.164s-0.969,2.164-2.164,2.164  s-2.164-0.969-2.164-2.164S59.152,23.717,60.348,23.717z M56.892,45.576c1.622,0,2.937,1.315,2.937,2.937  c0,1.622-1.314,2.936-2.937,2.936c-1.621,0-2.937-1.314-2.937-2.936C53.955,46.891,55.271,45.576,56.892,45.576z M49.415,42.256  c0,1.195-0.969,2.164-2.164,2.164c-1.195,0-2.164-0.969-2.164-2.164s0.969-2.164,2.164-2.164  C48.445,40.092,49.415,41.061,49.415,42.256z M45.086,24.958c1.622,0,2.936,1.314,2.936,2.937c0,1.621-1.314,2.936-2.936,2.936  c-1.622,0-2.937-1.314-2.937-2.936C42.15,26.272,43.464,24.958,45.086,24.958z M23.124,44.631c0-1.195,0.969-2.164,2.164-2.164  s2.165,0.969,2.165,2.164s-0.969,2.164-2.165,2.164S23.124,45.827,23.124,44.631z M31.457,63.249c-2.63,0-4.762-2.132-4.762-4.762  s2.132-4.762,4.762-4.762s4.762,2.132,4.762,4.762S34.086,63.249,31.457,63.249z M34.796,44.763c-3.742,0-6.776-3.033-6.776-6.775  s3.034-6.776,6.776-6.776s6.776,3.034,6.776,6.776S38.539,44.763,34.796,44.763z M41.729,71.184c-1.195,0-2.164-0.969-2.164-2.164  s0.969-2.164,2.164-2.164s2.164,0.969,2.164,2.164S42.924,71.184,41.729,71.184z M43.034,55.824c0-2.63,2.132-4.762,4.762-4.762  s4.762,2.132,4.762,4.762s-2.132,4.762-4.762,4.762S43.034,58.454,43.034,55.824z M55.494,78.576c-4.553,0-8.244-3.691-8.244-8.244  s3.691-8.243,8.244-8.243s8.244,3.69,8.244,8.243S60.047,78.576,55.494,78.576z M59.002,37.988c0-3.742,3.034-6.776,6.776-6.776  s6.775,3.034,6.775,6.776s-3.033,6.775-6.775,6.775S59.002,41.73,59.002,37.988z M73.711,60.586c-2.63,0-4.762-2.132-4.762-4.762  s2.132-4.762,4.762-4.762s4.762,2.132,4.762,4.762S76.341,60.586,73.711,60.586z"
     id="path6257"
     style="fill:#fec22f;fill-opacity:1" /></svg>
