<svg xmlns="http://www.w3.org/2000/svg" xmlns:xlink="http://www.w3.org/1999/xlink" version="1.1" x="0px" y="0px" viewBox="0 0 100 100" enable-background="new 0 0 100 100" xml:space="preserve"><path d="M87.783,47.898c-1.132-2.958-8.699-12.701-10.266-13.223c-1.565-0.521-4.872-0.348-4.872-0.348  c-1.479-16.616-5.132-18.442-7.654-20.269c-2.523-1.826-2.263,5.395-2.263,5.395c-0.87-3.045-5.307-8.004-8.352-7.221  c-3.045,0.783-1.391,10.788-0.956,13.57c0.437,2.785,4.35,6.785,5.827,8.96c1.479,2.174,0.697,4.088,0.697,4.088  c-1.218,1.741-1.044,6.119-1.044,6.119c-3.043-0.494-6.001,3.016-6.001,3.016c-6.874-2.956-10.808-3.016-10.808-3.016  c-20.86,0.208-23.515,20.064-23.822,26.65c-0.745-0.324-1.78-0.315-3.116,0.737c-3.071,2.419-0.88,5.383-0.88,5.383  c-0.865-0.238-1.722-4.225-1.722-4.225c-1.963,4.198,1.606,7.065,1.606,7.065c-1.33,0.285-3.53-1.206-3.53-1.206  c0.208,0.281,1.585,2.426,4.26,5.227c3.376,3.532,8.355,2.771,10.81,2.676c0.088,0.018,0.163,0.01,0.233-0.01  c0.022,0,0.049-0.002,0.071-0.002l0.012-0.03c0.386-0.172,0.692-0.719,2.295-0.182l2.06,1.296c0,0,18.203,0.169,21.053,0  c1.546-0.092-1.566-4.523-1.566-4.523c5.654-0.349,8.699-2.437,8.699-2.437l8.735,7.129c0,0,8.545,0,9.164,0  c1.801,0,0.697-1.93,0.697-1.93l-8.593-7.809l0.956-1.652c3.306-0.696,5.655-3.915,6.001-4.523c0.35-0.609,0.089-5.132,0.089-5.132  s0.349,0.435,1.826-1.393c1.48-1.827-0.173-4.697-0.607-5.307c-0.434-0.607-1.305-4.438-1.305-4.438s5.827-0.348,7.22-1.044  C84.126,54.596,88.913,50.855,87.783,47.898z"></path></svg>